{"glyphs":{"0":{"ha":836,"x_min":95,"x_max":742,"o":"m 418 -14 q 245 48 317 -14 q 133 227 172 110 q 95 505 95 343 q 134 783 95 667 q 245 962 173 900 q 418 1024 317 1024 q 592 962 519 1024 q 703 783 664 900 q 742 505 742 667 q 703 227 742 343 q 592 48 664 110 q 418 -14 519 -14 m 418 43 q 611 165 541 43 q 681 505 681 288 q 649 754 681 650 q 559 912 618 857 q 418 967 500 967 q 225 845 295 967 q 155 505 155 723 q 187 257 155 360 q 277 98 218 153 q 418 43 336 43 z "},"1":{"ha":592,"x_min":94,"x_max":389,"o":"m 389 1010 l 389 0 l 327 0 l 327 945 l 321 945 l 94 795 l 94 861 l 319 1010 l 389 1010 z "},"2":{"ha":855,"x_min":120,"x_max":739,"o":"m 120 0 l 120 47 l 447 424 q 558 561 517 505 q 617 662 599 617 q 635 757 635 708 q 606 866 635 819 q 527 941 577 914 q 415 967 478 967 q 299 938 349 967 q 221 859 249 909 q 193 747 193 809 l 134 747 q 170 888 134 826 q 271 987 207 951 q 416 1024 334 1024 q 559 989 497 1024 q 658 893 622 954 q 694 757 694 833 q 675 650 694 701 q 610 535 656 598 q 483 379 564 472 l 209 63 l 209 57 l 739 57 l 739 0 l 120 0 z "},"3":{"ha":863,"x_min":121,"x_max":749,"o":"m 436 -14 q 275 20 346 -14 q 164 115 205 55 q 121 253 122 175 l 183 253 q 218 144 185 191 q 309 70 252 97 q 435 43 365 43 q 567 73 510 43 q 656 153 624 103 q 688 266 688 204 q 653 384 688 333 q 555 463 618 435 q 410 491 493 491 l 372 491 l 372 548 l 410 548 q 536 574 480 548 q 624 648 592 600 q 656 760 656 695 q 628 867 656 820 q 551 941 600 914 q 435 967 501 967 q 318 941 370 967 q 236 868 266 915 q 205 758 205 820 l 144 758 q 184 896 145 836 q 288 990 222 956 q 436 1024 353 1024 q 583 989 519 1024 q 681 894 646 954 q 717 762 717 835 q 668 611 717 674 q 537 525 619 549 l 537 519 q 692 430 635 498 q 749 266 749 363 q 709 124 749 187 q 598 23 668 60 q 436 -14 527 -14 z "},"4":{"ha":848,"x_min":95,"x_max":753,"o":"m 95 227 l 95 276 l 552 1010 l 590 1010 l 590 915 l 558 915 l 170 290 l 170 284 l 753 284 l 753 227 l 95 227 m 563 0 l 563 244 l 563 266 l 563 1010 l 623 1010 l 623 0 l 563 0 z "},"5":{"ha":810,"x_min":113,"x_max":707,"o":"m 395 -14 q 251 20 314 -14 q 151 115 187 55 q 113 253 114 175 l 174 253 q 237 102 176 161 q 395 43 299 43 q 526 79 469 43 q 614 177 582 115 q 646 316 646 238 q 611 459 646 398 q 519 553 577 520 q 391 587 461 587 q 288 567 336 587 q 205 516 239 547 l 136 526 l 195 1010 l 669 1010 l 669 953 l 248 953 l 202 575 l 207 575 q 291 626 242 606 q 398 645 340 645 q 553 604 483 645 q 665 488 623 562 q 706 316 707 414 q 666 147 706 221 q 556 29 626 73 q 395 -14 485 -14 z "},"6":{"ha":828,"x_min":105,"x_max":724,"o":"m 422 -14 q 301 14 358 -13 q 200 97 244 40 q 130 244 155 154 q 105 460 105 334 q 123 675 105 573 q 180 855 141 776 q 281 979 218 934 q 434 1024 344 1024 q 571 990 511 1024 q 666 896 630 956 q 709 758 701 836 l 648 758 q 582 908 637 850 q 434 967 526 967 q 233 838 302 967 q 164 472 164 710 l 169 472 q 228 555 189 519 q 317 612 266 591 q 424 632 368 632 q 574 590 506 632 q 683 475 642 548 q 724 310 724 402 q 686 149 724 222 q 580 30 648 75 q 422 -14 512 -14 m 422 43 q 545 79 491 43 q 631 176 600 115 q 663 310 663 236 q 630 444 663 384 q 542 539 598 504 q 418 575 487 575 q 317 553 363 575 q 237 492 271 531 q 189 404 204 454 q 180 300 173 355 q 225 163 191 220 q 309 74 258 106 q 422 43 359 43 z "},"7":{"ha":771,"x_min":76,"x_max":683,"o":"m 146 0 l 616 947 l 616 953 l 76 953 l 76 1010 l 683 1010 l 683 951 l 213 0 l 146 0 z "},"8":{"ha":843,"x_min":98,"x_max":745,"o":"m 422 -14 q 256 23 330 -14 q 140 122 183 60 q 98 263 98 185 q 125 379 98 325 q 198 471 151 433 q 305 522 245 509 l 305 527 q 181 616 229 551 q 133 763 133 681 q 171 896 133 837 q 275 989 209 955 q 422 1024 340 1024 q 567 990 502 1024 q 672 896 633 955 q 710 763 710 837 q 663 616 710 682 q 538 527 615 551 l 538 522 q 644 472 598 510 q 718 379 691 434 q 745 263 745 325 q 702 122 745 185 q 586 23 659 60 q 422 -14 513 -14 m 422 43 q 556 73 497 43 q 650 153 616 103 q 684 266 684 204 q 649 382 684 330 q 555 464 614 434 q 422 495 496 495 q 288 464 347 495 q 194 382 228 434 q 159 266 159 330 q 193 153 159 204 q 287 73 227 103 q 422 43 346 43 m 422 548 q 537 577 485 548 q 619 654 588 605 q 650 761 650 702 q 619 867 650 820 q 537 940 589 913 q 422 967 486 967 q 305 940 357 967 q 223 867 254 913 q 193 761 193 820 q 224 654 193 702 q 306 577 254 605 q 422 548 358 548 z "},"9":{"ha":828,"x_min":105,"x_max":724,"o":"m 406 1024 q 527 997 470 1024 q 629 913 584 970 q 698 767 673 857 q 724 552 724 678 q 706 337 724 439 q 649 156 688 235 q 547 32 610 77 q 395 -14 484 -14 q 257 20 316 -14 q 162 115 198 54 q 119 254 126 175 l 180 254 q 246 103 190 162 q 395 43 302 43 q 595 172 525 43 q 664 541 664 301 l 659 541 q 600 457 639 493 q 511 400 562 421 q 404 380 460 380 q 254 422 322 380 q 145 537 185 464 q 105 702 105 610 q 142 863 105 789 q 248 980 180 936 q 406 1024 316 1024 m 406 967 q 282 931 337 967 q 197 836 228 896 q 165 702 165 775 q 198 568 165 628 q 285 473 230 508 q 410 437 341 437 q 511 459 465 437 q 591 520 557 481 q 640 608 624 559 q 648 712 655 658 q 603 848 637 791 q 520 936 570 905 q 406 967 469 967 z "},"A":{"ha":884,"x_min":42,"x_max":842,"o":"m 107 0 l 42 0 l 406 1010 l 477 1010 l 842 0 l 777 0 l 444 931 l 439 931 l 107 0 m 199 380 l 685 380 l 685 323 l 199 323 l 199 380 z "},"Ä":{"ha":884,"x_min":42,"x_max":842,"o":"m 107 0 l 42 0 l 406 1010 l 477 1010 l 842 0 l 777 0 l 444 931 l 439 931 l 107 0 m 199 380 l 685 380 l 685 323 l 199 323 l 199 380 m 331 1144 q 298 1159 313 1144 q 284 1192 284 1173 q 298 1225 284 1211 q 331 1239 313 1239 q 365 1225 351 1239 q 379 1192 379 1211 q 365 1159 379 1173 q 331 1144 351 1144 m 552 1144 q 519 1159 534 1144 q 505 1192 505 1173 q 519 1225 505 1211 q 552 1239 534 1239 q 586 1225 572 1239 q 600 1192 600 1211 q 586 1159 600 1173 q 552 1144 572 1144 z "},"Ã":{"ha":884,"x_min":42,"x_max":842,"o":"m 107 0 l 42 0 l 406 1010 l 477 1010 l 842 0 l 777 0 l 444 931 l 439 931 l 107 0 m 199 380 l 685 380 l 685 323 l 199 323 l 199 380 m 262 1141 l 211 1145 q 254 1236 215 1201 q 347 1272 292 1272 q 403 1260 379 1272 q 447 1234 427 1249 q 488 1208 467 1220 q 536 1197 509 1197 q 593 1218 568 1197 q 624 1273 619 1240 l 675 1265 q 628 1176 667 1210 q 538 1142 589 1142 q 483 1154 506 1142 q 441 1180 461 1165 q 401 1206 422 1195 q 349 1217 380 1217 q 290 1196 314 1217 q 262 1141 265 1174 z "},"À":{"ha":884,"x_min":42,"x_max":842,"o":"m 107 0 l 42 0 l 406 1010 l 477 1010 l 842 0 l 777 0 l 444 931 l 439 931 l 107 0 m 199 380 l 685 380 l 685 323 l 199 323 l 199 380 m 415 1118 l 267 1336 l 338 1336 l 471 1118 l 415 1118 z "},"Á":{"ha":884,"x_min":42,"x_max":842,"o":"m 107 0 l 42 0 l 406 1010 l 477 1010 l 842 0 l 777 0 l 444 931 l 439 931 l 107 0 m 199 380 l 685 380 l 685 323 l 199 323 l 199 380 m 413 1118 l 545 1336 l 617 1336 l 468 1118 l 413 1118 z "},"Â":{"ha":884,"x_min":42,"x_max":842,"o":"m 107 0 l 42 0 l 406 1010 l 477 1010 l 842 0 l 777 0 l 444 931 l 439 931 l 107 0 m 199 380 l 685 380 l 685 323 l 199 323 l 199 380 m 575 1093 l 442 1240 l 309 1093 l 247 1093 l 247 1098 l 422 1290 l 462 1290 l 637 1098 l 637 1093 l 575 1093 z "},"Å":{"ha":884,"x_min":42,"x_max":842,"o":"m 107 0 l 42 0 l 406 1010 l 477 1010 l 842 0 l 777 0 l 444 931 l 439 931 l 107 0 m 199 380 l 685 380 l 685 323 l 199 323 l 199 380 m 442 1066 q 355 1102 391 1066 q 319 1189 319 1138 q 336 1251 319 1223 q 380 1295 352 1278 q 442 1311 408 1311 q 504 1295 476 1311 q 548 1251 532 1278 q 565 1189 565 1223 q 548 1127 565 1155 q 504 1082 532 1099 q 442 1066 476 1066 m 442 1111 q 497 1133 475 1111 q 519 1189 519 1156 q 497 1244 519 1221 q 442 1267 474 1267 q 387 1244 409 1267 q 364 1189 364 1221 q 387 1133 364 1156 q 442 1111 409 1111 z "},"Ǻ":{"ha":884,"x_min":42,"x_max":842,"o":"m 107 0 l 42 0 l 406 1010 l 477 1010 l 842 0 l 777 0 l 444 931 l 439 931 l 107 0 m 199 380 l 685 380 l 685 323 l 199 323 l 199 380 m 413 1338 l 498 1442 l 566 1442 l 466 1338 l 413 1338 m 442 1066 q 355 1100 391 1066 q 319 1183 319 1134 q 336 1242 319 1215 q 380 1284 352 1268 q 442 1300 408 1300 q 528 1266 493 1300 q 564 1183 564 1232 q 548 1124 564 1151 q 504 1082 532 1098 q 442 1066 476 1066 m 442 1109 q 497 1130 474 1109 q 519 1183 519 1152 q 497 1235 519 1214 q 441 1257 474 1257 q 386 1235 409 1257 q 364 1183 364 1214 q 387 1130 364 1152 q 442 1109 409 1109 z "},"":{"ha":884,"x_min":42,"x_max":890,"o":"m 107 0 l 42 0 l 406 1010 l 477 1010 l 842 0 l 777 0 l 444 931 l 439 931 l 107 0 m 199 380 l 685 380 l 685 323 l 199 323 l 199 380 m 442 1066 q 355 1102 391 1066 q 319 1189 319 1138 q 336 1251 319 1223 q 380 1295 352 1278 q 442 1311 408 1311 q 504 1295 476 1311 q 548 1251 532 1278 q 565 1189 565 1223 q 548 1127 565 1155 q 504 1082 532 1099 q 442 1066 476 1066 m 442 1111 q 497 1133 475 1111 q 519 1189 519 1156 q 497 1244 519 1221 q 442 1267 474 1267 q 387 1244 409 1267 q 364 1189 364 1221 q 387 1133 364 1156 q 442 1111 409 1111 m 795 -298 q 706 -268 741 -298 q 671 -178 671 -237 q 686 -109 671 -142 q 730 -47 700 -77 q 803 14 760 -16 l 841 0 q 762 -86 793 -45 q 731 -173 731 -127 q 750 -227 731 -209 q 805 -245 770 -245 q 843 -238 827 -245 q 875 -221 860 -232 l 890 -268 q 848 -290 871 -281 q 795 -298 825 -298 z "},"Ā":{"ha":884,"x_min":42,"x_max":842,"o":"m 107 0 l 42 0 l 406 1010 l 477 1010 l 842 0 l 777 0 l 444 931 l 439 931 l 107 0 m 199 380 l 685 380 l 685 323 l 199 323 l 199 380 m 624 1218 l 624 1164 l 260 1164 l 260 1218 l 624 1218 z "},"Ă":{"ha":884,"x_min":42,"x_max":842,"o":"m 107 0 l 42 0 l 406 1010 l 477 1010 l 842 0 l 777 0 l 444 931 l 439 931 l 107 0 m 199 380 l 685 380 l 685 323 l 199 323 l 199 380 m 527 1263 l 584 1263 q 546 1164 584 1201 q 442 1127 508 1127 q 338 1164 376 1127 q 300 1263 300 1201 l 358 1263 q 378 1200 358 1224 q 442 1176 399 1176 q 506 1200 485 1176 q 527 1263 527 1224 z "},"Ą":{"ha":884,"x_min":42,"x_max":890,"o":"m 107 0 l 42 0 l 406 1010 l 477 1010 l 842 0 l 777 0 l 444 931 l 439 931 l 107 0 m 199 380 l 685 380 l 685 323 l 199 323 l 199 380 m 795 -298 q 706 -268 741 -298 q 671 -178 671 -237 q 686 -109 671 -142 q 730 -47 700 -77 q 803 14 760 -16 l 841 0 q 762 -86 793 -45 q 731 -173 731 -127 q 750 -227 731 -209 q 805 -245 770 -245 q 843 -238 827 -245 q 875 -221 860 -232 l 890 -268 q 848 -290 871 -281 q 795 -298 825 -298 z "},"Ǎ":{"ha":884,"x_min":42,"x_max":842,"o":"m 107 0 l 42 0 l 406 1010 l 477 1010 l 842 0 l 777 0 l 444 931 l 439 931 l 107 0 m 199 380 l 685 380 l 685 323 l 199 323 l 199 380 m 309 1307 l 442 1160 l 575 1307 l 637 1307 l 637 1302 l 462 1110 l 422 1110 l 247 1302 l 247 1307 l 309 1307 z "},"Ǟ":{"ha":884,"x_min":42,"x_max":842,"o":"m 107 0 l 42 0 l 406 1010 l 477 1010 l 842 0 l 777 0 l 444 931 l 439 931 l 107 0 m 199 380 l 685 380 l 685 323 l 199 323 l 199 380 m 332 1144 q 299 1159 313 1144 q 285 1192 285 1173 q 299 1225 285 1211 q 332 1239 313 1239 q 366 1225 352 1239 q 379 1192 379 1211 q 366 1159 379 1173 q 332 1144 352 1144 m 553 1144 q 520 1159 534 1144 q 506 1192 506 1173 q 520 1225 506 1211 q 553 1239 534 1239 q 587 1225 573 1239 q 600 1192 600 1211 q 587 1159 600 1173 q 553 1144 573 1144 m 625 1430 l 625 1377 l 261 1377 l 261 1430 l 625 1430 z "},"Ǡ":{"ha":884,"x_min":42,"x_max":842,"o":"m 107 0 l 42 0 l 406 1010 l 477 1010 l 842 0 l 777 0 l 444 931 l 439 931 l 107 0 m 199 380 l 685 380 l 685 323 l 199 323 l 199 380 m 442 1144 q 408 1158 423 1144 q 394 1192 394 1172 q 408 1225 394 1211 q 442 1239 423 1239 q 476 1225 462 1239 q 491 1192 491 1211 q 476 1158 491 1172 q 442 1144 462 1144 m 624 1430 l 624 1377 l 260 1377 l 260 1430 l 624 1430 z "},"Ȁ":{"ha":884,"x_min":42,"x_max":842,"o":"m 107 0 l 42 0 l 406 1010 l 477 1010 l 842 0 l 777 0 l 444 931 l 439 931 l 107 0 m 199 380 l 685 380 l 685 323 l 199 323 l 199 380 m 350 1118 l 192 1336 l 267 1336 l 405 1118 l 350 1118 m 492 1118 l 368 1336 l 443 1336 l 547 1118 l 492 1118 z "},"Ȃ":{"ha":884,"x_min":42,"x_max":842,"o":"m 107 0 l 42 0 l 406 1010 l 477 1010 l 842 0 l 777 0 l 444 931 l 439 931 l 107 0 m 199 380 l 685 380 l 685 323 l 199 323 l 199 380 m 302 1171 q 340 1270 302 1232 q 444 1307 378 1307 q 548 1270 510 1307 q 585 1171 585 1232 l 528 1171 q 507 1234 528 1210 q 444 1258 486 1258 q 380 1234 400 1258 q 359 1171 359 1210 l 302 1171 z "},"Ȧ":{"ha":884,"x_min":42,"x_max":842,"o":"m 107 0 l 42 0 l 406 1010 l 477 1010 l 842 0 l 777 0 l 444 931 l 439 931 l 107 0 m 199 380 l 685 380 l 685 323 l 199 323 l 199 380 m 442 1144 q 407 1158 422 1144 q 393 1192 393 1172 q 407 1225 393 1211 q 442 1239 422 1239 q 476 1225 462 1239 q 490 1192 490 1211 q 476 1158 490 1172 q 442 1144 462 1144 z "},"Ḁ":{"ha":884,"x_min":42,"x_max":842,"o":"m 107 0 l 42 0 l 406 1010 l 477 1010 l 842 0 l 777 0 l 444 931 l 439 931 l 107 0 m 199 380 l 685 380 l 685 323 l 199 323 l 199 380 m 327 -173 q 361 -92 327 -125 q 442 -60 394 -60 q 523 -92 489 -60 q 557 -173 557 -125 q 523 -254 557 -221 q 442 -286 489 -286 q 361 -254 394 -286 q 327 -173 327 -221 m 368 -173 q 390 -225 368 -204 q 442 -247 411 -247 q 494 -225 472 -247 q 516 -173 516 -204 q 494 -121 516 -142 q 442 -99 472 -99 q 390 -121 411 -99 q 368 -173 368 -142 z "},"Ạ":{"ha":884,"x_min":42,"x_max":842,"o":"m 107 0 l 42 0 l 406 1010 l 477 1010 l 842 0 l 777 0 l 444 931 l 439 931 l 107 0 m 199 380 l 685 380 l 685 323 l 199 323 l 199 380 m 442 -233 q 407 -219 422 -233 q 393 -186 393 -206 q 407 -153 393 -167 q 442 -139 422 -139 q 476 -153 462 -139 q 490 -186 490 -167 q 476 -219 490 -206 q 442 -233 462 -233 z "},"Ả":{"ha":884,"x_min":42,"x_max":842,"o":"m 107 0 l 42 0 l 406 1010 l 477 1010 l 842 0 l 777 0 l 444 931 l 439 931 l 107 0 m 199 380 l 685 380 l 685 323 l 199 323 l 199 380 m 469 1109 l 416 1109 l 416 1208 q 493 1226 471 1211 q 515 1275 515 1241 q 485 1332 514 1314 q 400 1350 455 1350 l 404 1396 q 530 1363 489 1396 q 572 1276 572 1330 q 543 1202 573 1229 q 469 1170 513 1175 l 469 1109 z "},"Ấ":{"ha":884,"x_min":42,"x_max":842,"o":"m 107 0 l 42 0 l 406 1010 l 477 1010 l 842 0 l 777 0 l 444 931 l 439 931 l 107 0 m 199 380 l 685 380 l 685 323 l 199 323 l 199 380 m 235 1117 l 426 1303 l 467 1303 l 657 1117 l 582 1117 l 446 1253 l 310 1117 l 235 1117 m 632 1238 l 743 1413 l 817 1413 l 687 1238 l 632 1238 z "},"Ầ":{"ha":884,"x_min":42,"x_max":842,"o":"m 107 0 l 42 0 l 406 1010 l 477 1010 l 842 0 l 777 0 l 444 931 l 439 931 l 107 0 m 199 380 l 685 380 l 685 323 l 199 323 l 199 380 m 464 1319 l 654 1133 l 580 1133 l 443 1269 l 307 1133 l 232 1133 l 422 1319 l 464 1319 m 158 1430 l 262 1255 l 207 1255 l 83 1430 l 158 1430 z "},"Ẩ":{"ha":884,"x_min":42,"x_max":842,"o":"m 107 0 l 42 0 l 406 1010 l 477 1010 l 842 0 l 777 0 l 444 931 l 439 931 l 107 0 m 199 380 l 685 380 l 685 323 l 199 323 l 199 380 m 469 1284 l 655 1098 l 586 1098 l 443 1240 l 300 1098 l 232 1098 l 418 1284 l 469 1284 m 691 1194 l 643 1194 l 643 1277 q 716 1294 694 1280 q 737 1335 737 1307 q 709 1384 737 1368 q 627 1401 681 1401 l 631 1444 q 750 1413 711 1443 q 790 1337 790 1383 q 762 1271 790 1296 q 691 1242 733 1246 l 691 1194 z "},"Ẫ":{"ha":884,"x_min":42,"x_max":842,"o":"m 107 0 l 42 0 l 406 1010 l 477 1010 l 842 0 l 777 0 l 444 931 l 439 931 l 107 0 m 199 380 l 685 380 l 685 323 l 199 323 l 199 380 m 453 1258 l 645 1076 l 577 1076 l 434 1212 l 291 1076 l 223 1076 l 416 1258 l 453 1258 m 580 1422 l 619 1414 q 581 1338 614 1368 q 507 1309 548 1309 q 461 1319 480 1309 q 427 1343 442 1330 q 396 1367 412 1357 q 359 1379 380 1378 q 313 1361 335 1379 q 288 1311 291 1342 l 249 1318 q 287 1394 254 1365 q 359 1424 319 1424 q 402 1414 383 1424 q 437 1390 421 1403 q 470 1366 453 1376 q 508 1355 487 1355 q 554 1373 533 1354 q 580 1422 576 1391 z "},"Ậ":{"ha":884,"x_min":42,"x_max":842,"o":"m 107 0 l 42 0 l 406 1010 l 477 1010 l 842 0 l 777 0 l 444 931 l 439 931 l 107 0 m 199 380 l 685 380 l 685 323 l 199 323 l 199 380 m 575 1093 l 442 1240 l 309 1093 l 247 1093 l 247 1098 l 422 1290 l 462 1290 l 637 1098 l 637 1093 l 575 1093 m 442 -233 q 407 -219 422 -233 q 393 -186 393 -206 q 407 -153 393 -167 q 442 -139 422 -139 q 476 -153 462 -139 q 490 -186 490 -167 q 476 -219 490 -206 q 442 -233 462 -233 z "},"Ắ":{"ha":884,"x_min":42,"x_max":842,"o":"m 107 0 l 42 0 l 406 1010 l 477 1010 l 842 0 l 777 0 l 444 931 l 439 931 l 107 0 m 199 380 l 685 380 l 685 323 l 199 323 l 199 380 m 521 1236 l 579 1236 q 541 1147 579 1180 q 436 1114 503 1114 q 332 1147 370 1114 q 294 1236 294 1180 l 352 1236 q 372 1178 352 1199 q 436 1156 393 1156 q 500 1178 479 1156 q 521 1236 521 1199 m 411 1262 l 486 1403 l 549 1403 l 453 1262 l 411 1262 z "},"Ằ":{"ha":884,"x_min":42,"x_max":842,"o":"m 107 0 l 42 0 l 406 1010 l 477 1010 l 842 0 l 777 0 l 444 931 l 439 931 l 107 0 m 199 380 l 685 380 l 685 323 l 199 323 l 199 380 m 521 1236 l 579 1236 q 541 1147 579 1180 q 436 1114 503 1114 q 332 1147 370 1114 q 294 1236 294 1180 l 352 1236 q 372 1178 352 1199 q 436 1156 393 1156 q 500 1178 479 1156 q 521 1236 521 1199 m 423 1262 l 327 1402 l 390 1402 l 465 1262 l 423 1262 z "},"Ẳ":{"ha":884,"x_min":42,"x_max":842,"o":"m 107 0 l 42 0 l 406 1010 l 477 1010 l 842 0 l 777 0 l 444 931 l 439 931 l 107 0 m 199 380 l 685 380 l 685 323 l 199 323 l 199 380 m 515 1264 l 572 1264 q 534 1175 572 1208 q 432 1142 497 1142 q 329 1175 366 1142 q 291 1264 291 1208 l 348 1264 q 369 1206 348 1228 q 432 1184 389 1184 q 494 1206 474 1184 q 515 1264 515 1228 m 460 1275 l 408 1275 l 407 1357 q 472 1369 451 1360 q 493 1400 493 1378 q 465 1439 492 1427 q 392 1451 437 1451 l 397 1491 q 509 1465 469 1490 q 548 1400 548 1439 q 522 1347 548 1365 q 460 1324 496 1329 l 460 1275 z "},"Ẵ":{"ha":884,"x_min":42,"x_max":842,"o":"m 107 0 l 42 0 l 406 1010 l 477 1010 l 842 0 l 777 0 l 444 931 l 439 931 l 107 0 m 199 380 l 685 380 l 685 323 l 199 323 l 199 380 m 519 1268 l 576 1268 q 538 1178 576 1212 q 435 1144 501 1144 q 331 1178 369 1144 q 293 1268 293 1212 l 351 1268 q 371 1210 351 1232 q 435 1188 392 1188 q 498 1210 477 1188 q 519 1268 519 1232 m 567 1438 l 606 1429 q 576 1356 602 1387 q 509 1326 550 1326 q 454 1342 476 1326 q 412 1373 432 1357 q 365 1389 392 1389 q 325 1370 341 1389 q 306 1325 310 1351 l 267 1332 q 297 1406 270 1375 q 365 1437 324 1437 q 408 1428 390 1437 q 442 1405 426 1418 q 473 1383 457 1393 q 509 1374 489 1373 q 548 1393 532 1374 q 567 1438 564 1413 z "},"Ặ":{"ha":884,"x_min":42,"x_max":842,"o":"m 107 0 l 42 0 l 406 1010 l 477 1010 l 842 0 l 777 0 l 444 931 l 439 931 l 107 0 m 199 380 l 685 380 l 685 323 l 199 323 l 199 380 m 527 1263 l 584 1263 q 546 1164 584 1201 q 442 1127 508 1127 q 338 1164 376 1127 q 300 1263 300 1201 l 358 1263 q 378 1200 358 1224 q 442 1176 399 1176 q 506 1200 485 1176 q 527 1263 527 1224 m 442 -233 q 407 -219 422 -233 q 393 -186 393 -206 q 407 -153 393 -167 q 442 -139 422 -139 q 476 -153 462 -139 q 490 -186 490 -167 q 476 -219 490 -206 q 442 -233 462 -233 z "},"Α":{"ha":884,"x_min":42,"x_max":842,"o":"m 107 0 l 42 0 l 406 1010 l 477 1010 l 842 0 l 777 0 l 444 931 l 439 931 l 107 0 m 199 380 l 685 380 l 685 323 l 199 323 l 199 380 z "},"Ά":{"ha":884,"x_min":42,"x_max":842,"o":"m 107 0 l 42 0 l 406 1010 l 477 1010 l 842 0 l 777 0 l 444 931 l 439 931 l 107 0 m 199 380 l 685 380 l 685 323 l 199 323 l 199 380 m 220 838 l 245 1067 l 313 1067 l 263 838 l 220 838 z "},"Ἀ":{"ha":884,"x_min":42,"x_max":842,"o":"m 107 0 l 42 0 l 406 1010 l 477 1010 l 842 0 l 777 0 l 444 931 l 439 931 l 107 0 m 199 380 l 685 380 l 685 323 l 199 323 l 199 380 m 279 1010 l 279 975 q 269 897 279 932 q 237 831 259 862 q 178 769 215 799 l 145 790 q 189 850 173 822 q 211 909 204 878 q 217 979 217 940 l 217 1010 l 279 1010 z "},"Ἁ":{"ha":884,"x_min":42,"x_max":842,"o":"m 107 0 l 42 0 l 406 1010 l 477 1010 l 842 0 l 777 0 l 444 931 l 439 931 l 107 0 m 199 380 l 685 380 l 685 323 l 199 323 l 199 380 m 161 977 l 161 1013 l 222 1013 l 222 981 q 229 912 222 942 q 251 853 235 881 q 294 793 266 825 l 261 771 q 184 865 207 818 q 161 977 161 913 z "},"Ἂ":{"ha":884,"x_min":-66,"x_max":842,"o":"m 107 0 l 42 0 l 406 1010 l 477 1010 l 842 0 l 777 0 l 444 931 l 439 931 l 107 0 m 199 380 l 685 380 l 685 323 l 199 323 l 199 380 m 281 792 l 281 783 l 245 783 l 99 1001 l 99 1012 l 169 1012 l 281 792 m 68 1012 l 68 976 q 58 898 68 933 q 26 832 48 863 q -33 770 3 801 l -66 791 q -9 880 -25 839 q 6 980 6 921 l 6 1012 l 68 1012 z "},"Ἃ":{"ha":884,"x_min":-4,"x_max":842,"o":"m 107 0 l 42 0 l 406 1010 l 477 1010 l 842 0 l 777 0 l 444 931 l 439 931 l 107 0 m 199 380 l 685 380 l 685 323 l 199 323 l 199 380 m 277 793 l 277 784 l 241 784 l 95 1002 l 95 1013 l 166 1013 l 277 793 m -5 977 l -5 1013 l 57 1013 l 57 981 q 72 881 57 922 q 129 793 87 840 l 96 771 q 18 865 41 818 q -5 977 -5 913 z "},"Ἄ":{"ha":884,"x_min":-77,"x_max":842,"o":"m 107 0 l 42 0 l 406 1010 l 477 1010 l 842 0 l 777 0 l 444 931 l 439 931 l 107 0 m 199 380 l 685 380 l 685 323 l 199 323 l 199 380 m 67 784 l 67 793 l 180 1013 l 249 1013 l 249 1002 l 104 784 l 67 784 m 56 1013 l 56 977 q 46 900 56 935 q 14 834 36 865 q -45 771 -8 802 l -77 793 q -21 881 -36 840 q -6 981 -6 922 l -6 1013 l 56 1013 z "},"Ἅ":{"ha":884,"x_min":-47,"x_max":842,"o":"m 107 0 l 42 0 l 406 1010 l 477 1010 l 842 0 l 777 0 l 444 931 l 439 931 l 107 0 m 199 380 l 685 380 l 685 323 l 199 323 l 199 380 m 109 784 l 109 793 l 220 1013 l 291 1013 l 291 1002 l 145 784 l 109 784 m 54 771 q -24 865 -1 818 q -47 977 -47 913 l -47 1013 l 15 1013 l 15 981 q 30 881 15 922 q 87 793 46 840 l 54 771 z "},"Ἆ":{"ha":884,"x_min":-4,"x_max":842,"o":"m 107 0 l 42 0 l 406 1010 l 477 1010 l 842 0 l 777 0 l 444 931 l 439 931 l 107 0 m 199 380 l 685 380 l 685 323 l 199 323 l 199 380 m 308 1146 l 347 1137 q 317 1058 344 1090 q 246 1026 290 1027 q 201 1037 220 1026 q 167 1062 183 1048 q 136 1086 152 1076 q 98 1097 119 1097 q 54 1077 71 1097 q 35 1026 38 1056 l -4 1034 q 27 1113 0 1081 q 99 1146 54 1146 q 143 1135 125 1146 q 177 1110 162 1124 q 209 1085 192 1096 q 245 1075 225 1075 q 289 1095 272 1075 q 308 1146 305 1115 m 199 998 l 199 965 q 185 882 199 925 q 132 797 171 839 l 97 815 q 135 895 127 859 q 144 967 144 930 l 144 998 l 199 998 z "},"Ἇ":{"ha":884,"x_min":-2,"x_max":842,"o":"m 107 0 l 42 0 l 406 1010 l 477 1010 l 842 0 l 777 0 l 444 931 l 439 931 l 107 0 m 199 380 l 685 380 l 685 323 l 199 323 l 199 380 m 147 965 l 147 998 l 203 998 l 203 967 q 214 890 203 925 q 250 815 226 854 l 215 797 q 164 877 180 835 q 147 965 147 920 m 311 1146 l 349 1137 q 319 1058 346 1090 q 248 1026 292 1027 q 204 1037 222 1026 q 169 1062 185 1048 q 138 1086 154 1076 q 100 1097 121 1097 q 56 1077 73 1097 q 37 1026 40 1056 l -2 1034 q 29 1113 1 1081 q 102 1146 56 1146 q 145 1135 127 1146 q 179 1110 164 1124 q 211 1085 195 1096 q 248 1075 227 1075 q 291 1095 275 1075 q 311 1146 307 1115 z "},"Ᾰ":{"ha":884,"x_min":42,"x_max":842,"o":"m 107 0 l 42 0 l 406 1010 l 477 1010 l 842 0 l 777 0 l 444 931 l 439 931 l 107 0 m 199 380 l 685 380 l 685 323 l 199 323 l 199 380 m 527 1263 l 584 1263 q 546 1164 584 1201 q 442 1127 508 1127 q 338 1164 376 1127 q 300 1263 300 1201 l 358 1263 q 378 1200 358 1224 q 442 1176 399 1176 q 506 1200 485 1176 q 527 1263 527 1224 z "},"Ᾱ":{"ha":884,"x_min":42,"x_max":842,"o":"m 107 0 l 42 0 l 406 1010 l 477 1010 l 842 0 l 777 0 l 444 931 l 439 931 l 107 0 m 199 380 l 685 380 l 685 323 l 199 323 l 199 380 m 624 1218 l 624 1164 l 260 1164 l 260 1218 l 624 1218 z "},"Ὰ":{"ha":884,"x_min":42,"x_max":842,"o":"m 107 0 l 42 0 l 406 1010 l 477 1010 l 842 0 l 777 0 l 444 931 l 439 931 l 107 0 m 199 380 l 685 380 l 685 323 l 199 323 l 199 380 m 201 779 l 56 998 l 56 1009 l 125 1009 l 238 789 l 238 779 l 201 779 z "},"Ⱥ":{"ha":884,"x_min":42,"x_max":842,"o":"m 706 1138 l 256 -128 l 196 -128 l 646 1138 l 706 1138 m 107 0 l 42 0 l 406 1010 l 477 1010 l 842 0 l 777 0 l 444 931 l 439 931 l 107 0 m 199 380 l 685 380 l 685 323 l 199 323 l 199 380 z "},"Ά":{"ha":884,"x_min":42,"x_max":842,"o":"m 107 0 l 42 0 l 406 1010 l 477 1010 l 842 0 l 777 0 l 444 931 l 439 931 l 107 0 m 199 380 l 685 380 l 685 323 l 199 323 l 199 380 m 183 852 l 183 858 l 291 1083 l 364 1083 l 364 1077 l 222 852 l 183 852 z "},"А":{"ha":884,"x_min":42,"x_max":842,"o":"m 107 0 l 42 0 l 406 1010 l 477 1010 l 842 0 l 777 0 l 444 931 l 439 931 l 107 0 m 199 380 l 685 380 l 685 323 l 199 323 l 199 380 z "},"Ӑ":{"ha":884,"x_min":42,"x_max":842,"o":"m 107 0 l 42 0 l 406 1010 l 477 1010 l 842 0 l 777 0 l 444 931 l 439 931 l 107 0 m 199 380 l 685 380 l 685 323 l 199 323 l 199 380 m 527 1263 l 584 1263 q 546 1164 584 1201 q 442 1127 508 1127 q 338 1164 376 1127 q 300 1263 300 1201 l 358 1263 q 378 1200 358 1224 q 442 1176 399 1176 q 506 1200 485 1176 q 527 1263 527 1224 z "},"Ӓ":{"ha":884,"x_min":42,"x_max":842,"o":"m 107 0 l 42 0 l 406 1010 l 477 1010 l 842 0 l 777 0 l 444 931 l 439 931 l 107 0 m 199 380 l 685 380 l 685 323 l 199 323 l 199 380 m 331 1144 q 298 1159 313 1144 q 284 1192 284 1173 q 298 1225 284 1211 q 331 1239 313 1239 q 365 1225 351 1239 q 379 1192 379 1211 q 365 1159 379 1173 q 331 1144 351 1144 m 552 1144 q 519 1159 534 1144 q 505 1192 505 1173 q 519 1225 505 1211 q 552 1239 534 1239 q 586 1225 572 1239 q 600 1192 600 1211 q 586 1159 600 1173 q 552 1144 572 1144 z "},"ᾈ":{"ha":884,"x_min":42,"x_max":842,"o":"m 107 0 l 42 0 l 406 1010 l 477 1010 l 842 0 l 777 0 l 444 931 l 439 931 l 107 0 m 199 380 l 685 380 l 685 323 l 199 323 l 199 380 m 496 -309 q 438 -285 461 -309 q 414 -216 414 -260 l 414 -59 l 470 -59 l 470 -215 q 479 -251 470 -238 q 503 -263 489 -263 q 517 -262 509 -263 q 528 -260 524 -261 l 534 -304 q 518 -308 528 -306 q 496 -309 507 -309 m 279 1010 l 279 975 q 269 897 279 932 q 237 831 259 862 q 178 769 215 799 l 145 790 q 189 850 173 822 q 211 909 204 878 q 217 979 217 940 l 217 1010 l 279 1010 z "},"ᾉ":{"ha":884,"x_min":42,"x_max":842,"o":"m 107 0 l 42 0 l 406 1010 l 477 1010 l 842 0 l 777 0 l 444 931 l 439 931 l 107 0 m 199 380 l 685 380 l 685 323 l 199 323 l 199 380 m 496 -309 q 438 -285 461 -309 q 414 -216 414 -260 l 414 -59 l 470 -59 l 470 -215 q 479 -251 470 -238 q 503 -263 489 -263 q 517 -262 509 -263 q 528 -260 524 -261 l 534 -304 q 518 -308 528 -306 q 496 -309 507 -309 m 161 977 l 161 1013 l 222 1013 l 222 981 q 229 912 222 942 q 251 853 235 881 q 294 793 266 825 l 261 771 q 184 865 207 818 q 161 977 161 913 z "},"ᾊ":{"ha":884,"x_min":-66,"x_max":842,"o":"m 107 0 l 42 0 l 406 1010 l 477 1010 l 842 0 l 777 0 l 444 931 l 439 931 l 107 0 m 199 380 l 685 380 l 685 323 l 199 323 l 199 380 m 496 -309 q 438 -285 461 -309 q 414 -216 414 -260 l 414 -59 l 470 -59 l 470 -215 q 479 -251 470 -238 q 503 -263 489 -263 q 517 -262 509 -263 q 528 -260 524 -261 l 534 -304 q 518 -308 528 -306 q 496 -309 507 -309 m 281 792 l 281 783 l 245 783 l 99 1001 l 99 1012 l 169 1012 l 281 792 m 68 1012 l 68 976 q 58 898 68 933 q 26 832 48 863 q -33 770 3 801 l -66 791 q -9 880 -25 839 q 6 980 6 921 l 6 1012 l 68 1012 z "},"ᾋ":{"ha":884,"x_min":-4,"x_max":842,"o":"m 107 0 l 42 0 l 406 1010 l 477 1010 l 842 0 l 777 0 l 444 931 l 439 931 l 107 0 m 199 380 l 685 380 l 685 323 l 199 323 l 199 380 m 496 -309 q 438 -285 461 -309 q 414 -216 414 -260 l 414 -59 l 470 -59 l 470 -215 q 479 -251 470 -238 q 503 -263 489 -263 q 517 -262 509 -263 q 528 -260 524 -261 l 534 -304 q 518 -308 528 -306 q 496 -309 507 -309 m 277 793 l 277 784 l 241 784 l 95 1002 l 95 1013 l 166 1013 l 277 793 m -5 977 l -5 1013 l 57 1013 l 57 981 q 72 881 57 922 q 129 793 87 840 l 96 771 q 18 865 41 818 q -5 977 -5 913 z "},"ᾌ":{"ha":884,"x_min":-77,"x_max":842,"o":"m 107 0 l 42 0 l 406 1010 l 477 1010 l 842 0 l 777 0 l 444 931 l 439 931 l 107 0 m 199 380 l 685 380 l 685 323 l 199 323 l 199 380 m 67 784 l 67 793 l 180 1013 l 249 1013 l 249 1002 l 104 784 l 67 784 m 56 1013 l 56 977 q 46 900 56 935 q 14 834 36 865 q -45 771 -8 802 l -77 793 q -21 881 -36 840 q -6 981 -6 922 l -6 1013 l 56 1013 m 496 -309 q 438 -285 461 -309 q 414 -216 414 -260 l 414 -59 l 470 -59 l 470 -215 q 479 -251 470 -238 q 503 -263 489 -263 q 517 -262 509 -263 q 528 -260 524 -261 l 534 -304 q 518 -308 528 -306 q 496 -309 507 -309 z "},"ᾍ":{"ha":884,"x_min":-47,"x_max":842,"o":"m 107 0 l 42 0 l 406 1010 l 477 1010 l 842 0 l 777 0 l 444 931 l 439 931 l 107 0 m 199 380 l 685 380 l 685 323 l 199 323 l 199 380 m 496 -309 q 438 -285 461 -309 q 414 -216 414 -260 l 414 -59 l 470 -59 l 470 -215 q 479 -251 470 -238 q 503 -263 489 -263 q 517 -262 509 -263 q 528 -260 524 -261 l 534 -304 q 518 -308 528 -306 q 496 -309 507 -309 m 109 784 l 109 793 l 220 1013 l 291 1013 l 291 1002 l 145 784 l 109 784 m 54 771 q -24 865 -1 818 q -47 977 -47 913 l -47 1013 l 15 1013 l 15 981 q 30 881 15 922 q 87 793 46 840 l 54 771 z "},"ᾎ":{"ha":884,"x_min":-4,"x_max":842,"o":"m 107 0 l 42 0 l 406 1010 l 477 1010 l 842 0 l 777 0 l 444 931 l 439 931 l 107 0 m 199 380 l 685 380 l 685 323 l 199 323 l 199 380 m 308 1146 l 347 1137 q 317 1058 344 1090 q 246 1026 290 1027 q 201 1037 220 1026 q 167 1062 183 1048 q 136 1086 152 1076 q 98 1097 119 1097 q 54 1077 71 1097 q 35 1026 38 1056 l -4 1034 q 27 1113 0 1081 q 99 1146 54 1146 q 143 1135 125 1146 q 177 1110 162 1124 q 209 1085 192 1096 q 245 1075 225 1075 q 289 1095 272 1075 q 308 1146 305 1115 m 199 998 l 199 965 q 185 882 199 925 q 132 797 171 839 l 97 815 q 135 895 127 859 q 144 967 144 930 l 144 998 l 199 998 m 496 -309 q 438 -285 461 -309 q 414 -216 414 -260 l 414 -59 l 470 -59 l 470 -215 q 479 -251 470 -238 q 503 -263 489 -263 q 517 -262 509 -263 q 528 -260 524 -261 l 534 -304 q 518 -308 528 -306 q 496 -309 507 -309 z "},"ᾏ":{"ha":884,"x_min":-2,"x_max":842,"o":"m 107 0 l 42 0 l 406 1010 l 477 1010 l 842 0 l 777 0 l 444 931 l 439 931 l 107 0 m 199 380 l 685 380 l 685 323 l 199 323 l 199 380 m 496 -309 q 438 -285 461 -309 q 414 -216 414 -260 l 414 -59 l 470 -59 l 470 -215 q 479 -251 470 -238 q 503 -263 489 -263 q 517 -262 509 -263 q 528 -260 524 -261 l 534 -304 q 518 -308 528 -306 q 496 -309 507 -309 m 147 965 l 147 998 l 203 998 l 203 967 q 214 890 203 925 q 250 815 226 854 l 215 797 q 164 877 180 835 q 147 965 147 920 m 311 1146 l 349 1137 q 319 1058 346 1090 q 248 1026 292 1027 q 204 1037 222 1026 q 169 1062 185 1048 q 138 1086 154 1076 q 100 1097 121 1097 q 56 1077 73 1097 q 37 1026 40 1056 l -2 1034 q 29 1113 1 1081 q 102 1146 56 1146 q 145 1135 127 1146 q 179 1110 164 1124 q 211 1085 195 1096 q 248 1075 227 1075 q 291 1095 275 1075 q 311 1146 307 1115 z "},"ᾼ":{"ha":884,"x_min":42,"x_max":842,"o":"m 107 0 l 42 0 l 406 1010 l 477 1010 l 842 0 l 777 0 l 444 931 l 439 931 l 107 0 m 199 380 l 685 380 l 685 323 l 199 323 l 199 380 m 496 -309 q 438 -285 461 -309 q 414 -216 414 -260 l 414 -59 l 470 -59 l 470 -215 q 479 -251 470 -238 q 503 -263 489 -263 q 517 -262 509 -263 q 528 -260 524 -261 l 534 -304 q 518 -308 528 -306 q 496 -309 507 -309 z "},"Λ":{"ha":884,"x_min":42,"x_max":842,"o":"m 107 0 l 42 0 l 406 1010 l 477 1010 l 842 0 l 777 0 l 444 931 l 439 931 l 107 0 z "},"Æ":{"ha":1346,"x_min":42,"x_max":1249,"o":"m 42 0 l 548 1010 l 1237 1010 l 1237 953 l 736 953 l 736 534 l 1207 534 l 1207 477 l 736 477 l 736 57 l 1249 57 l 1249 0 l 675 0 l 675 953 l 584 953 l 110 0 l 42 0 m 245 323 l 245 380 l 707 380 l 707 323 l 245 323 z "},"Ǣ":{"ha":1346,"x_min":42,"x_max":1249,"o":"m 42 0 l 548 1010 l 1237 1010 l 1237 953 l 736 953 l 736 534 l 1207 534 l 1207 477 l 736 477 l 736 57 l 1249 57 l 1249 0 l 675 0 l 675 953 l 584 953 l 110 0 l 42 0 m 245 323 l 245 380 l 707 380 l 707 323 l 245 323 m 1050 1218 l 1050 1164 l 685 1164 l 685 1218 l 1050 1218 z "},"Ǽ":{"ha":1346,"x_min":42,"x_max":1249,"o":"m 42 0 l 548 1010 l 1237 1010 l 1237 953 l 736 953 l 736 534 l 1207 534 l 1207 477 l 736 477 l 736 57 l 1249 57 l 1249 0 l 675 0 l 675 953 l 584 953 l 110 0 l 42 0 m 245 323 l 245 380 l 707 380 l 707 323 l 245 323 m 838 1118 l 971 1336 l 1042 1336 l 894 1118 l 838 1118 z "},"Ӕ":{"ha":1346,"x_min":42,"x_max":1249,"o":"m 42 0 l 548 1010 l 1237 1010 l 1237 953 l 736 953 l 736 534 l 1207 534 l 1207 477 l 736 477 l 736 57 l 1249 57 l 1249 0 l 675 0 l 675 953 l 584 953 l 110 0 l 42 0 m 245 323 l 245 380 l 707 380 l 707 323 l 245 323 z "},"B":{"ha":894,"x_min":146,"x_max":797,"o":"m 146 0 l 146 1010 l 474 1010 q 629 978 566 1010 q 725 886 692 945 q 758 750 758 828 q 738 641 758 689 q 683 563 718 594 q 600 520 648 532 l 600 514 q 697 478 653 510 q 770 391 742 446 q 797 262 797 335 q 764 126 797 184 q 664 33 730 67 q 501 0 598 0 l 146 0 m 208 57 l 501 57 q 676 114 615 57 q 737 262 737 172 q 708 376 737 326 q 625 455 678 426 q 503 485 572 485 l 208 485 l 208 57 m 208 541 l 495 541 q 605 569 560 541 q 674 645 650 597 q 698 750 698 692 q 640 898 698 843 q 474 953 581 953 l 208 953 l 208 541 z "},"Ḃ":{"ha":894,"x_min":146,"x_max":797,"o":"m 146 0 l 146 1010 l 474 1010 q 629 978 566 1010 q 725 886 692 945 q 758 750 758 828 q 738 641 758 689 q 683 563 718 594 q 600 520 648 532 l 600 514 q 697 478 653 510 q 770 391 742 446 q 797 262 797 335 q 764 126 797 184 q 664 33 730 67 q 501 0 598 0 l 146 0 m 208 57 l 501 57 q 676 114 615 57 q 737 262 737 172 q 708 376 737 326 q 625 455 678 426 q 503 485 572 485 l 208 485 l 208 57 m 208 541 l 495 541 q 605 569 560 541 q 674 645 650 597 q 698 750 698 692 q 640 898 698 843 q 474 953 581 953 l 208 953 l 208 541 m 424 1144 q 390 1158 404 1144 q 375 1192 375 1172 q 390 1225 375 1211 q 424 1239 404 1239 q 458 1225 444 1239 q 472 1192 472 1211 q 458 1158 472 1172 q 424 1144 444 1144 z "},"Ḅ":{"ha":894,"x_min":146,"x_max":797,"o":"m 146 0 l 146 1010 l 474 1010 q 629 978 566 1010 q 725 886 692 945 q 758 750 758 828 q 738 641 758 689 q 683 563 718 594 q 600 520 648 532 l 600 514 q 697 478 653 510 q 770 391 742 446 q 797 262 797 335 q 764 126 797 184 q 664 33 730 67 q 501 0 598 0 l 146 0 m 208 57 l 501 57 q 676 114 615 57 q 737 262 737 172 q 708 376 737 326 q 625 455 678 426 q 503 485 572 485 l 208 485 l 208 57 m 208 541 l 495 541 q 605 569 560 541 q 674 645 650 597 q 698 750 698 692 q 640 898 698 843 q 474 953 581 953 l 208 953 l 208 541 m 434 -233 q 400 -219 414 -233 q 385 -186 385 -206 q 400 -153 385 -167 q 434 -139 414 -139 q 468 -153 454 -139 q 482 -186 482 -167 q 468 -219 482 -206 q 434 -233 454 -233 z "},"Ḇ":{"ha":894,"x_min":146,"x_max":797,"o":"m 146 0 l 146 1010 l 474 1010 q 629 978 566 1010 q 725 886 692 945 q 758 750 758 828 q 738 641 758 689 q 683 563 718 594 q 600 520 648 532 l 600 514 q 697 478 653 510 q 770 391 742 446 q 797 262 797 335 q 764 126 797 184 q 664 33 730 67 q 501 0 598 0 l 146 0 m 208 57 l 501 57 q 676 114 615 57 q 737 262 737 172 q 708 376 737 326 q 625 455 678 426 q 503 485 572 485 l 208 485 l 208 57 m 208 541 l 495 541 q 605 569 560 541 q 674 645 650 597 q 698 750 698 692 q 640 898 698 843 q 474 953 581 953 l 208 953 l 208 541 m 616 -136 l 616 -190 l 252 -190 l 252 -136 l 616 -136 z "},"Ƀ":{"ha":964,"x_min":53,"x_max":868,"o":"m 217 0 l 217 1010 l 545 1010 q 699 978 636 1010 q 795 886 763 945 q 828 750 828 828 q 808 641 828 689 q 753 563 789 594 q 671 520 718 532 l 671 514 q 768 478 723 510 q 840 391 813 446 q 868 262 868 335 q 834 126 868 184 q 735 33 801 67 q 571 0 669 0 l 217 0 m 278 57 l 571 57 q 746 114 685 57 q 808 262 808 172 q 778 376 808 326 q 695 455 748 426 q 573 485 643 485 l 278 485 l 278 57 m 278 541 l 566 541 q 675 569 630 541 q 745 645 721 597 q 768 750 768 692 q 710 898 768 843 q 545 953 652 953 l 278 953 l 278 541 m 53 266 l 53 318 l 447 318 l 447 266 l 53 266 z "},"Ɓ":{"ha":1055,"x_min":79,"x_max":958,"o":"m 327 953 l 237 953 q 178 939 199 953 q 147 896 156 924 q 138 827 138 868 l 138 802 l 79 802 l 79 848 q 97 934 79 898 q 150 990 115 970 q 235 1010 185 1010 l 327 1010 l 327 953 m 307 0 l 307 1010 l 635 1010 q 790 978 727 1010 q 886 886 853 945 q 919 750 919 828 q 899 641 919 689 q 844 563 879 594 q 762 520 808 532 l 762 514 q 858 478 813 510 q 931 391 903 446 q 958 262 958 335 q 925 126 958 184 q 825 33 891 67 q 661 0 759 0 l 307 0 m 369 57 l 661 57 q 837 114 775 57 q 898 262 898 172 q 869 376 898 326 q 786 455 839 426 q 663 485 733 485 l 369 485 l 369 57 m 369 541 l 656 541 q 766 569 721 541 q 835 645 811 597 q 859 750 859 692 q 800 898 859 843 q 635 953 742 953 l 369 953 l 369 541 z "},"В":{"ha":894,"x_min":146,"x_max":797,"o":"m 146 0 l 146 1010 l 474 1010 q 629 978 566 1010 q 725 886 692 945 q 758 750 758 828 q 738 641 758 689 q 683 563 718 594 q 600 520 648 532 l 600 514 q 697 478 653 510 q 770 391 742 446 q 797 262 797 335 q 764 126 797 184 q 664 33 730 67 q 501 0 598 0 l 146 0 m 208 57 l 501 57 q 676 114 615 57 q 737 262 737 172 q 708 376 737 326 q 625 455 678 426 q 503 485 572 485 l 208 485 l 208 57 m 208 541 l 495 541 q 605 569 560 541 q 674 645 650 597 q 698 750 698 692 q 640 898 698 843 q 474 953 581 953 l 208 953 l 208 541 z "},"Β":{"ha":894,"x_min":146,"x_max":797,"o":"m 146 0 l 146 1010 l 474 1010 q 629 978 566 1010 q 725 886 692 945 q 758 750 758 828 q 738 641 758 689 q 683 563 718 594 q 600 520 648 532 l 600 514 q 697 478 653 510 q 770 391 742 446 q 797 262 797 335 q 764 126 797 184 q 664 33 730 67 q 501 0 598 0 l 146 0 m 208 57 l 501 57 q 676 114 615 57 q 737 262 737 172 q 708 376 737 326 q 625 455 678 426 q 503 485 572 485 l 208 485 l 208 57 m 208 541 l 495 541 q 605 569 560 541 q 674 645 650 597 q 698 750 698 692 q 640 898 698 843 q 474 953 581 953 l 208 953 l 208 541 z "},"C":{"ha":1006,"x_min":95,"x_max":915,"o":"m 915 694 l 852 694 q 815 794 842 746 q 745 881 788 842 q 647 942 703 919 q 522 965 590 965 q 339 912 423 965 q 205 756 255 859 q 155 505 155 654 q 205 253 155 356 q 339 98 255 150 q 522 45 423 45 q 647 68 590 45 q 745 129 703 90 q 815 216 788 168 q 852 316 842 264 l 915 316 q 874 196 905 254 q 793 90 843 137 q 675 14 743 42 q 522 -14 607 -14 q 300 51 396 -14 q 149 232 204 115 q 95 505 95 349 q 149 778 95 661 q 300 960 204 895 q 522 1024 396 1024 q 675 996 607 1024 q 793 921 743 968 q 874 815 843 874 q 915 694 905 757 z "},"Ƈ":{"ha":1010,"x_min":95,"x_max":1038,"o":"m 915 694 l 856 694 l 856 848 q 873 940 856 904 q 922 995 890 977 q 1000 1014 954 1014 q 1021 1013 1011 1014 q 1038 1010 1031 1012 l 1038 956 q 1025 958 1033 957 q 1010 959 1017 959 q 957 948 978 959 q 926 913 937 938 q 915 848 915 889 l 915 694 m 915 694 l 852 694 q 815 794 842 746 q 745 881 788 842 q 647 942 703 919 q 522 965 590 965 q 339 912 423 965 q 205 756 255 859 q 155 505 155 654 q 205 253 155 356 q 339 98 255 150 q 522 45 423 45 q 647 68 590 45 q 745 129 703 90 q 815 216 788 168 q 852 316 842 264 l 915 316 q 874 196 905 254 q 793 90 843 137 q 675 14 743 42 q 522 -14 607 -14 q 300 51 396 -14 q 149 232 204 115 q 95 505 95 349 q 149 778 95 661 q 300 960 204 895 q 522 1024 396 1024 q 675 996 607 1024 q 793 921 743 968 q 874 815 843 874 q 915 694 905 757 z "},"Ç":{"ha":1006,"x_min":95,"x_max":915,"o":"m 915 694 l 852 694 q 815 794 842 746 q 745 881 788 842 q 647 942 703 919 q 522 965 590 965 q 339 912 423 965 q 205 756 255 859 q 155 505 155 654 q 205 253 155 356 q 339 98 255 150 q 522 45 423 45 q 647 68 590 45 q 745 129 703 90 q 815 216 788 168 q 852 316 842 264 l 915 316 q 874 196 905 254 q 793 90 843 137 q 675 14 743 42 q 522 -14 607 -14 q 300 51 396 -14 q 149 232 204 115 q 95 505 95 349 q 149 778 95 661 q 300 960 204 895 q 522 1024 396 1024 q 675 996 607 1024 q 793 921 743 968 q 874 815 843 874 q 915 694 905 757 m 495 1 l 548 1 l 541 -38 q 615 -74 587 -45 q 643 -153 643 -103 q 603 -239 643 -209 q 485 -271 563 -269 l 483 -224 q 561 -206 536 -223 q 587 -154 587 -190 q 560 -96 587 -115 q 479 -77 534 -77 l 495 1 z "},"Ć":{"ha":1006,"x_min":95,"x_max":915,"o":"m 915 694 l 852 694 q 815 794 842 746 q 745 881 788 842 q 647 942 703 919 q 522 965 590 965 q 339 912 423 965 q 205 756 255 859 q 155 505 155 654 q 205 253 155 356 q 339 98 255 150 q 522 45 423 45 q 647 68 590 45 q 745 129 703 90 q 815 216 788 168 q 852 316 842 264 l 915 316 q 874 196 905 254 q 793 90 843 137 q 675 14 743 42 q 522 -14 607 -14 q 300 51 396 -14 q 149 232 204 115 q 95 505 95 349 q 149 778 95 661 q 300 960 204 895 q 522 1024 396 1024 q 675 996 607 1024 q 793 921 743 968 q 874 815 843 874 q 915 694 905 757 m 493 1118 l 625 1336 l 697 1336 l 548 1118 l 493 1118 z "},"Ĉ":{"ha":1006,"x_min":95,"x_max":915,"o":"m 915 694 l 852 694 q 815 794 842 746 q 745 881 788 842 q 647 942 703 919 q 522 965 590 965 q 339 912 423 965 q 205 756 255 859 q 155 505 155 654 q 205 253 155 356 q 339 98 255 150 q 522 45 423 45 q 647 68 590 45 q 745 129 703 90 q 815 216 788 168 q 852 316 842 264 l 915 316 q 874 196 905 254 q 793 90 843 137 q 675 14 743 42 q 522 -14 607 -14 q 300 51 396 -14 q 149 232 204 115 q 95 505 95 349 q 149 778 95 661 q 300 960 204 895 q 522 1024 396 1024 q 675 996 607 1024 q 793 921 743 968 q 874 815 843 874 q 915 694 905 757 m 655 1093 l 522 1240 l 390 1093 l 327 1093 l 327 1098 l 502 1290 l 543 1290 l 717 1098 l 717 1093 l 655 1093 z "},"Ċ":{"ha":1006,"x_min":95,"x_max":915,"o":"m 915 694 l 852 694 q 815 794 842 746 q 745 881 788 842 q 647 942 703 919 q 522 965 590 965 q 339 912 423 965 q 205 756 255 859 q 155 505 155 654 q 205 253 155 356 q 339 98 255 150 q 522 45 423 45 q 647 68 590 45 q 745 129 703 90 q 815 216 788 168 q 852 316 842 264 l 915 316 q 874 196 905 254 q 793 90 843 137 q 675 14 743 42 q 522 -14 607 -14 q 300 51 396 -14 q 149 232 204 115 q 95 505 95 349 q 149 778 95 661 q 300 960 204 895 q 522 1024 396 1024 q 675 996 607 1024 q 793 921 743 968 q 874 815 843 874 q 915 694 905 757 m 522 1144 q 488 1158 502 1144 q 473 1192 473 1172 q 488 1225 473 1211 q 522 1239 502 1239 q 556 1225 542 1239 q 571 1192 571 1211 q 556 1158 571 1172 q 522 1144 542 1144 z "},"Č":{"ha":1006,"x_min":95,"x_max":915,"o":"m 915 694 l 852 694 q 815 794 842 746 q 745 881 788 842 q 647 942 703 919 q 522 965 590 965 q 339 912 423 965 q 205 756 255 859 q 155 505 155 654 q 205 253 155 356 q 339 98 255 150 q 522 45 423 45 q 647 68 590 45 q 745 129 703 90 q 815 216 788 168 q 852 316 842 264 l 915 316 q 874 196 905 254 q 793 90 843 137 q 675 14 743 42 q 522 -14 607 -14 q 300 51 396 -14 q 149 232 204 115 q 95 505 95 349 q 149 778 95 661 q 300 960 204 895 q 522 1024 396 1024 q 675 996 607 1024 q 793 921 743 968 q 874 815 843 874 q 915 694 905 757 m 390 1307 l 522 1160 l 655 1307 l 717 1307 l 717 1302 l 543 1110 l 502 1110 l 327 1302 l 327 1307 l 390 1307 z "},"Ḉ":{"ha":1006,"x_min":95,"x_max":915,"o":"m 915 694 l 852 694 q 815 794 842 746 q 745 881 788 842 q 647 942 703 919 q 522 965 590 965 q 339 912 423 965 q 205 756 255 859 q 155 505 155 654 q 205 253 155 356 q 339 98 255 150 q 522 45 423 45 q 647 68 590 45 q 745 129 703 90 q 815 216 788 168 q 852 316 842 264 l 915 316 q 874 196 905 254 q 793 90 843 137 q 675 14 743 42 q 522 -14 607 -14 q 300 51 396 -14 q 149 232 204 115 q 95 505 95 349 q 149 778 95 661 q 300 960 204 895 q 522 1024 396 1024 q 675 996 607 1024 q 793 921 743 968 q 874 815 843 874 q 915 694 905 757 m 495 1 l 548 1 l 541 -38 q 615 -74 587 -45 q 643 -153 643 -103 q 603 -239 643 -209 q 485 -271 563 -269 l 483 -224 q 561 -206 536 -223 q 587 -154 587 -190 q 560 -96 587 -115 q 479 -77 534 -77 l 495 1 m 493 1118 l 625 1336 l 697 1336 l 548 1118 l 493 1118 z "},"Ȼ":{"ha":1006,"x_min":95,"x_max":915,"o":"m 242 -128 l 720 1138 l 779 1138 l 302 -128 l 242 -128 m 915 694 l 852 694 q 815 794 842 746 q 745 881 788 842 q 647 942 703 919 q 522 965 590 965 q 339 912 423 965 q 205 756 255 859 q 155 505 155 654 q 205 253 155 356 q 339 98 255 150 q 522 45 423 45 q 647 68 590 45 q 745 129 703 90 q 815 216 788 168 q 852 316 842 264 l 915 316 q 874 196 905 254 q 793 90 843 137 q 675 14 743 42 q 522 -14 607 -14 q 300 51 396 -14 q 149 232 204 115 q 95 505 95 349 q 149 778 95 661 q 300 960 204 895 q 522 1024 396 1024 q 675 996 607 1024 q 793 921 743 968 q 874 815 843 874 q 915 694 905 757 z "},"Ɔ":{"ha":1006,"x_min":91,"x_max":911,"o":"m 91 316 l 154 316 q 191 217 164 265 q 261 129 218 168 q 360 68 303 91 q 484 45 416 45 q 667 98 583 45 q 801 254 751 151 q 851 505 851 357 q 801 757 851 654 q 667 912 751 860 q 484 965 583 965 q 360 942 416 965 q 261 881 303 920 q 191 794 218 842 q 154 694 164 746 l 91 694 q 132 815 102 756 q 213 921 163 873 q 331 996 263 968 q 484 1024 399 1024 q 706 960 610 1024 q 857 778 802 895 q 911 505 911 661 q 857 232 911 349 q 706 51 802 115 q 484 -14 610 -14 q 331 14 399 -14 q 213 89 263 42 q 132 195 163 136 q 91 316 102 254 z "},"Ϲ":{"ha":1006,"x_min":95,"x_max":915,"o":"m 915 694 l 852 694 q 815 794 842 746 q 745 881 788 842 q 647 942 703 919 q 522 965 590 965 q 339 912 423 965 q 205 756 255 859 q 155 505 155 654 q 205 253 155 356 q 339 98 255 150 q 522 45 423 45 q 647 68 590 45 q 745 129 703 90 q 815 216 788 168 q 852 316 842 264 l 915 316 q 874 196 905 254 q 793 90 843 137 q 675 14 743 42 q 522 -14 607 -14 q 300 51 396 -14 q 149 232 204 115 q 95 505 95 349 q 149 778 95 661 q 300 960 204 895 q 522 1024 396 1024 q 675 996 607 1024 q 793 921 743 968 q 874 815 843 874 q 915 694 905 757 z "},"D":{"ha":994,"x_min":146,"x_max":900,"o":"m 426 0 l 146 0 l 146 1010 l 448 1010 q 691 950 590 1010 q 846 778 792 890 q 900 509 900 665 q 843 235 899 348 q 682 60 788 121 q 426 0 577 0 m 208 57 l 424 57 q 652 111 559 57 q 792 266 744 165 q 839 509 839 367 q 793 747 839 648 q 660 900 747 846 q 445 953 572 953 l 208 953 l 208 57 z "},"Ɗ":{"ha":1166,"x_min":79,"x_max":1072,"o":"m 79 802 l 79 848 q 97 934 79 898 q 150 990 115 970 q 235 1010 185 1010 l 334 1010 l 334 953 l 237 953 q 178 939 199 953 q 147 896 156 924 q 138 827 138 868 l 138 802 l 79 802 m 598 0 l 318 0 l 318 1010 l 619 1010 q 863 950 762 1010 q 1018 778 964 890 q 1071 509 1072 665 q 1015 235 1071 348 q 854 60 959 121 q 598 0 748 0 m 379 57 l 595 57 q 823 111 730 57 q 963 266 916 165 q 1011 509 1011 367 q 965 747 1011 648 q 831 900 919 846 q 617 953 744 953 l 379 953 l 379 57 z "},"Ď":{"ha":994,"x_min":146,"x_max":900,"o":"m 426 0 l 146 0 l 146 1010 l 448 1010 q 691 950 590 1010 q 846 778 792 890 q 900 509 900 665 q 843 235 899 348 q 682 60 788 121 q 426 0 577 0 m 208 57 l 424 57 q 652 111 559 57 q 792 266 744 165 q 839 509 839 367 q 793 747 839 648 q 660 900 747 846 q 445 953 572 953 l 208 953 l 208 57 m 292 1307 l 425 1160 l 557 1307 l 619 1307 l 619 1302 l 445 1110 l 404 1110 l 230 1302 l 230 1307 l 292 1307 z "},"Ḋ":{"ha":994,"x_min":146,"x_max":900,"o":"m 426 0 l 146 0 l 146 1010 l 448 1010 q 691 950 590 1010 q 846 778 792 890 q 900 509 900 665 q 843 235 899 348 q 682 60 788 121 q 426 0 577 0 m 208 57 l 424 57 q 652 111 559 57 q 792 266 744 165 q 839 509 839 367 q 793 747 839 648 q 660 900 747 846 q 445 953 572 953 l 208 953 l 208 57 m 425 1144 q 391 1158 405 1144 q 376 1192 376 1172 q 391 1225 376 1211 q 425 1239 405 1239 q 459 1225 445 1239 q 473 1192 473 1211 q 459 1158 473 1172 q 425 1144 445 1144 z "},"Ḍ":{"ha":994,"x_min":146,"x_max":900,"o":"m 426 0 l 146 0 l 146 1010 l 448 1010 q 691 950 590 1010 q 846 778 792 890 q 900 509 900 665 q 843 235 899 348 q 682 60 788 121 q 426 0 577 0 m 208 57 l 424 57 q 652 111 559 57 q 792 266 744 165 q 839 509 839 367 q 793 747 839 648 q 660 900 747 846 q 445 953 572 953 l 208 953 l 208 57 m 408 -233 q 373 -219 388 -233 q 359 -186 359 -206 q 373 -153 359 -167 q 408 -139 388 -139 q 442 -153 428 -139 q 456 -186 456 -167 q 442 -219 456 -206 q 408 -233 428 -233 z "},"Ḏ":{"ha":994,"x_min":146,"x_max":900,"o":"m 426 0 l 146 0 l 146 1010 l 448 1010 q 691 950 590 1010 q 846 778 792 890 q 900 509 900 665 q 843 235 899 348 q 682 60 788 121 q 426 0 577 0 m 208 57 l 424 57 q 652 111 559 57 q 792 266 744 165 q 839 509 839 367 q 793 747 839 648 q 660 900 747 846 q 445 953 572 953 l 208 953 l 208 57 m 590 -136 l 590 -190 l 226 -190 l 226 -136 l 590 -136 z "},"Ḑ":{"ha":994,"x_min":146,"x_max":900,"o":"m 426 0 l 146 0 l 146 1010 l 448 1010 q 691 950 590 1010 q 846 778 792 890 q 900 509 900 665 q 843 235 899 348 q 682 60 788 121 q 426 0 577 0 m 208 57 l 424 57 q 652 111 559 57 q 792 266 744 165 q 839 509 839 367 q 793 747 839 648 q 660 900 747 846 q 445 953 572 953 l 208 953 l 208 57 m 314 -335 l 375 -80 l 438 -80 l 361 -335 l 314 -335 z "},"Ḓ":{"ha":994,"x_min":146,"x_max":900,"o":"m 426 0 l 146 0 l 146 1010 l 448 1010 q 691 950 590 1010 q 846 778 792 890 q 900 509 900 665 q 843 235 899 348 q 682 60 788 121 q 426 0 577 0 m 208 57 l 424 57 q 652 111 559 57 q 792 266 744 165 q 839 509 839 367 q 793 747 839 648 q 660 900 747 846 q 445 953 572 953 l 208 953 l 208 57 m 541 -271 l 408 -124 l 275 -271 l 213 -271 l 213 -266 l 388 -73 l 428 -73 l 603 -266 l 603 -271 l 541 -271 z "},"Ɖ":{"ha":994,"x_min":-20,"x_max":900,"o":"m 426 0 l 180 0 l 180 57 l 424 57 q 652 111 559 57 q 792 266 744 165 q 839 509 839 367 q 793 747 839 648 q 660 900 747 846 q 445 953 572 953 l 178 953 l 178 1010 l 448 1010 q 691 950 590 1010 q 846 778 792 890 q 900 509 900 665 q 843 235 899 348 q 682 60 788 121 q 426 0 577 0 m 208 1010 l 208 0 l 146 0 l 146 1010 l 208 1010 m -20 490 l -20 541 l 374 541 l 374 490 l -20 490 z "},"ǲ":{"ha":1716,"x_min":146,"x_max":1634,"o":"m 426 0 l 146 0 l 146 1010 l 448 1010 q 691 950 590 1010 q 846 778 792 890 q 900 509 900 665 q 843 235 899 348 q 682 60 788 121 q 426 0 577 0 m 208 57 l 424 57 q 652 111 559 57 q 792 266 744 165 q 839 509 839 367 q 793 747 839 648 q 660 900 747 846 q 445 953 572 953 l 208 953 l 208 57 m 1093 0 l 1093 51 l 1539 695 l 1539 700 l 1118 700 l 1118 758 l 1616 758 l 1616 706 l 1174 63 l 1174 57 l 1634 57 l 1634 0 l 1093 0 z "},"ǅ":{"ha":1716,"x_min":146,"x_max":1634,"o":"m 426 0 l 146 0 l 146 1010 l 448 1010 q 691 950 590 1010 q 846 778 792 890 q 900 509 900 665 q 843 235 899 348 q 682 60 788 121 q 426 0 577 0 m 208 57 l 424 57 q 652 111 559 57 q 792 266 744 165 q 839 509 839 367 q 793 747 839 648 q 660 900 747 846 q 445 953 572 953 l 208 953 l 208 57 m 1093 0 l 1093 51 l 1539 695 l 1539 700 l 1118 700 l 1118 758 l 1616 758 l 1616 706 l 1174 63 l 1174 57 l 1634 57 l 1634 0 l 1093 0 m 1222 1055 l 1355 908 l 1488 1055 l 1549 1055 l 1549 1050 l 1375 858 l 1334 858 l 1160 1050 l 1160 1055 l 1222 1055 z "},"E":{"ha":817,"x_min":146,"x_max":720,"o":"m 146 0 l 146 1010 l 708 1010 l 708 953 l 208 953 l 208 534 l 678 534 l 678 477 l 208 477 l 208 57 l 720 57 l 720 0 l 146 0 z "},"È":{"ha":817,"x_min":146,"x_max":720,"o":"m 146 0 l 146 1010 l 708 1010 l 708 953 l 208 953 l 208 534 l 678 534 l 678 477 l 208 477 l 208 57 l 720 57 l 720 0 l 146 0 m 402 1118 l 254 1336 l 326 1336 l 458 1118 l 402 1118 z "},"É":{"ha":817,"x_min":146,"x_max":720,"o":"m 146 0 l 146 1010 l 708 1010 l 708 953 l 208 953 l 208 534 l 678 534 l 678 477 l 208 477 l 208 57 l 720 57 l 720 0 l 146 0 m 400 1118 l 532 1336 l 604 1336 l 455 1118 l 400 1118 z "},"Ê":{"ha":817,"x_min":146,"x_max":720,"o":"m 146 0 l 146 1010 l 708 1010 l 708 953 l 208 953 l 208 534 l 678 534 l 678 477 l 208 477 l 208 57 l 720 57 l 720 0 l 146 0 m 561 1093 l 429 1240 l 296 1093 l 234 1093 l 234 1098 l 408 1290 l 449 1290 l 623 1098 l 623 1093 l 561 1093 z "},"Ë":{"ha":817,"x_min":146,"x_max":720,"o":"m 146 0 l 146 1010 l 708 1010 l 708 953 l 208 953 l 208 534 l 678 534 l 678 477 l 208 477 l 208 57 l 720 57 l 720 0 l 146 0 m 318 1144 q 285 1159 299 1144 q 271 1192 271 1173 q 285 1225 271 1212 q 318 1239 299 1239 q 352 1225 338 1239 q 365 1192 365 1212 q 352 1159 365 1173 q 318 1144 338 1144 m 539 1144 q 506 1159 520 1144 q 492 1192 492 1173 q 506 1225 492 1212 q 539 1239 520 1239 q 573 1225 559 1239 q 586 1192 586 1212 q 573 1159 586 1173 q 539 1144 559 1144 z "},"Ē":{"ha":817,"x_min":146,"x_max":720,"o":"m 146 0 l 146 1010 l 708 1010 l 708 953 l 208 953 l 208 534 l 678 534 l 678 477 l 208 477 l 208 57 l 720 57 l 720 0 l 146 0 m 611 1218 l 611 1164 l 247 1164 l 247 1218 l 611 1218 z "},"Ĕ":{"ha":817,"x_min":146,"x_max":720,"o":"m 146 0 l 146 1010 l 708 1010 l 708 953 l 208 953 l 208 534 l 678 534 l 678 477 l 208 477 l 208 57 l 720 57 l 720 0 l 146 0 m 513 1263 l 571 1263 q 533 1164 571 1201 q 429 1127 495 1127 q 325 1164 363 1127 q 287 1263 287 1201 l 344 1263 q 365 1200 344 1224 q 429 1176 386 1176 q 492 1200 472 1176 q 513 1263 513 1224 z "},"Ė":{"ha":817,"x_min":146,"x_max":720,"o":"m 146 0 l 146 1010 l 708 1010 l 708 953 l 208 953 l 208 534 l 678 534 l 678 477 l 208 477 l 208 57 l 720 57 l 720 0 l 146 0 m 429 1144 q 395 1158 409 1144 q 380 1192 380 1172 q 395 1225 380 1211 q 429 1239 409 1239 q 463 1225 449 1239 q 477 1192 477 1211 q 463 1158 477 1172 q 429 1144 449 1144 z "},"Ę":{"ha":817,"x_min":146,"x_max":769,"o":"m 146 0 l 146 1010 l 708 1010 l 708 953 l 208 953 l 208 534 l 678 534 l 678 477 l 208 477 l 208 57 l 720 57 l 720 0 l 146 0 m 674 -298 q 584 -268 619 -298 q 549 -178 549 -237 q 564 -109 549 -142 q 609 -47 579 -77 q 682 14 638 -16 l 720 0 q 641 -86 672 -45 q 610 -173 610 -127 q 629 -227 610 -209 q 684 -245 649 -245 q 722 -238 705 -245 q 754 -221 738 -232 l 769 -268 q 726 -290 749 -281 q 674 -298 703 -298 z "},"Ě":{"ha":817,"x_min":146,"x_max":720,"o":"m 146 0 l 146 1010 l 708 1010 l 708 953 l 208 953 l 208 534 l 678 534 l 678 477 l 208 477 l 208 57 l 720 57 l 720 0 l 146 0 m 296 1307 l 429 1160 l 561 1307 l 623 1307 l 623 1302 l 449 1110 l 408 1110 l 234 1302 l 234 1307 l 296 1307 z "},"Ȅ":{"ha":817,"x_min":146,"x_max":720,"o":"m 146 0 l 146 1010 l 708 1010 l 708 953 l 208 953 l 208 534 l 678 534 l 678 477 l 208 477 l 208 57 l 720 57 l 720 0 l 146 0 m 337 1118 l 179 1336 l 254 1336 l 392 1118 l 337 1118 m 479 1118 l 355 1336 l 430 1336 l 534 1118 l 479 1118 z "},"Ȇ":{"ha":817,"x_min":146,"x_max":720,"o":"m 146 0 l 146 1010 l 708 1010 l 708 953 l 208 953 l 208 534 l 678 534 l 678 477 l 208 477 l 208 57 l 720 57 l 720 0 l 146 0 m 289 1171 q 327 1270 289 1232 q 431 1307 364 1307 q 534 1270 497 1307 q 572 1171 572 1232 l 515 1171 q 494 1234 515 1210 q 431 1258 473 1258 q 366 1234 387 1258 q 346 1171 346 1210 l 289 1171 z "},"Ȩ":{"ha":817,"x_min":146,"x_max":720,"o":"m 146 0 l 146 1010 l 708 1010 l 708 953 l 208 953 l 208 534 l 678 534 l 678 477 l 208 477 l 208 57 l 720 57 l 720 0 l 146 0 m 384 4 l 437 4 l 430 -36 q 505 -72 476 -43 q 533 -150 533 -101 q 492 -237 533 -207 q 375 -268 452 -267 l 373 -221 q 451 -204 425 -220 q 477 -152 476 -187 q 450 -94 476 -112 q 368 -74 423 -75 l 384 4 z "},"Ḕ":{"ha":817,"x_min":146,"x_max":720,"o":"m 146 0 l 146 1010 l 708 1010 l 708 953 l 208 953 l 208 534 l 678 534 l 678 477 l 208 477 l 208 57 l 720 57 l 720 0 l 146 0 m 401 1265 l 262 1399 l 339 1399 l 466 1265 l 401 1265 m 611 1180 l 611 1126 l 247 1126 l 247 1180 l 611 1180 z "},"Ḗ":{"ha":817,"x_min":146,"x_max":720,"o":"m 146 0 l 146 1010 l 708 1010 l 708 953 l 208 953 l 208 534 l 678 534 l 678 477 l 208 477 l 208 57 l 720 57 l 720 0 l 146 0 m 392 1265 l 519 1399 l 596 1399 l 457 1265 l 392 1265 m 611 1180 l 611 1126 l 247 1126 l 247 1180 l 611 1180 z "},"Ḙ":{"ha":817,"x_min":146,"x_max":720,"o":"m 146 0 l 146 1010 l 708 1010 l 708 953 l 208 953 l 208 534 l 678 534 l 678 477 l 208 477 l 208 57 l 720 57 l 720 0 l 146 0 m 543 -271 l 410 -124 l 277 -271 l 215 -271 l 215 -266 l 390 -73 l 430 -73 l 605 -266 l 605 -271 l 543 -271 z "},"Ḛ":{"ha":817,"x_min":146,"x_max":720,"o":"m 146 0 l 146 1010 l 708 1010 l 708 953 l 208 953 l 208 534 l 678 534 l 678 477 l 208 477 l 208 57 l 720 57 l 720 0 l 146 0 m 242 -209 l 191 -205 q 234 -114 195 -149 q 327 -78 273 -78 q 383 -90 360 -78 q 427 -116 407 -101 q 468 -142 447 -130 q 516 -153 489 -153 q 574 -132 548 -153 q 604 -77 599 -110 l 655 -85 q 608 -174 648 -141 q 518 -208 569 -208 q 463 -196 486 -208 q 422 -170 441 -185 q 381 -144 402 -156 q 329 -133 360 -133 q 270 -155 294 -133 q 242 -209 245 -177 z "},"Ḝ":{"ha":817,"x_min":146,"x_max":720,"o":"m 146 0 l 146 1010 l 708 1010 l 708 953 l 208 953 l 208 534 l 678 534 l 678 477 l 208 477 l 208 57 l 720 57 l 720 0 l 146 0 m 384 4 l 437 4 l 430 -36 q 505 -72 476 -43 q 533 -150 533 -101 q 492 -237 533 -207 q 375 -268 452 -267 l 373 -221 q 451 -204 425 -220 q 477 -152 476 -187 q 450 -94 476 -112 q 368 -74 423 -75 l 384 4 m 513 1263 l 571 1263 q 533 1164 571 1201 q 429 1127 495 1127 q 325 1164 363 1127 q 287 1263 287 1201 l 344 1263 q 365 1200 344 1224 q 429 1176 386 1176 q 492 1200 472 1176 q 513 1263 513 1224 z "},"Ẹ":{"ha":817,"x_min":146,"x_max":720,"o":"m 146 0 l 146 1010 l 708 1010 l 708 953 l 208 953 l 208 534 l 678 534 l 678 477 l 208 477 l 208 57 l 720 57 l 720 0 l 146 0 m 410 -233 q 375 -219 390 -233 q 361 -186 361 -206 q 375 -153 361 -167 q 410 -139 390 -139 q 444 -153 430 -139 q 458 -186 458 -167 q 444 -219 458 -206 q 410 -233 430 -233 z "},"Ẻ":{"ha":817,"x_min":146,"x_max":720,"o":"m 146 0 l 146 1010 l 708 1010 l 708 953 l 208 953 l 208 534 l 678 534 l 678 477 l 208 477 l 208 57 l 720 57 l 720 0 l 146 0 m 456 1109 l 402 1109 l 402 1208 q 480 1226 457 1211 q 502 1275 502 1241 q 472 1332 501 1314 q 387 1350 442 1350 l 391 1396 q 517 1363 476 1396 q 559 1276 558 1330 q 529 1202 559 1229 q 456 1170 500 1175 l 456 1109 z "},"Ẽ":{"ha":817,"x_min":146,"x_max":720,"o":"m 146 0 l 146 1010 l 708 1010 l 708 953 l 208 953 l 208 534 l 678 534 l 678 477 l 208 477 l 208 57 l 720 57 l 720 0 l 146 0 m 248 1128 l 197 1132 q 240 1224 201 1189 q 333 1259 279 1259 q 389 1248 365 1259 q 433 1222 413 1236 q 474 1196 453 1207 q 522 1184 495 1184 q 580 1206 554 1184 q 610 1261 605 1227 l 661 1253 q 614 1163 654 1197 q 524 1130 575 1130 q 469 1141 492 1130 q 428 1167 447 1153 q 387 1193 408 1182 q 335 1205 366 1205 q 276 1183 300 1205 q 248 1128 251 1161 z "},"Ế":{"ha":817,"x_min":146,"x_max":804,"o":"m 146 0 l 146 1010 l 708 1010 l 708 953 l 208 953 l 208 534 l 678 534 l 678 477 l 208 477 l 208 57 l 720 57 l 720 0 l 146 0 m 221 1117 l 412 1303 l 454 1303 l 644 1117 l 569 1117 l 433 1253 l 297 1117 l 221 1117 m 618 1238 l 730 1413 l 804 1413 l 674 1238 l 618 1238 z "},"Ề":{"ha":817,"x_min":70,"x_max":720,"o":"m 146 0 l 146 1010 l 708 1010 l 708 953 l 208 953 l 208 534 l 678 534 l 678 477 l 208 477 l 208 57 l 720 57 l 720 0 l 146 0 m 450 1319 l 641 1133 l 566 1133 l 430 1269 l 294 1133 l 219 1133 l 409 1319 l 450 1319 m 145 1430 l 249 1255 l 194 1255 l 70 1430 l 145 1430 z "},"Ể":{"ha":817,"x_min":146,"x_max":777,"o":"m 146 0 l 146 1010 l 708 1010 l 708 953 l 208 953 l 208 534 l 678 534 l 678 477 l 208 477 l 208 57 l 720 57 l 720 0 l 146 0 m 456 1284 l 642 1098 l 573 1098 l 430 1240 l 287 1098 l 219 1098 l 405 1284 l 456 1284 m 678 1194 l 629 1194 l 629 1277 q 702 1294 681 1280 q 724 1335 724 1307 q 695 1384 724 1368 q 614 1401 667 1401 l 618 1444 q 737 1413 698 1443 q 776 1337 776 1383 q 748 1271 776 1296 q 678 1242 720 1246 l 678 1194 z "},"Ễ":{"ha":817,"x_min":146,"x_max":720,"o":"m 146 0 l 146 1010 l 708 1010 l 708 953 l 208 953 l 208 534 l 678 534 l 678 477 l 208 477 l 208 57 l 720 57 l 720 0 l 146 0 m 439 1258 l 632 1076 l 564 1076 l 421 1212 l 278 1076 l 210 1076 l 402 1258 l 439 1258 m 566 1422 l 606 1414 q 568 1338 600 1368 q 494 1309 535 1309 q 448 1319 467 1309 q 414 1343 429 1330 q 383 1367 399 1357 q 346 1379 367 1378 q 300 1361 322 1379 q 274 1311 278 1342 l 235 1318 q 273 1394 241 1365 q 345 1424 305 1424 q 389 1414 370 1424 q 423 1390 407 1403 q 456 1366 439 1376 q 495 1355 473 1355 q 541 1373 519 1354 q 566 1422 563 1391 z "},"Ệ":{"ha":817,"x_min":146,"x_max":720,"o":"m 146 0 l 146 1010 l 708 1010 l 708 953 l 208 953 l 208 534 l 678 534 l 678 477 l 208 477 l 208 57 l 720 57 l 720 0 l 146 0 m 561 1093 l 429 1240 l 296 1093 l 234 1093 l 234 1098 l 408 1290 l 449 1290 l 623 1098 l 623 1093 l 561 1093 m 410 -233 q 375 -219 390 -233 q 361 -186 361 -206 q 375 -153 361 -167 q 410 -139 390 -139 q 444 -153 430 -139 q 458 -186 458 -167 q 444 -219 458 -206 q 410 -233 430 -233 z "},"Ɇ":{"ha":817,"x_min":146,"x_max":720,"o":"m 661 1138 l 295 -128 l 238 -128 l 604 1138 l 661 1138 m 146 0 l 146 1010 l 708 1010 l 708 953 l 208 953 l 208 534 l 678 534 l 678 477 l 208 477 l 208 57 l 720 57 l 720 0 l 146 0 z "},"Ǝ":{"ha":817,"x_min":97,"x_max":671,"o":"m 671 1010 l 671 0 l 109 0 l 109 57 l 610 57 l 610 476 l 140 476 l 140 533 l 610 533 l 610 953 l 97 953 l 97 1010 l 671 1010 z "},"Ε":{"ha":817,"x_min":146,"x_max":720,"o":"m 146 0 l 146 1010 l 708 1010 l 708 953 l 208 953 l 208 534 l 678 534 l 678 477 l 208 477 l 208 57 l 720 57 l 720 0 l 146 0 z "},"Έ":{"ha":872,"x_min":43,"x_max":775,"o":"m 201 0 l 201 1010 l 763 1010 l 763 953 l 262 953 l 262 534 l 733 534 l 733 477 l 262 477 l 262 57 l 775 57 l 775 0 l 201 0 m 43 838 l 68 1067 l 136 1067 l 86 838 l 43 838 z "},"Ἐ":{"ha":976,"x_min":66,"x_max":878,"o":"m 304 0 l 304 1010 l 867 1010 l 867 953 l 366 953 l 366 534 l 836 534 l 836 477 l 366 477 l 366 57 l 878 57 l 878 0 l 304 0 m 199 1010 l 199 975 q 189 897 199 932 q 158 831 180 862 q 99 769 136 799 l 66 790 q 109 850 94 822 q 131 909 125 878 q 138 979 138 940 l 138 1010 l 199 1010 z "},"Ἑ":{"ha":958,"x_min":76,"x_max":861,"o":"m 287 0 l 287 1010 l 849 1010 l 849 953 l 348 953 l 348 534 l 819 534 l 819 477 l 348 477 l 348 57 l 861 57 l 861 0 l 287 0 m 76 977 l 76 1013 l 138 1013 l 138 981 q 145 912 138 942 q 166 853 151 881 q 210 793 182 825 l 177 771 q 99 865 122 818 q 76 977 76 913 z "},"Ἒ":{"ha":1251,"x_min":130,"x_max":1154,"o":"m 580 0 l 580 1010 l 1142 1010 l 1142 953 l 641 953 l 641 534 l 1112 534 l 1112 477 l 641 477 l 641 57 l 1154 57 l 1154 0 l 580 0 m 476 792 l 476 783 l 440 783 l 294 1001 l 294 1012 l 364 1012 l 476 792 m 263 1012 l 263 976 q 253 898 263 933 q 221 832 243 863 q 162 770 199 801 l 129 791 q 186 880 171 839 q 201 980 201 921 l 201 1012 l 263 1012 z "},"Ἓ":{"ha":1193,"x_min":133,"x_max":1095,"o":"m 521 0 l 521 1010 l 1084 1010 l 1084 953 l 583 953 l 583 534 l 1054 534 l 1054 477 l 583 477 l 583 57 l 1095 57 l 1095 0 l 521 0 m 415 793 l 415 784 l 378 784 l 233 1002 l 233 1013 l 303 1013 l 415 793 m 133 977 l 133 1013 l 195 1013 l 195 981 q 210 881 195 922 q 266 793 225 840 l 233 771 q 156 865 179 818 q 133 977 133 913 z "},"Ἔ":{"ha":1167,"x_min":34,"x_max":1070,"o":"m 496 0 l 496 1010 l 1058 1010 l 1058 953 l 557 953 l 557 534 l 1028 534 l 1028 477 l 557 477 l 557 57 l 1070 57 l 1070 0 l 496 0 m 179 784 l 179 793 l 291 1013 l 361 1013 l 361 1002 l 216 784 l 179 784 m 168 1013 l 168 977 q 158 900 168 935 q 126 834 148 865 q 67 771 104 802 l 34 793 q 91 881 75 840 q 106 981 106 922 l 106 1013 l 168 1013 z "},"Ἕ":{"ha":1194,"x_min":91,"x_max":1096,"o":"m 522 0 l 522 1010 l 1085 1010 l 1085 953 l 584 953 l 584 534 l 1054 534 l 1054 477 l 584 477 l 584 57 l 1096 57 l 1096 0 l 522 0 m 247 784 l 247 793 l 358 1013 l 429 1013 l 429 1002 l 283 784 l 247 784 m 192 771 q 114 865 137 818 q 91 977 91 913 l 91 1013 l 153 1013 l 153 981 q 168 881 153 922 q 225 793 184 840 l 192 771 z "},"Ὲ":{"ha":1040,"x_min":40,"x_max":943,"o":"m 368 0 l 368 1010 l 931 1010 l 931 953 l 430 953 l 430 534 l 901 534 l 901 477 l 430 477 l 430 57 l 943 57 l 943 0 l 368 0 m 185 779 l 40 998 l 40 1009 l 109 1009 l 222 789 l 222 779 l 185 779 z "},"Έ":{"ha":984,"x_min":126,"x_max":887,"o":"m 313 0 l 313 1010 l 875 1010 l 875 953 l 375 953 l 375 534 l 845 534 l 845 477 l 375 477 l 375 57 l 887 57 l 887 0 l 313 0 m 125 852 l 125 858 l 233 1083 l 306 1083 l 306 1077 l 164 852 l 125 852 z "},"Е":{"ha":817,"x_min":146,"x_max":720,"o":"m 146 0 l 146 1010 l 708 1010 l 708 953 l 208 953 l 208 534 l 678 534 l 678 477 l 208 477 l 208 57 l 720 57 l 720 0 l 146 0 z "},"Ѐ":{"ha":817,"x_min":146,"x_max":720,"o":"m 146 0 l 146 1010 l 708 1010 l 708 953 l 208 953 l 208 534 l 678 534 l 678 477 l 208 477 l 208 57 l 720 57 l 720 0 l 146 0 m 402 1118 l 254 1336 l 326 1336 l 458 1118 l 402 1118 z "},"Ё":{"ha":817,"x_min":146,"x_max":720,"o":"m 146 0 l 146 1010 l 708 1010 l 708 953 l 208 953 l 208 534 l 678 534 l 678 477 l 208 477 l 208 57 l 720 57 l 720 0 l 146 0 m 318 1144 q 285 1159 299 1144 q 271 1192 271 1173 q 285 1225 271 1211 q 318 1239 299 1239 q 352 1225 338 1239 q 365 1192 365 1211 q 352 1159 365 1173 q 318 1144 338 1144 m 539 1144 q 506 1159 520 1144 q 492 1192 492 1173 q 506 1225 492 1211 q 539 1239 520 1239 q 573 1225 559 1239 q 586 1192 586 1211 q 573 1159 586 1173 q 539 1144 559 1144 z "},"Ӗ":{"ha":817,"x_min":146,"x_max":720,"o":"m 146 0 l 146 1010 l 708 1010 l 708 953 l 208 953 l 208 534 l 678 534 l 678 477 l 208 477 l 208 57 l 720 57 l 720 0 l 146 0 m 513 1263 l 571 1263 q 533 1164 571 1201 q 429 1127 495 1127 q 325 1164 363 1127 q 287 1263 287 1201 l 344 1263 q 365 1200 344 1224 q 429 1176 386 1176 q 492 1200 472 1176 q 513 1263 513 1224 z "},"F":{"ha":813,"x_min":146,"x_max":710,"o":"m 146 0 l 146 1010 l 710 1010 l 710 953 l 208 953 l 208 534 l 663 534 l 663 477 l 208 477 l 208 0 l 146 0 z "},"Ƒ":{"ha":793,"x_min":-18,"x_max":689,"o":"m 125 0 l 187 0 l 187 -103 q 176 -180 187 -146 q 144 -236 165 -214 q 92 -271 123 -259 q 20 -283 61 -283 q 3 -282 11 -283 q -18 -278 -6 -281 l -18 -223 q -1 -226 -11 -225 q 18 -227 8 -227 q 97 -198 70 -227 q 125 -103 125 -168 l 125 0 m 125 0 l 125 1010 l 689 1010 l 689 953 l 187 953 l 187 534 l 642 534 l 642 477 l 187 477 l 187 0 l 125 0 z "},"Ḟ":{"ha":813,"x_min":146,"x_max":710,"o":"m 146 0 l 146 1010 l 710 1010 l 710 953 l 208 953 l 208 534 l 663 534 l 663 477 l 208 477 l 208 0 l 146 0 m 433 1144 q 399 1158 413 1144 q 384 1192 384 1172 q 399 1225 384 1211 q 433 1239 413 1239 q 467 1225 453 1239 q 481 1192 481 1211 q 467 1158 481 1172 q 433 1144 453 1144 z "},"Ⅎ":{"ha":813,"x_min":104,"x_max":667,"o":"m 667 1010 l 667 0 l 104 0 l 104 57 l 606 57 l 606 476 l 150 476 l 150 533 l 606 533 l 606 1010 l 667 1010 z "},"G":{"ha":1028,"x_min":95,"x_max":924,"o":"m 854 694 q 815 794 842 746 q 746 881 788 842 q 647 942 704 919 q 521 965 591 965 q 331 909 414 965 q 202 749 249 853 q 155 505 155 646 q 202 262 155 365 q 332 102 248 158 q 526 45 415 45 q 702 91 625 45 q 822 222 779 137 q 864 427 865 308 l 885 416 l 542 416 l 542 473 l 924 473 l 924 416 q 873 186 924 283 q 732 38 822 90 q 526 -14 642 -14 q 299 51 396 -14 q 148 232 202 115 q 95 505 95 349 q 125 718 95 622 q 213 882 156 814 q 348 987 269 950 q 521 1024 426 1024 q 675 996 607 1024 q 794 920 744 967 q 875 814 844 872 q 917 694 906 755 l 854 694 z "},"Ǥ":{"ha":1028,"x_min":95,"x_max":996,"o":"m 996 287 l 996 233 l 542 233 l 542 287 l 996 287 m 854 694 q 815 794 842 746 q 746 881 788 842 q 647 942 704 919 q 521 965 591 965 q 331 909 414 965 q 202 749 249 853 q 155 505 155 646 q 202 262 155 365 q 332 102 248 158 q 526 45 415 45 q 702 91 625 45 q 822 222 779 137 q 864 427 865 308 l 885 416 l 542 416 l 542 473 l 924 473 l 924 416 q 873 186 924 283 q 732 38 822 90 q 526 -14 642 -14 q 299 51 396 -14 q 148 232 202 115 q 95 505 95 349 q 125 718 95 622 q 213 882 156 814 q 348 987 269 950 q 521 1024 426 1024 q 675 996 607 1024 q 794 920 744 967 q 875 814 844 872 q 917 694 906 755 l 854 694 z "},"Ɠ":{"ha":1017,"x_min":95,"x_max":1060,"o":"m 916 694 l 854 694 l 856 806 q 866 879 857 848 q 894 931 875 910 q 940 961 912 951 q 1006 971 968 971 q 1033 970 1018 971 q 1060 967 1048 970 l 1060 913 q 1037 916 1049 915 q 1016 917 1025 917 q 960 906 982 917 q 927 872 938 896 q 916 806 916 847 l 916 694 m 854 694 q 815 794 842 746 q 746 881 788 842 q 647 942 704 919 q 521 965 591 965 q 331 909 414 965 q 202 749 249 853 q 155 505 155 646 q 202 262 155 365 q 332 102 248 158 q 526 45 415 45 q 702 91 625 45 q 822 222 779 137 q 864 427 865 308 l 885 416 l 542 416 l 542 473 l 924 473 l 924 416 q 873 186 924 283 q 732 38 822 90 q 526 -14 642 -14 q 299 51 396 -14 q 148 232 202 115 q 95 505 95 349 q 125 718 95 622 q 213 882 156 814 q 348 987 269 950 q 521 1024 426 1024 q 675 996 607 1024 q 794 920 744 967 q 875 814 844 872 q 917 694 906 755 l 854 694 z "},"Ĝ":{"ha":1028,"x_min":95,"x_max":924,"o":"m 854 694 q 815 794 842 746 q 746 881 788 842 q 647 942 704 919 q 521 965 591 965 q 331 909 414 965 q 202 749 249 853 q 155 505 155 646 q 202 262 155 365 q 332 102 248 158 q 526 45 415 45 q 702 91 625 45 q 822 222 779 137 q 864 427 865 308 l 885 416 l 542 416 l 542 473 l 924 473 l 924 416 q 873 186 924 283 q 732 38 822 90 q 526 -14 642 -14 q 299 51 396 -14 q 148 232 202 115 q 95 505 95 349 q 125 718 95 622 q 213 882 156 814 q 348 987 269 950 q 521 1024 426 1024 q 675 996 607 1024 q 794 920 744 967 q 875 814 844 872 q 917 694 906 755 l 854 694 m 650 1093 l 517 1240 l 384 1093 l 322 1093 l 322 1098 l 497 1290 l 537 1290 l 712 1098 l 712 1093 l 650 1093 z "},"Ğ":{"ha":1028,"x_min":95,"x_max":924,"o":"m 854 694 q 815 794 842 746 q 746 881 788 842 q 647 942 704 919 q 521 965 591 965 q 331 909 414 965 q 202 749 249 853 q 155 505 155 646 q 202 262 155 365 q 332 102 248 158 q 526 45 415 45 q 702 91 625 45 q 822 222 779 137 q 864 427 865 308 l 885 416 l 542 416 l 542 473 l 924 473 l 924 416 q 873 186 924 283 q 732 38 822 90 q 526 -14 642 -14 q 299 51 396 -14 q 148 232 202 115 q 95 505 95 349 q 125 718 95 622 q 213 882 156 814 q 348 987 269 950 q 521 1024 426 1024 q 675 996 607 1024 q 794 920 744 967 q 875 814 844 872 q 917 694 906 755 l 854 694 m 602 1263 l 659 1263 q 621 1164 659 1201 q 517 1127 583 1127 q 413 1164 451 1127 q 375 1263 375 1201 l 433 1263 q 453 1200 433 1224 q 517 1176 474 1176 q 581 1200 560 1176 q 602 1263 602 1224 z "},"Ġ":{"ha":1028,"x_min":95,"x_max":924,"o":"m 854 694 q 815 794 842 746 q 746 881 788 842 q 647 942 704 919 q 521 965 591 965 q 331 909 414 965 q 202 749 249 853 q 155 505 155 646 q 202 262 155 365 q 332 102 248 158 q 526 45 415 45 q 702 91 625 45 q 822 222 779 137 q 864 427 865 308 l 885 416 l 542 416 l 542 473 l 924 473 l 924 416 q 873 186 924 283 q 732 38 822 90 q 526 -14 642 -14 q 299 51 396 -14 q 148 232 202 115 q 95 505 95 349 q 125 718 95 622 q 213 882 156 814 q 348 987 269 950 q 521 1024 426 1024 q 675 996 607 1024 q 794 920 744 967 q 875 814 844 872 q 917 694 906 755 l 854 694 m 517 1144 q 482 1158 497 1144 q 468 1192 468 1172 q 482 1225 468 1211 q 517 1239 497 1239 q 551 1225 537 1239 q 565 1192 565 1211 q 551 1158 565 1172 q 517 1144 537 1144 z "},"Ģ":{"ha":1028,"x_min":95,"x_max":924,"o":"m 854 694 q 815 794 842 746 q 746 881 788 842 q 647 942 704 919 q 521 965 591 965 q 331 909 414 965 q 202 749 249 853 q 155 505 155 646 q 202 262 155 365 q 332 102 248 158 q 526 45 415 45 q 702 91 625 45 q 822 222 779 137 q 864 427 865 308 l 885 416 l 542 416 l 542 473 l 924 473 l 924 416 q 873 186 924 283 q 732 38 822 90 q 526 -14 642 -14 q 299 51 396 -14 q 148 232 202 115 q 95 505 95 349 q 125 718 95 622 q 213 882 156 814 q 348 987 269 950 q 521 1024 426 1024 q 675 996 607 1024 q 794 920 744 967 q 875 814 844 872 q 917 694 906 755 l 854 694 m 422 -335 l 484 -80 l 546 -80 l 470 -335 l 422 -335 z "},"Ǧ":{"ha":1028,"x_min":95,"x_max":924,"o":"m 854 694 q 815 794 842 746 q 746 881 788 842 q 647 942 704 919 q 521 965 591 965 q 331 909 414 965 q 202 749 249 853 q 155 505 155 646 q 202 262 155 365 q 332 102 248 158 q 526 45 415 45 q 702 91 625 45 q 822 222 779 137 q 864 427 865 308 l 885 416 l 542 416 l 542 473 l 924 473 l 924 416 q 873 186 924 283 q 732 38 822 90 q 526 -14 642 -14 q 299 51 396 -14 q 148 232 202 115 q 95 505 95 349 q 125 718 95 622 q 213 882 156 814 q 348 987 269 950 q 521 1024 426 1024 q 675 996 607 1024 q 794 920 744 967 q 875 814 844 872 q 917 694 906 755 l 854 694 m 384 1307 l 517 1160 l 650 1307 l 712 1307 l 712 1302 l 537 1110 l 497 1110 l 322 1302 l 322 1307 l 384 1307 z "},"Ǵ":{"ha":1028,"x_min":95,"x_max":924,"o":"m 854 694 q 815 794 842 746 q 746 881 788 842 q 647 942 704 919 q 521 965 591 965 q 331 909 414 965 q 202 749 249 853 q 155 505 155 646 q 202 262 155 365 q 332 102 248 158 q 526 45 415 45 q 702 91 625 45 q 822 222 779 137 q 864 427 865 308 l 885 416 l 542 416 l 542 473 l 924 473 l 924 416 q 873 186 924 283 q 732 38 822 90 q 526 -14 642 -14 q 299 51 396 -14 q 148 232 202 115 q 95 505 95 349 q 125 718 95 622 q 213 882 156 814 q 348 987 269 950 q 521 1024 426 1024 q 675 996 607 1024 q 794 920 744 967 q 875 814 844 872 q 917 694 906 755 l 854 694 m 488 1118 l 620 1336 l 691 1336 l 543 1118 l 488 1118 z "},"Ḡ":{"ha":1028,"x_min":95,"x_max":924,"o":"m 854 694 q 815 794 842 746 q 746 881 788 842 q 647 942 704 919 q 521 965 591 965 q 331 909 414 965 q 202 749 249 853 q 155 505 155 646 q 202 262 155 365 q 332 102 248 158 q 526 45 415 45 q 702 91 625 45 q 822 222 779 137 q 864 427 865 308 l 885 416 l 542 416 l 542 473 l 924 473 l 924 416 q 873 186 924 283 q 732 38 822 90 q 526 -14 642 -14 q 299 51 396 -14 q 148 232 202 115 q 95 505 95 349 q 125 718 95 622 q 213 882 156 814 q 348 987 269 950 q 521 1024 426 1024 q 675 996 607 1024 q 794 920 744 967 q 875 814 844 872 q 917 694 906 755 l 854 694 m 699 1218 l 699 1164 l 335 1164 l 335 1218 l 699 1218 z "},"":{"ha":1031,"x_min":95,"x_max":927,"o":"m 526 -14 q 299 51 396 -14 q 148 232 202 115 q 95 505 95 349 q 126 718 95 622 q 213 882 156 814 q 349 987 270 950 q 522 1024 428 1024 q 677 996 608 1024 q 796 920 746 967 q 878 814 847 872 q 920 694 909 755 l 857 694 q 818 794 846 746 q 749 881 791 842 q 649 942 706 919 q 522 965 592 965 q 332 909 415 965 q 202 749 249 853 q 155 505 155 646 q 202 262 155 365 q 332 102 248 159 q 526 45 415 45 q 704 92 626 45 q 825 224 781 139 q 867 429 868 310 l 881 416 l 542 416 l 542 473 l 927 473 l 927 0 l 872 0 l 867 197 l 863 197 q 728 40 814 94 q 526 -14 642 -14 z "},"":{"ha":1031,"x_min":95,"x_max":999,"o":"m 999 287 l 999 233 l 542 233 l 542 287 l 999 287 m 526 -14 q 299 51 396 -14 q 148 232 202 115 q 95 505 95 349 q 126 718 95 622 q 213 882 156 814 q 349 987 270 950 q 522 1024 428 1024 q 677 996 608 1024 q 796 920 746 967 q 878 814 847 872 q 920 694 909 755 l 857 694 q 818 794 846 746 q 749 881 791 842 q 649 942 706 919 q 522 965 592 965 q 332 909 415 965 q 202 749 249 853 q 155 505 155 646 q 202 262 155 365 q 332 102 248 159 q 526 45 415 45 q 704 92 626 45 q 825 224 781 139 q 867 429 868 310 l 881 416 l 542 416 l 542 473 l 927 473 l 927 0 l 872 0 l 867 197 l 863 197 q 728 40 814 94 q 526 -14 642 -14 z "},"":{"ha":1017,"x_min":95,"x_max":1040,"o":"m 920 694 l 858 694 l 860 814 q 870 881 861 852 q 896 931 879 910 q 939 961 914 951 q 996 971 964 971 q 1018 970 1007 971 q 1040 967 1030 970 l 1040 913 q 1023 916 1032 915 q 1006 917 1014 917 q 962 907 981 917 q 931 874 942 897 q 920 813 920 852 l 920 694 m 526 -14 q 299 51 396 -14 q 148 232 202 115 q 95 505 95 349 q 126 718 95 622 q 213 882 156 814 q 349 987 270 950 q 522 1024 428 1024 q 677 996 608 1024 q 796 920 746 967 q 878 814 847 872 q 920 694 909 755 l 857 694 q 818 794 846 746 q 749 881 791 842 q 649 942 706 919 q 522 965 592 965 q 332 909 415 965 q 202 749 249 853 q 155 505 155 646 q 202 262 155 365 q 332 102 248 159 q 526 45 415 45 q 704 92 626 45 q 825 224 781 139 q 867 429 868 310 l 881 416 l 542 416 l 542 473 l 927 473 l 927 0 l 872 0 l 867 197 l 863 197 q 728 40 814 94 q 526 -14 642 -14 z "},"":{"ha":1031,"x_min":95,"x_max":927,"o":"m 526 -14 q 299 51 396 -14 q 148 232 202 115 q 95 505 95 349 q 126 718 95 622 q 213 882 156 814 q 349 987 270 950 q 522 1024 428 1024 q 677 996 608 1024 q 796 920 746 967 q 878 814 847 872 q 920 694 909 755 l 857 694 q 818 794 846 746 q 749 881 791 842 q 649 942 706 919 q 522 965 592 965 q 332 909 415 965 q 202 749 249 853 q 155 505 155 646 q 202 262 155 365 q 332 102 248 159 q 526 45 415 45 q 704 92 626 45 q 825 224 781 139 q 867 429 868 310 l 881 416 l 542 416 l 542 473 l 927 473 l 927 0 l 872 0 l 867 197 l 863 197 q 728 40 814 94 q 526 -14 642 -14 m 650 1093 l 517 1240 l 384 1093 l 322 1093 l 322 1098 l 497 1290 l 537 1290 l 712 1098 l 712 1093 l 650 1093 z "},"":{"ha":1031,"x_min":95,"x_max":927,"o":"m 526 -14 q 299 51 396 -14 q 148 232 202 115 q 95 505 95 349 q 126 718 95 622 q 213 882 156 814 q 349 987 270 950 q 522 1024 428 1024 q 677 996 608 1024 q 796 920 746 967 q 878 814 847 872 q 920 694 909 755 l 857 694 q 818 794 846 746 q 749 881 791 842 q 649 942 706 919 q 522 965 592 965 q 332 909 415 965 q 202 749 249 853 q 155 505 155 646 q 202 262 155 365 q 332 102 248 159 q 526 45 415 45 q 704 92 626 45 q 825 224 781 139 q 867 429 868 310 l 881 416 l 542 416 l 542 473 l 927 473 l 927 0 l 872 0 l 867 197 l 863 197 q 728 40 814 94 q 526 -14 642 -14 m 602 1263 l 659 1263 q 621 1164 659 1201 q 517 1127 583 1127 q 413 1164 451 1127 q 375 1263 375 1201 l 433 1263 q 453 1200 433 1224 q 517 1176 474 1176 q 581 1200 560 1176 q 602 1263 602 1224 z "},"":{"ha":1031,"x_min":95,"x_max":927,"o":"m 526 -14 q 299 51 396 -14 q 148 232 202 115 q 95 505 95 349 q 126 718 95 622 q 213 882 156 814 q 349 987 270 950 q 522 1024 428 1024 q 677 996 608 1024 q 796 920 746 967 q 878 814 847 872 q 920 694 909 755 l 857 694 q 818 794 846 746 q 749 881 791 842 q 649 942 706 919 q 522 965 592 965 q 332 909 415 965 q 202 749 249 853 q 155 505 155 646 q 202 262 155 365 q 332 102 248 159 q 526 45 415 45 q 704 92 626 45 q 825 224 781 139 q 867 429 868 310 l 881 416 l 542 416 l 542 473 l 927 473 l 927 0 l 872 0 l 867 197 l 863 197 q 728 40 814 94 q 526 -14 642 -14 m 517 1144 q 482 1158 497 1144 q 468 1192 468 1172 q 482 1225 468 1211 q 517 1239 497 1239 q 551 1225 537 1239 q 565 1192 565 1211 q 551 1158 565 1172 q 517 1144 537 1144 z "},"":{"ha":1031,"x_min":95,"x_max":927,"o":"m 526 -14 q 299 51 396 -14 q 148 232 202 115 q 95 505 95 349 q 126 718 95 622 q 213 882 156 814 q 349 987 270 950 q 522 1024 428 1024 q 677 996 608 1024 q 796 920 746 967 q 878 814 847 872 q 920 694 909 755 l 857 694 q 818 794 846 746 q 749 881 791 842 q 649 942 706 919 q 522 965 592 965 q 332 909 415 965 q 202 749 249 853 q 155 505 155 646 q 202 262 155 365 q 332 102 248 159 q 526 45 415 45 q 704 92 626 45 q 825 224 781 139 q 867 429 868 310 l 881 416 l 542 416 l 542 473 l 927 473 l 927 0 l 872 0 l 867 197 l 863 197 q 728 40 814 94 q 526 -14 642 -14 m 422 -335 l 484 -80 l 546 -80 l 470 -335 l 422 -335 z "},"":{"ha":1031,"x_min":95,"x_max":927,"o":"m 526 -14 q 299 51 396 -14 q 148 232 202 115 q 95 505 95 349 q 126 718 95 622 q 213 882 156 814 q 349 987 270 950 q 522 1024 428 1024 q 677 996 608 1024 q 796 920 746 967 q 878 814 847 872 q 920 694 909 755 l 857 694 q 818 794 846 746 q 749 881 791 842 q 649 942 706 919 q 522 965 592 965 q 332 909 415 965 q 202 749 249 853 q 155 505 155 646 q 202 262 155 365 q 332 102 248 159 q 526 45 415 45 q 704 92 626 45 q 825 224 781 139 q 867 429 868 310 l 881 416 l 542 416 l 542 473 l 927 473 l 927 0 l 872 0 l 867 197 l 863 197 q 728 40 814 94 q 526 -14 642 -14 m 384 1307 l 517 1160 l 650 1307 l 712 1307 l 712 1302 l 537 1110 l 497 1110 l 322 1302 l 322 1307 l 384 1307 z "},"":{"ha":1031,"x_min":95,"x_max":927,"o":"m 526 -14 q 299 51 396 -14 q 148 232 202 115 q 95 505 95 349 q 126 718 95 622 q 213 882 156 814 q 349 987 270 950 q 522 1024 428 1024 q 677 996 608 1024 q 796 920 746 967 q 878 814 847 872 q 920 694 909 755 l 857 694 q 818 794 846 746 q 749 881 791 842 q 649 942 706 919 q 522 965 592 965 q 332 909 415 965 q 202 749 249 853 q 155 505 155 646 q 202 262 155 365 q 332 102 248 159 q 526 45 415 45 q 704 92 626 45 q 825 224 781 139 q 867 429 868 310 l 881 416 l 542 416 l 542 473 l 927 473 l 927 0 l 872 0 l 867 197 l 863 197 q 728 40 814 94 q 526 -14 642 -14 m 488 1118 l 620 1336 l 691 1336 l 543 1118 l 488 1118 z "},"":{"ha":1031,"x_min":95,"x_max":927,"o":"m 526 -14 q 299 51 396 -14 q 148 232 202 115 q 95 505 95 349 q 126 718 95 622 q 213 882 156 814 q 349 987 270 950 q 522 1024 428 1024 q 677 996 608 1024 q 796 920 746 967 q 878 814 847 872 q 920 694 909 755 l 857 694 q 818 794 846 746 q 749 881 791 842 q 649 942 706 919 q 522 965 592 965 q 332 909 415 965 q 202 749 249 853 q 155 505 155 646 q 202 262 155 365 q 332 102 248 159 q 526 45 415 45 q 704 92 626 45 q 825 224 781 139 q 867 429 868 310 l 881 416 l 542 416 l 542 473 l 927 473 l 927 0 l 872 0 l 867 197 l 863 197 q 728 40 814 94 q 526 -14 642 -14 m 699 1218 l 699 1164 l 335 1164 l 335 1218 l 699 1218 z "},"H":{"ha":1024,"x_min":146,"x_max":878,"o":"m 146 0 l 146 1010 l 208 1010 l 208 534 l 816 534 l 816 1010 l 878 1010 l 878 0 l 816 0 l 816 477 l 208 477 l 208 0 l 146 0 z "},"Ḩ":{"ha":1024,"x_min":139,"x_max":878,"o":"m 146 0 l 146 1010 l 208 1010 l 208 534 l 816 534 l 816 1010 l 878 1010 l 878 0 l 816 0 l 816 477 l 208 477 l 208 0 l 146 0 m 154 0 l 208 0 l 200 -39 q 275 -75 247 -46 q 303 -154 303 -104 q 263 -240 303 -210 q 145 -272 222 -270 l 143 -225 q 221 -207 195 -224 q 247 -155 247 -191 q 220 -97 247 -116 q 139 -78 193 -78 l 154 0 z "},"Ĥ":{"ha":1024,"x_min":146,"x_max":878,"o":"m 146 0 l 146 1010 l 208 1010 l 208 534 l 816 534 l 816 1010 l 878 1010 l 878 0 l 816 0 l 816 477 l 208 477 l 208 0 l 146 0 m 646 1093 l 513 1241 l 381 1093 l 319 1093 l 319 1099 l 493 1291 l 534 1291 l 708 1099 l 708 1093 l 646 1093 z "},"Ȟ":{"ha":1024,"x_min":146,"x_max":878,"o":"m 146 0 l 146 1010 l 208 1010 l 208 534 l 816 534 l 816 1010 l 878 1010 l 878 0 l 816 0 l 816 477 l 208 477 l 208 0 l 146 0 m 381 1308 l 513 1161 l 646 1308 l 708 1308 l 708 1303 l 534 1111 l 493 1111 l 319 1303 l 319 1308 l 381 1308 z "},"Ḣ":{"ha":1024,"x_min":146,"x_max":878,"o":"m 146 0 l 146 1010 l 208 1010 l 208 534 l 816 534 l 816 1010 l 878 1010 l 878 0 l 816 0 l 816 477 l 208 477 l 208 0 l 146 0 m 514 1145 q 479 1159 494 1145 q 465 1192 465 1172 q 479 1226 465 1212 q 514 1239 494 1239 q 548 1226 534 1239 q 562 1192 562 1212 q 548 1159 562 1172 q 514 1145 534 1145 z "},"Ḥ":{"ha":1024,"x_min":146,"x_max":878,"o":"m 146 0 l 146 1010 l 208 1010 l 208 534 l 816 534 l 816 1010 l 878 1010 l 878 0 l 816 0 l 816 477 l 208 477 l 208 0 l 146 0 m 512 -233 q 477 -219 492 -233 q 463 -186 463 -206 q 477 -153 463 -167 q 512 -139 492 -139 q 546 -153 532 -139 q 560 -186 560 -167 q 546 -219 560 -206 q 512 -233 532 -233 z "},"Ḧ":{"ha":1024,"x_min":146,"x_max":878,"o":"m 146 0 l 146 1010 l 208 1010 l 208 534 l 816 534 l 816 1010 l 878 1010 l 878 0 l 816 0 l 816 477 l 208 477 l 208 0 l 146 0 m 403 1145 q 370 1159 384 1145 q 356 1192 356 1173 q 370 1226 356 1212 q 403 1239 384 1239 q 436 1226 423 1239 q 450 1192 450 1212 q 436 1159 450 1173 q 403 1145 423 1145 m 624 1145 q 591 1159 605 1145 q 577 1192 577 1173 q 591 1226 577 1212 q 624 1239 605 1239 q 657 1226 644 1239 q 671 1192 671 1212 q 657 1159 671 1173 q 624 1145 644 1145 z "},"Ḫ":{"ha":1024,"x_min":146,"x_max":878,"o":"m 146 0 l 146 1010 l 208 1010 l 208 534 l 816 534 l 816 1010 l 878 1010 l 878 0 l 816 0 l 816 477 l 208 477 l 208 0 l 146 0 m 592 -72 l 650 -72 q 632 -144 650 -113 q 583 -191 615 -175 q 508 -208 552 -208 q 404 -170 442 -208 q 366 -72 366 -133 l 423 -72 q 444 -135 423 -111 q 508 -159 465 -159 q 571 -135 550 -159 q 592 -72 592 -110 z "},"Ħ":{"ha":1048,"x_min":79,"x_max":970,"o":"m 970 754 l 970 698 l 79 698 l 79 754 l 970 754 m 160 0 l 160 1010 l 221 1010 l 221 534 l 830 534 l 830 1010 l 892 1010 l 892 0 l 830 0 l 830 477 l 221 477 l 221 0 l 160 0 z "},"Ӈ":{"ha":1024,"x_min":146,"x_max":878,"o":"m 816 0 l 878 0 l 878 -103 q 871 -166 878 -138 q 850 -217 864 -195 q 817 -253 836 -238 q 774 -275 798 -268 q 722 -283 750 -283 q 695 -282 708 -283 q 673 -278 683 -281 l 673 -223 q 690 -226 681 -225 q 710 -227 699 -227 q 767 -214 744 -227 q 804 -174 791 -201 q 816 -103 816 -146 l 816 0 m 146 0 l 146 1010 l 208 1010 l 208 534 l 816 534 l 816 1010 l 878 1010 l 878 0 l 816 0 l 816 477 l 208 477 l 208 0 l 146 0 z "},"Ң":{"ha":1043,"x_min":146,"x_max":933,"o":"m 146 0 l 146 1010 l 208 1010 l 208 534 l 816 534 l 816 1010 l 878 1010 l 878 0 l 816 0 l 816 477 l 208 477 l 208 0 l 146 0 m 933 59 l 933 -246 l 873 -246 l 873 59 l 933 59 z "},"Ӊ":{"ha":1040,"x_min":146,"x_max":938,"o":"m 146 0 l 146 1010 l 208 1010 l 208 534 l 816 534 l 816 1010 l 878 1010 l 878 0 l 816 0 l 816 477 l 208 477 l 208 0 l 146 0 m 938 44 l 938 -17 q 931 -85 937 -52 q 914 -151 925 -118 q 887 -216 903 -183 l 835 -202 q 857 -140 847 -170 q 872 -79 867 -109 q 878 -18 878 -49 l 878 44 l 938 44 z "},"Ҥ":{"ha":1351,"x_min":146,"x_max":1272,"o":"m 1272 1010 l 1272 953 l 878 953 l 878 0 l 816 0 l 816 477 l 208 477 l 208 0 l 146 0 l 146 1010 l 208 1010 l 208 534 l 816 534 l 816 1010 l 1272 1010 z "},"Ƕ":{"ha":1541,"x_min":146,"x_max":1417,"o":"m 1120 -15 q 962 19 1030 -15 q 855 126 893 54 q 816 306 816 197 l 816 477 l 208 477 l 208 0 l 146 0 l 146 1010 l 208 1010 l 208 534 l 816 534 l 816 1010 l 878 1010 l 878 306 q 941 108 878 173 q 1120 43 1005 44 q 1295 108 1236 43 q 1355 306 1355 173 l 1355 771 l 1417 771 l 1417 306 q 1378 122 1417 193 q 1273 18 1340 51 q 1120 -15 1206 -15 z "},"Η":{"ha":1024,"x_min":146,"x_max":878,"o":"m 146 0 l 146 1010 l 208 1010 l 208 534 l 816 534 l 816 1010 l 878 1010 l 878 0 l 816 0 l 816 477 l 208 477 l 208 0 l 146 0 z "},"Ή":{"ha":1138,"x_min":112,"x_max":992,"o":"m 260 0 l 260 1010 l 322 1010 l 322 534 l 931 534 l 931 1010 l 992 1010 l 992 0 l 931 0 l 931 477 l 322 477 l 322 0 l 260 0 m 112 838 l 137 1067 l 205 1067 l 155 838 l 112 838 z "},"Ἠ":{"ha":1229,"x_min":122,"x_max":1083,"o":"m 351 0 l 351 1010 l 413 1010 l 413 534 l 1021 534 l 1021 1010 l 1083 1010 l 1083 0 l 1021 0 l 1021 477 l 413 477 l 413 0 l 351 0 m 255 1010 l 255 975 q 245 897 255 932 q 213 831 235 862 q 154 769 191 799 l 122 790 q 165 850 149 822 q 187 909 181 878 q 193 979 193 940 l 193 1010 l 255 1010 z "},"Ἡ":{"ha":1225,"x_min":146,"x_max":1079,"o":"m 347 0 l 347 1010 l 408 1010 l 408 534 l 1017 534 l 1017 1010 l 1079 1010 l 1079 0 l 1017 0 l 1017 477 l 408 477 l 408 0 l 347 0 m 147 977 l 147 1013 l 209 1013 l 209 981 q 215 912 209 942 q 237 853 221 881 q 280 793 253 825 l 248 771 q 170 865 193 818 q 147 977 147 913 z "},"Ἢ":{"ha":1517,"x_min":128,"x_max":1371,"o":"m 639 0 l 639 1010 l 701 1010 l 701 534 l 1309 534 l 1309 1010 l 1371 1010 l 1371 0 l 1309 0 l 1309 477 l 701 477 l 701 0 l 639 0 m 474 792 l 474 783 l 438 783 l 292 1001 l 292 1012 l 362 1012 l 474 792 m 261 1012 l 261 976 q 251 898 261 933 q 219 832 241 863 q 160 770 197 801 l 127 791 q 184 880 169 839 q 199 980 199 921 l 199 1012 l 261 1012 z "},"Ἣ":{"ha":1459,"x_min":90,"x_max":1313,"o":"m 581 0 l 581 1010 l 643 1010 l 643 534 l 1252 534 l 1252 1010 l 1313 1010 l 1313 0 l 1252 0 l 1252 477 l 643 477 l 643 0 l 581 0 m 372 793 l 372 784 l 335 784 l 190 1002 l 190 1013 l 260 1013 l 372 793 m 90 977 l 90 1013 l 152 1013 l 152 981 q 167 881 152 922 q 223 793 182 840 l 190 771 q 113 865 136 818 q 90 977 90 913 z "},"Ἤ":{"ha":1434,"x_min":105,"x_max":1288,"o":"m 556 0 l 556 1010 l 618 1010 l 618 534 l 1226 534 l 1226 1010 l 1288 1010 l 1288 0 l 1226 0 l 1226 477 l 618 477 l 618 0 l 556 0 m 250 784 l 250 793 l 362 1013 l 432 1013 l 432 1002 l 286 784 l 250 784 m 238 1013 l 238 977 q 228 900 238 935 q 196 834 218 865 q 138 771 174 802 l 105 793 q 161 881 146 840 q 177 981 177 922 l 177 1013 l 238 1013 z "},"Ἥ":{"ha":1460,"x_min":108,"x_max":1314,"o":"m 582 0 l 582 1010 l 644 1010 l 644 534 l 1252 534 l 1252 1010 l 1314 1010 l 1314 0 l 1252 0 l 1252 477 l 644 477 l 644 0 l 582 0 m 263 784 l 263 793 l 375 1013 l 445 1013 l 445 1002 l 300 784 l 263 784 m 209 771 q 131 865 154 818 q 108 977 108 913 l 108 1013 l 170 1013 l 170 981 q 185 881 170 922 q 242 793 201 840 l 209 771 z "},"Ἦ":{"ha":1365,"x_min":109,"x_max":1219,"o":"m 487 0 l 487 1010 l 549 1010 l 549 534 l 1158 534 l 1158 1010 l 1219 1010 l 1219 0 l 1158 0 l 1158 477 l 549 477 l 549 0 l 487 0 m 421 1146 l 460 1137 q 430 1058 457 1090 q 359 1026 402 1027 q 314 1037 333 1026 q 280 1062 295 1048 q 248 1086 264 1076 q 211 1097 232 1097 q 167 1077 183 1097 q 147 1026 151 1056 l 109 1034 q 139 1113 112 1081 q 212 1146 166 1146 q 256 1135 237 1146 q 290 1110 274 1124 q 321 1085 305 1096 q 358 1075 337 1075 q 401 1095 385 1075 q 421 1146 418 1115 m 312 998 l 312 965 q 298 882 312 925 q 245 797 284 839 l 210 815 q 248 895 239 859 q 256 967 256 930 l 256 998 l 312 998 z "},"Ἧ":{"ha":1363,"x_min":109,"x_max":1217,"o":"m 485 0 l 485 1010 l 547 1010 l 547 534 l 1156 534 l 1156 1010 l 1217 1010 l 1217 0 l 1156 0 l 1156 477 l 547 477 l 547 0 l 485 0 m 258 965 l 258 998 l 313 998 l 313 967 q 325 890 313 925 q 361 815 336 854 l 325 797 q 274 877 291 835 q 258 965 258 920 m 421 1146 l 460 1137 q 430 1058 457 1090 q 359 1026 402 1027 q 314 1037 333 1026 q 280 1062 295 1048 q 248 1086 264 1076 q 211 1097 232 1097 q 167 1077 183 1097 q 147 1026 151 1056 l 109 1034 q 139 1113 112 1081 q 212 1146 166 1146 q 256 1135 237 1146 q 290 1110 274 1124 q 321 1085 305 1096 q 358 1075 337 1075 q 401 1095 385 1075 q 421 1146 418 1115 z "},"Ὴ":{"ha":1306,"x_min":110,"x_max":1160,"o":"m 428 0 l 428 1010 l 490 1010 l 490 534 l 1098 534 l 1098 1010 l 1160 1010 l 1160 0 l 1098 0 l 1098 477 l 490 477 l 490 0 l 428 0 m 256 779 l 110 998 l 110 1009 l 180 1009 l 292 789 l 292 779 l 256 779 z "},"Ή":{"ha":1251,"x_min":196,"x_max":1105,"o":"m 373 0 l 373 1010 l 435 1010 l 435 534 l 1043 534 l 1043 1010 l 1105 1010 l 1105 0 l 1043 0 l 1043 477 l 435 477 l 435 0 l 373 0 m 196 852 l 196 858 l 304 1083 l 377 1083 l 377 1077 l 235 852 l 196 852 z "},"Н":{"ha":1024,"x_min":146,"x_max":878,"o":"m 146 0 l 146 1010 l 208 1010 l 208 534 l 816 534 l 816 1010 l 878 1010 l 878 0 l 816 0 l 816 477 l 208 477 l 208 0 l 146 0 z "},"ᾘ":{"ha":1168,"x_min":61,"x_max":1022,"o":"m 290 0 l 290 1010 l 352 1010 l 352 534 l 960 534 l 960 1010 l 1022 1010 l 1022 0 l 960 0 l 960 477 l 352 477 l 352 0 l 290 0 m 711 -309 q 653 -285 676 -309 q 629 -216 629 -260 l 629 -59 l 685 -59 l 685 -215 q 694 -251 685 -238 q 718 -263 704 -263 q 732 -262 724 -263 q 743 -260 739 -261 l 749 -304 q 733 -308 743 -306 q 711 -309 722 -309 m 194 1010 l 194 975 q 184 897 194 932 q 152 831 174 862 q 93 769 130 799 l 61 790 q 104 850 88 822 q 126 909 119 878 q 132 979 132 940 l 132 1010 l 194 1010 z "},"ᾙ":{"ha":1225,"x_min":146,"x_max":1079,"o":"m 347 0 l 347 1010 l 408 1010 l 408 534 l 1017 534 l 1017 1010 l 1079 1010 l 1079 0 l 1017 0 l 1017 477 l 408 477 l 408 0 l 347 0 m 767 -309 q 709 -285 733 -309 q 686 -216 686 -260 l 686 -59 l 741 -59 l 741 -215 q 751 -251 741 -238 q 775 -263 761 -263 q 788 -262 781 -263 q 800 -260 796 -261 l 806 -304 q 789 -308 800 -306 q 767 -309 779 -309 m 147 977 l 147 1013 l 209 1013 l 209 981 q 215 912 209 942 q 237 853 221 881 q 280 793 253 825 l 248 771 q 170 865 193 818 q 147 977 147 913 z "},"ᾚ":{"ha":1517,"x_min":128,"x_max":1371,"o":"m 639 0 l 639 1010 l 701 1010 l 701 534 l 1309 534 l 1309 1010 l 1371 1010 l 1371 0 l 1309 0 l 1309 477 l 701 477 l 701 0 l 639 0 m 1060 -309 q 1002 -285 1025 -309 q 979 -216 979 -260 l 979 -59 l 1034 -59 l 1034 -215 q 1043 -251 1034 -238 q 1067 -263 1053 -263 q 1081 -262 1073 -263 q 1092 -260 1089 -261 l 1098 -304 q 1082 -308 1092 -306 q 1060 -309 1071 -309 m 474 792 l 474 783 l 438 783 l 292 1001 l 292 1012 l 362 1012 l 474 792 m 261 1012 l 261 976 q 251 898 261 933 q 219 832 241 863 q 160 770 197 801 l 127 791 q 184 880 169 839 q 199 980 199 921 l 199 1012 l 261 1012 z "},"ᾛ":{"ha":1459,"x_min":90,"x_max":1313,"o":"m 581 0 l 581 1010 l 643 1010 l 643 534 l 1252 534 l 1252 1010 l 1313 1010 l 1313 0 l 1252 0 l 1252 477 l 643 477 l 643 0 l 581 0 m 1002 -309 q 944 -285 968 -309 q 921 -216 921 -260 l 921 -59 l 976 -59 l 976 -215 q 986 -251 976 -238 q 1010 -263 995 -263 q 1023 -262 1016 -263 q 1035 -260 1031 -261 l 1041 -304 q 1024 -308 1035 -306 q 1002 -309 1014 -309 m 372 793 l 372 784 l 335 784 l 190 1002 l 190 1013 l 260 1013 l 372 793 m 90 977 l 90 1013 l 152 1013 l 152 981 q 167 881 152 922 q 223 793 182 840 l 190 771 q 113 865 136 818 q 90 977 90 913 z "},"ᾜ":{"ha":1434,"x_min":105,"x_max":1288,"o":"m 556 0 l 556 1010 l 618 1010 l 618 534 l 1226 534 l 1226 1010 l 1288 1010 l 1288 0 l 1226 0 l 1226 477 l 618 477 l 618 0 l 556 0 m 977 -309 q 919 -285 942 -309 q 895 -216 895 -260 l 895 -59 l 950 -59 l 950 -215 q 960 -251 950 -238 q 984 -263 970 -263 q 998 -262 990 -263 q 1009 -260 1005 -261 l 1015 -304 q 999 -308 1009 -306 q 977 -309 988 -309 m 250 784 l 250 793 l 362 1013 l 432 1013 l 432 1002 l 286 784 l 250 784 m 238 1013 l 238 977 q 228 900 238 935 q 196 834 218 865 q 138 771 174 802 l 105 793 q 161 881 146 840 q 177 981 177 922 l 177 1013 l 238 1013 z "},"ᾝ":{"ha":1460,"x_min":108,"x_max":1314,"o":"m 582 0 l 582 1010 l 644 1010 l 644 534 l 1252 534 l 1252 1010 l 1314 1010 l 1314 0 l 1252 0 l 1252 477 l 644 477 l 644 0 l 582 0 m 1003 -309 q 945 -285 968 -309 q 921 -216 921 -260 l 921 -59 l 977 -59 l 977 -215 q 986 -251 977 -238 q 1010 -263 996 -263 q 1024 -262 1016 -263 q 1035 -260 1031 -261 l 1041 -304 q 1025 -308 1035 -306 q 1003 -309 1014 -309 m 263 784 l 263 793 l 375 1013 l 445 1013 l 445 1002 l 300 784 l 263 784 m 209 771 q 131 865 154 818 q 108 977 108 913 l 108 1013 l 170 1013 l 170 981 q 185 881 170 922 q 242 793 201 840 l 209 771 z "},"ᾞ":{"ha":1365,"x_min":109,"x_max":1219,"o":"m 487 0 l 487 1010 l 549 1010 l 549 534 l 1158 534 l 1158 1010 l 1219 1010 l 1219 0 l 1158 0 l 1158 477 l 549 477 l 549 0 l 487 0 m 908 -309 q 850 -285 873 -309 q 827 -216 827 -260 l 827 -59 l 882 -59 l 882 -215 q 891 -251 882 -238 q 915 -263 901 -263 q 929 -262 921 -263 q 941 -260 937 -261 l 946 -304 q 930 -308 941 -306 q 908 -309 919 -309 m 421 1146 l 460 1137 q 430 1058 457 1090 q 359 1026 402 1027 q 314 1037 333 1026 q 280 1062 295 1048 q 248 1086 264 1076 q 211 1097 232 1097 q 167 1077 183 1097 q 147 1026 151 1056 l 109 1034 q 139 1113 112 1081 q 212 1146 166 1146 q 256 1135 237 1146 q 290 1110 274 1124 q 321 1085 305 1096 q 358 1075 337 1075 q 401 1095 385 1075 q 421 1146 418 1115 m 312 998 l 312 965 q 298 882 312 925 q 245 797 284 839 l 210 815 q 248 895 239 859 q 256 967 256 930 l 256 998 l 312 998 z "},"ᾟ":{"ha":1363,"x_min":109,"x_max":1217,"o":"m 485 0 l 485 1010 l 547 1010 l 547 534 l 1156 534 l 1156 1010 l 1217 1010 l 1217 0 l 1156 0 l 1156 477 l 547 477 l 547 0 l 485 0 m 906 -309 q 848 -285 872 -309 q 825 -216 825 -260 l 825 -59 l 880 -59 l 880 -215 q 890 -251 880 -238 q 913 -263 899 -263 q 927 -262 919 -263 q 939 -260 935 -261 l 945 -304 q 928 -308 939 -306 q 906 -309 917 -309 m 258 965 l 258 998 l 313 998 l 313 967 q 325 890 313 925 q 361 815 336 854 l 325 797 q 274 877 291 835 q 258 965 258 920 m 421 1146 l 460 1137 q 430 1058 457 1090 q 359 1026 402 1027 q 314 1037 333 1026 q 280 1062 295 1048 q 248 1086 264 1076 q 211 1097 232 1097 q 167 1077 183 1097 q 147 1026 151 1056 l 109 1034 q 139 1113 112 1081 q 212 1146 166 1146 q 256 1135 237 1146 q 290 1110 274 1124 q 321 1085 305 1096 q 358 1075 337 1075 q 401 1095 385 1075 q 421 1146 418 1115 z "},"ῌ":{"ha":1024,"x_min":146,"x_max":878,"o":"m 146 0 l 146 1010 l 208 1010 l 208 534 l 816 534 l 816 1010 l 878 1010 l 878 0 l 816 0 l 816 477 l 208 477 l 208 0 l 146 0 m 565 -309 q 507 -285 531 -309 q 484 -216 484 -260 l 484 -59 l 539 -59 l 539 -215 q 549 -251 539 -238 q 573 -263 558 -263 q 586 -262 579 -263 q 598 -260 594 -261 l 604 -304 q 587 -308 598 -306 q 565 -309 577 -309 z "},"I":{"ha":354,"x_min":146,"x_max":208,"o":"m 208 1010 l 208 0 l 146 0 l 146 1010 l 208 1010 z "},"Ï":{"ha":354,"x_min":19,"x_max":335,"o":"m 208 1010 l 208 0 l 146 0 l 146 1010 l 208 1010 m 67 1144 q 33 1159 47 1144 q 19 1192 19 1173 q 33 1225 19 1211 q 67 1239 47 1239 q 100 1225 86 1239 q 114 1192 114 1211 q 100 1159 114 1173 q 67 1144 86 1144 m 288 1144 q 254 1159 268 1144 q 240 1192 240 1173 q 254 1225 240 1211 q 288 1239 268 1239 q 321 1225 307 1239 q 335 1192 335 1211 q 321 1159 335 1173 q 288 1144 307 1144 z "},"Ḯ":{"ha":354,"x_min":19,"x_max":347,"o":"m 208 1010 l 208 0 l 146 0 l 146 1010 l 208 1010 m 146 1271 l 271 1405 l 347 1405 l 205 1271 l 146 1271 m 66 1099 q 33 1114 47 1099 q 19 1147 19 1128 q 33 1181 19 1167 q 66 1194 47 1194 q 100 1181 86 1194 q 113 1147 113 1167 q 100 1114 113 1128 q 66 1099 86 1099 m 287 1099 q 254 1114 268 1099 q 240 1147 240 1128 q 254 1181 240 1167 q 287 1194 268 1194 q 321 1181 307 1194 q 334 1147 334 1167 q 321 1114 334 1128 q 287 1099 307 1099 z "},"Ɨ":{"ha":354,"x_min":-20,"x_max":374,"o":"m 208 1010 l 208 0 l 146 0 l 146 1010 l 208 1010 m -20 495 l -20 546 l 374 546 l 374 495 l -20 495 z "},"Ḭ":{"ha":354,"x_min":-42,"x_max":422,"o":"m 208 1010 l 208 0 l 146 0 l 146 1010 l 208 1010 m 9 -209 l -42 -205 q 1 -114 -37 -149 q 95 -78 40 -78 q 150 -90 127 -78 q 194 -116 174 -101 q 236 -142 215 -130 q 284 -153 256 -153 q 341 -132 315 -153 q 371 -77 366 -110 l 422 -85 q 376 -174 415 -141 q 286 -208 336 -208 q 231 -196 253 -208 q 189 -170 208 -185 q 148 -144 170 -156 q 97 -133 127 -133 q 37 -155 62 -133 q 9 -209 12 -177 z "},"Ì":{"ha":354,"x_min":2,"x_max":208,"o":"m 208 1010 l 208 0 l 146 0 l 146 1010 l 208 1010 m 150 1118 l 2 1336 l 73 1336 l 206 1118 l 150 1118 z "},"Í":{"ha":354,"x_min":146,"x_max":352,"o":"m 208 1010 l 208 0 l 146 0 l 146 1010 l 208 1010 m 148 1118 l 280 1336 l 352 1336 l 203 1118 l 148 1118 z "},"Î":{"ha":354,"x_min":-18,"x_max":371,"o":"m 208 1010 l 208 0 l 146 0 l 146 1010 l 208 1010 m 310 1093 l 177 1240 l 44 1093 l -18 1093 l -18 1098 l 157 1290 l 197 1290 l 372 1098 l 372 1093 l 310 1093 z "},"Ĩ":{"ha":529,"x_min":32,"x_max":497,"o":"m 295 1010 l 295 0 l 233 0 l 233 1010 l 295 1010 m 84 1128 l 33 1132 q 76 1224 37 1189 q 169 1259 114 1259 q 225 1248 201 1259 q 269 1222 249 1236 q 310 1196 289 1207 q 358 1184 331 1184 q 415 1206 390 1184 q 446 1261 441 1227 l 497 1253 q 450 1163 489 1197 q 360 1130 411 1130 q 305 1141 327 1130 q 263 1167 283 1153 q 223 1193 244 1182 q 171 1205 202 1205 q 111 1183 136 1205 q 84 1128 87 1161 z "},"Ī":{"ha":354,"x_min":-5,"x_max":359,"o":"m 208 1010 l 208 0 l 146 0 l 146 1010 l 208 1010 m 359 1218 l 359 1164 l -5 1164 l -5 1218 l 359 1218 z "},"Ĭ":{"ha":354,"x_min":36,"x_max":319,"o":"m 208 1010 l 208 0 l 146 0 l 146 1010 l 208 1010 m 262 1263 l 319 1263 q 281 1164 319 1201 q 177 1127 243 1127 q 73 1164 111 1127 q 36 1263 36 1201 l 93 1263 q 113 1200 93 1224 q 177 1176 134 1176 q 241 1200 220 1176 q 262 1263 262 1224 z "},"Į":{"ha":354,"x_min":37,"x_max":256,"o":"m 208 1010 l 208 0 l 146 0 l 146 1010 l 208 1010 m 161 -298 q 72 -268 107 -298 q 37 -178 37 -237 q 52 -109 37 -142 q 96 -47 67 -77 q 169 14 126 -16 l 208 0 q 128 -86 159 -45 q 97 -173 97 -127 q 117 -227 97 -209 q 171 -245 136 -245 q 209 -238 193 -245 q 241 -221 226 -232 l 256 -268 q 214 -290 237 -281 q 161 -298 191 -298 z "},"İ":{"ha":354,"x_min":128,"x_max":225,"o":"m 208 1010 l 208 0 l 146 0 l 146 1010 l 208 1010 m 177 1144 q 143 1158 157 1144 q 128 1192 128 1172 q 143 1225 128 1211 q 177 1239 157 1239 q 211 1225 197 1239 q 225 1192 225 1211 q 211 1158 225 1172 q 177 1144 197 1144 z "},"Ǐ":{"ha":354,"x_min":-18,"x_max":371,"o":"m 208 1010 l 208 0 l 146 0 l 146 1010 l 208 1010 m 44 1307 l 177 1160 l 310 1307 l 372 1307 l 372 1302 l 197 1110 l 157 1110 l -18 1302 l -18 1307 l 44 1307 z "},"Ȉ":{"ha":354,"x_min":-73,"x_max":282,"o":"m 208 1010 l 208 0 l 146 0 l 146 1010 l 208 1010 m 85 1118 l -73 1336 l 2 1336 l 141 1118 l 85 1118 m 227 1118 l 104 1336 l 179 1336 l 282 1118 l 227 1118 z "},"Ȋ":{"ha":354,"x_min":37,"x_max":320,"o":"m 208 1010 l 208 0 l 146 0 l 146 1010 l 208 1010 m 36 1171 q 74 1270 36 1232 q 179 1307 112 1307 q 282 1270 245 1307 q 320 1171 320 1232 l 263 1171 q 242 1234 263 1210 q 179 1258 221 1258 q 114 1234 135 1258 q 94 1171 94 1210 l 36 1171 z "},"Ỉ":{"ha":354,"x_min":135,"x_max":307,"o":"m 208 1010 l 208 0 l 146 0 l 146 1010 l 208 1010 m 204 1109 l 151 1109 l 151 1208 q 228 1226 206 1211 q 250 1275 251 1241 q 220 1332 250 1314 q 135 1350 190 1350 l 140 1396 q 266 1363 224 1396 q 307 1276 307 1330 q 278 1202 308 1229 q 204 1170 248 1175 l 204 1109 z "},"Ị":{"ha":354,"x_min":128,"x_max":225,"o":"m 208 1010 l 208 0 l 146 0 l 146 1010 l 208 1010 m 177 -233 q 143 -219 157 -233 q 128 -186 128 -206 q 143 -153 128 -167 q 177 -139 157 -139 q 211 -153 197 -139 q 225 -186 225 -167 q 211 -219 225 -206 q 177 -233 197 -233 z "},"Ɩ":{"ha":324,"x_min":125,"x_max":320,"o":"m 125 1010 l 185 1010 l 185 147 q 211 66 185 84 q 286 55 237 47 q 299 57 295 56 q 306 59 304 58 l 320 6 q 304 2 315 4 q 283 0 293 0 q 167 23 209 -10 q 125 137 125 57 l 125 1010 z "},"Ι":{"ha":354,"x_min":146,"x_max":208,"o":"m 208 1010 l 208 0 l 146 0 l 146 1010 l 208 1010 z "},"Ί":{"ha":348,"x_min":10,"x_max":201,"o":"m 201 1010 l 201 0 l 140 0 l 140 1010 l 201 1010 m 10 838 l 35 1067 l 103 1067 l 53 838 l 10 838 z "},"Ϊ":{"ha":354,"x_min":19,"x_max":335,"o":"m 208 1010 l 208 0 l 146 0 l 146 1010 l 208 1010 m 67 1144 q 33 1159 47 1144 q 19 1192 19 1173 q 33 1225 19 1211 q 67 1239 47 1239 q 100 1225 86 1239 q 114 1192 114 1211 q 100 1159 114 1173 q 67 1144 86 1144 m 288 1144 q 254 1159 268 1144 q 240 1192 240 1173 q 254 1225 240 1211 q 288 1239 268 1239 q 321 1225 307 1239 q 335 1192 335 1211 q 321 1159 335 1173 q 288 1144 307 1144 z "},"Ἰ":{"ha":535,"x_min":122,"x_max":389,"o":"m 389 1010 l 389 0 l 327 0 l 327 1010 l 389 1010 m 255 1010 l 255 975 q 245 897 255 932 q 213 831 235 862 q 154 769 191 799 l 122 790 q 165 850 149 822 q 187 909 181 878 q 193 979 193 940 l 193 1010 l 255 1010 z "},"Ἱ":{"ha":531,"x_min":146,"x_max":385,"o":"m 385 1010 l 385 0 l 323 0 l 323 1010 l 385 1010 m 147 977 l 147 1013 l 209 1013 l 209 981 q 215 912 209 942 q 237 853 221 881 q 280 793 253 825 l 248 771 q 170 865 193 818 q 147 977 147 913 z "},"Ἲ":{"ha":824,"x_min":128,"x_max":677,"o":"m 677 1010 l 677 0 l 616 0 l 616 1010 l 677 1010 m 474 792 l 474 783 l 438 783 l 292 1001 l 292 1012 l 362 1012 l 474 792 m 261 1012 l 261 976 q 251 898 261 933 q 219 832 241 863 q 160 770 197 801 l 127 791 q 184 880 169 839 q 199 980 199 921 l 199 1012 l 261 1012 z "},"Ἳ":{"ha":765,"x_min":90,"x_max":619,"o":"m 619 1010 l 619 0 l 558 0 l 558 1010 l 619 1010 m 372 793 l 372 784 l 335 784 l 190 1002 l 190 1013 l 260 1013 l 372 793 m 90 977 l 90 1013 l 152 1013 l 152 981 q 167 881 152 922 q 223 793 182 840 l 190 771 q 113 865 136 818 q 90 977 90 913 z "},"Ἴ":{"ha":740,"x_min":105,"x_max":594,"o":"m 594 1010 l 594 0 l 532 0 l 532 1010 l 594 1010 m 250 784 l 250 793 l 362 1013 l 432 1013 l 432 1002 l 286 784 l 250 784 m 238 1013 l 238 977 q 228 900 238 935 q 196 834 218 865 q 138 771 174 802 l 105 793 q 161 881 146 840 q 177 981 177 922 l 177 1013 l 238 1013 z "},"Ἵ":{"ha":767,"x_min":108,"x_max":620,"o":"m 620 1010 l 620 0 l 558 0 l 558 1010 l 620 1010 m 263 784 l 263 793 l 375 1013 l 445 1013 l 445 1002 l 300 784 l 263 784 m 209 771 q 131 865 154 818 q 108 977 108 913 l 108 1013 l 170 1013 l 170 981 q 185 881 170 922 q 242 793 201 840 l 209 771 z "},"Ἶ":{"ha":672,"x_min":109,"x_max":525,"o":"m 525 1010 l 525 0 l 464 0 l 464 1010 l 525 1010 m 421 1146 l 460 1137 q 430 1058 457 1090 q 359 1026 402 1027 q 314 1037 333 1026 q 280 1062 295 1048 q 248 1086 264 1076 q 211 1097 232 1097 q 167 1077 183 1097 q 147 1026 151 1056 l 109 1034 q 139 1113 112 1081 q 212 1146 166 1146 q 256 1135 237 1146 q 290 1110 274 1124 q 321 1085 305 1096 q 358 1075 337 1075 q 401 1095 385 1075 q 421 1146 418 1115 m 312 998 l 312 965 q 298 882 312 925 q 245 797 284 839 l 210 815 q 248 895 239 859 q 256 967 256 930 l 256 998 l 312 998 z "},"Ἷ":{"ha":669,"x_min":109,"x_max":523,"o":"m 523 1010 l 523 0 l 462 0 l 462 1010 l 523 1010 m 258 965 l 258 998 l 313 998 l 313 967 q 325 890 313 925 q 361 815 336 854 l 325 797 q 274 877 291 835 q 258 965 258 920 m 421 1146 l 460 1137 q 430 1058 457 1090 q 359 1026 402 1027 q 314 1037 333 1026 q 280 1062 295 1048 q 248 1086 264 1076 q 211 1097 232 1097 q 167 1077 183 1097 q 147 1026 151 1056 l 109 1034 q 139 1113 112 1081 q 212 1146 166 1146 q 256 1135 237 1146 q 290 1110 274 1124 q 321 1085 305 1096 q 358 1075 337 1075 q 401 1095 385 1075 q 421 1146 418 1115 z "},"Ῐ":{"ha":354,"x_min":36,"x_max":319,"o":"m 208 1010 l 208 0 l 146 0 l 146 1010 l 208 1010 m 262 1263 l 319 1263 q 281 1164 319 1201 q 177 1127 243 1127 q 73 1164 111 1127 q 36 1263 36 1201 l 93 1263 q 113 1200 93 1224 q 177 1176 134 1176 q 241 1200 220 1176 q 262 1263 262 1224 z "},"Ῑ":{"ha":354,"x_min":-5,"x_max":359,"o":"m 208 1010 l 208 0 l 146 0 l 146 1010 l 208 1010 m 359 1218 l 359 1164 l -5 1164 l -5 1218 l 359 1218 z "},"Ὶ":{"ha":613,"x_min":110,"x_max":466,"o":"m 466 1010 l 466 0 l 404 0 l 404 1010 l 466 1010 m 256 779 l 110 998 l 110 1009 l 180 1009 l 292 789 l 292 779 l 256 779 z "},"Ί":{"ha":558,"x_min":183,"x_max":411,"o":"m 411 1010 l 411 0 l 349 0 l 349 1010 l 411 1010 m 182 852 l 182 858 l 291 1083 l 363 1083 l 363 1077 l 221 852 l 182 852 z "},"І":{"ha":354,"x_min":146,"x_max":208,"o":"m 208 1010 l 208 0 l 146 0 l 146 1010 l 208 1010 z "},"Ї":{"ha":354,"x_min":19,"x_max":335,"o":"m 208 1010 l 208 0 l 146 0 l 146 1010 l 208 1010 m 67 1144 q 34 1159 48 1144 q 19 1192 19 1173 q 34 1225 19 1211 q 67 1239 48 1239 q 100 1225 86 1239 q 114 1192 114 1211 q 100 1159 114 1173 q 67 1144 86 1144 m 288 1144 q 254 1159 269 1144 q 240 1192 240 1173 q 254 1225 240 1211 q 288 1239 269 1239 q 321 1225 307 1239 q 335 1192 335 1211 q 321 1159 335 1173 q 288 1144 307 1144 z "},"":{"ha":529,"x_min":79,"x_max":450,"o":"m 79 953 l 79 1010 l 450 1010 l 450 953 l 79 953 m 79 0 l 79 57 l 450 57 l 450 0 l 79 0 m 295 1010 l 295 0 l 233 0 l 233 1010 l 295 1010 z "},"":{"ha":529,"x_min":79,"x_max":450,"o":"m 79 953 l 79 1010 l 450 1010 l 450 953 l 79 953 m 79 0 l 79 57 l 450 57 l 450 0 l 79 0 m 295 1010 l 295 0 l 233 0 l 233 1010 l 295 1010 m 154 1144 q 121 1159 135 1144 q 107 1192 107 1173 q 121 1225 107 1212 q 154 1239 135 1239 q 187 1225 174 1239 q 201 1192 201 1212 q 187 1159 201 1173 q 154 1144 174 1144 m 375 1144 q 342 1159 356 1144 q 327 1192 327 1173 q 342 1225 327 1212 q 375 1239 356 1239 q 408 1225 395 1239 q 422 1192 422 1212 q 408 1159 422 1173 q 375 1144 395 1144 z "},"":{"ha":529,"x_min":79,"x_max":450,"o":"m 79 953 l 79 1010 l 450 1010 l 450 953 l 79 953 m 79 0 l 79 57 l 450 57 l 450 0 l 79 0 m 295 1010 l 295 0 l 233 0 l 233 1010 l 295 1010 m 234 1271 l 359 1405 l 435 1405 l 293 1271 l 234 1271 m 154 1099 q 121 1114 135 1099 q 107 1147 107 1128 q 121 1181 107 1167 q 154 1194 135 1194 q 188 1181 174 1194 q 201 1147 201 1167 q 188 1114 201 1128 q 154 1099 174 1099 m 375 1099 q 342 1114 356 1099 q 327 1147 327 1128 q 342 1181 327 1167 q 375 1194 356 1194 q 409 1181 395 1194 q 422 1147 422 1167 q 409 1114 422 1128 q 375 1099 395 1099 z "},"":{"ha":529,"x_min":67,"x_max":462,"o":"m 79 953 l 79 1010 l 450 1010 l 450 953 l 79 953 m 79 0 l 79 57 l 450 57 l 450 0 l 79 0 m 295 1010 l 295 0 l 233 0 l 233 1010 l 295 1010 m 67 495 l 67 546 l 462 546 l 462 495 l 67 495 z "},"":{"ha":529,"x_min":45,"x_max":509,"o":"m 79 953 l 79 1010 l 450 1010 l 450 953 l 79 953 m 79 0 l 79 57 l 450 57 l 450 0 l 79 0 m 295 1010 l 295 0 l 233 0 l 233 1010 l 295 1010 m 97 -209 l 45 -205 q 89 -114 50 -149 q 182 -78 127 -78 q 238 -90 214 -78 q 282 -116 261 -101 q 323 -142 302 -130 q 371 -153 344 -153 q 428 -132 402 -153 q 459 -77 454 -110 l 509 -85 q 463 -174 502 -141 q 373 -208 424 -208 q 318 -196 340 -208 q 276 -170 295 -185 q 236 -144 257 -156 q 184 -133 215 -133 q 124 -155 149 -133 q 97 -209 100 -177 z "},"":{"ha":529,"x_min":79,"x_max":450,"o":"m 79 953 l 79 1010 l 450 1010 l 450 953 l 79 953 m 79 0 l 79 57 l 450 57 l 450 0 l 79 0 m 295 1010 l 295 0 l 233 0 l 233 1010 l 295 1010 m 238 1118 l 89 1336 l 161 1336 l 293 1118 l 238 1118 z "},"":{"ha":529,"x_min":79,"x_max":450,"o":"m 79 953 l 79 1010 l 450 1010 l 450 953 l 79 953 m 79 0 l 79 57 l 450 57 l 450 0 l 79 0 m 295 1010 l 295 0 l 233 0 l 233 1010 l 295 1010 m 235 1118 l 367 1336 l 439 1336 l 291 1118 l 235 1118 z "},"":{"ha":529,"x_min":70,"x_max":459,"o":"m 79 953 l 79 1010 l 450 1010 l 450 953 l 79 953 m 79 0 l 79 57 l 450 57 l 450 0 l 79 0 m 295 1010 l 295 0 l 233 0 l 233 1010 l 295 1010 m 397 1093 l 264 1240 l 132 1093 l 70 1093 l 70 1098 l 244 1290 l 285 1290 l 459 1098 l 459 1093 l 397 1093 z "},"":{"ha":529,"x_min":32,"x_max":497,"o":"m 79 953 l 79 1010 l 450 1010 l 450 953 l 79 953 m 79 0 l 79 57 l 450 57 l 450 0 l 79 0 m 295 1010 l 295 0 l 233 0 l 233 1010 l 295 1010 m 84 1128 l 33 1132 q 76 1224 37 1189 q 169 1259 114 1259 q 225 1248 201 1259 q 269 1222 249 1236 q 310 1196 289 1207 q 358 1184 331 1184 q 415 1206 390 1184 q 446 1261 441 1227 l 497 1253 q 450 1163 489 1197 q 360 1130 411 1130 q 305 1141 327 1130 q 263 1167 283 1153 q 223 1193 244 1182 q 171 1205 202 1205 q 111 1183 136 1205 q 84 1128 87 1161 z "},"":{"ha":529,"x_min":79,"x_max":450,"o":"m 79 953 l 79 1010 l 450 1010 l 450 953 l 79 953 m 79 0 l 79 57 l 450 57 l 450 0 l 79 0 m 295 1010 l 295 0 l 233 0 l 233 1010 l 295 1010 m 447 1218 l 447 1164 l 82 1164 l 82 1218 l 447 1218 z "},"":{"ha":529,"x_min":79,"x_max":450,"o":"m 79 953 l 79 1010 l 450 1010 l 450 953 l 79 953 m 79 0 l 79 57 l 450 57 l 450 0 l 79 0 m 295 1010 l 295 0 l 233 0 l 233 1010 l 295 1010 m 349 1263 l 406 1263 q 368 1164 406 1201 q 264 1127 330 1127 q 161 1164 199 1127 q 123 1263 123 1201 l 180 1263 q 201 1200 180 1224 q 264 1176 221 1176 q 328 1200 307 1176 q 349 1263 349 1224 z "},"":{"ha":529,"x_min":79,"x_max":499,"o":"m 79 953 l 79 1010 l 450 1010 l 450 953 l 79 953 m 79 0 l 79 57 l 450 57 l 450 0 l 79 0 m 295 1010 l 295 0 l 233 0 l 233 1010 l 295 1010 m 403 -298 q 314 -268 349 -298 q 279 -178 279 -237 q 294 -109 279 -142 q 338 -47 309 -77 q 411 14 368 -16 l 450 0 q 370 -86 401 -45 q 339 -173 339 -127 q 359 -227 339 -209 q 413 -245 378 -245 q 452 -238 435 -245 q 483 -221 468 -232 l 499 -268 q 456 -290 479 -281 q 403 -298 433 -298 z "},"":{"ha":529,"x_min":79,"x_max":450,"o":"m 79 953 l 79 1010 l 450 1010 l 450 953 l 79 953 m 79 0 l 79 57 l 450 57 l 450 0 l 79 0 m 295 1010 l 295 0 l 233 0 l 233 1010 l 295 1010 m 264 1144 q 230 1158 244 1144 q 216 1192 216 1172 q 230 1225 216 1211 q 264 1239 244 1239 q 298 1225 284 1239 q 313 1192 313 1211 q 298 1158 313 1172 q 264 1144 284 1144 z "},"":{"ha":529,"x_min":70,"x_max":459,"o":"m 79 953 l 79 1010 l 450 1010 l 450 953 l 79 953 m 79 0 l 79 57 l 450 57 l 450 0 l 79 0 m 295 1010 l 295 0 l 233 0 l 233 1010 l 295 1010 m 132 1307 l 264 1160 l 397 1307 l 459 1307 l 459 1302 l 285 1110 l 244 1110 l 70 1302 l 70 1307 l 132 1307 z "},"":{"ha":529,"x_min":14,"x_max":450,"o":"m 79 953 l 79 1010 l 450 1010 l 450 953 l 79 953 m 79 0 l 79 57 l 450 57 l 450 0 l 79 0 m 295 1010 l 295 0 l 233 0 l 233 1010 l 295 1010 m 173 1118 l 14 1336 l 90 1336 l 228 1118 l 173 1118 m 315 1118 l 191 1336 l 266 1336 l 369 1118 l 315 1118 z "},"":{"ha":529,"x_min":79,"x_max":450,"o":"m 79 953 l 79 1010 l 450 1010 l 450 953 l 79 953 m 79 0 l 79 57 l 450 57 l 450 0 l 79 0 m 295 1010 l 295 0 l 233 0 l 233 1010 l 295 1010 m 124 1171 q 162 1270 124 1232 q 266 1307 200 1307 q 370 1270 332 1307 q 408 1171 408 1232 l 351 1171 q 330 1234 351 1210 q 266 1258 309 1258 q 202 1234 223 1258 q 182 1171 182 1210 l 124 1171 z "},"":{"ha":529,"x_min":79,"x_max":450,"o":"m 79 953 l 79 1010 l 450 1010 l 450 953 l 79 953 m 79 0 l 79 57 l 450 57 l 450 0 l 79 0 m 295 1010 l 295 0 l 233 0 l 233 1010 l 295 1010 m 291 1109 l 238 1109 l 238 1208 q 315 1226 293 1211 q 337 1275 338 1241 q 307 1332 337 1314 q 222 1350 278 1350 l 227 1396 q 353 1363 312 1396 q 395 1276 394 1330 q 365 1202 395 1229 q 291 1170 335 1175 l 291 1109 z "},"":{"ha":529,"x_min":79,"x_max":450,"o":"m 79 953 l 79 1010 l 450 1010 l 450 953 l 79 953 m 79 0 l 79 57 l 450 57 l 450 0 l 79 0 m 295 1010 l 295 0 l 233 0 l 233 1010 l 295 1010 m 264 -233 q 230 -219 244 -233 q 216 -186 216 -206 q 230 -153 216 -167 q 264 -139 244 -139 q 298 -153 284 -139 q 313 -186 313 -167 q 298 -219 313 -206 q 264 -233 284 -233 z "},"":{"ha":743,"x_min":89,"x_max":664,"o":"m 293 953 l 293 1010 l 664 1010 l 664 953 l 293 953 m 293 0 l 293 57 l 664 57 l 664 0 l 293 0 m 510 1010 l 510 0 l 448 0 l 448 1010 l 510 1010 m 222 1010 l 222 975 q 212 897 222 932 q 180 831 202 862 q 121 769 158 799 l 89 790 q 132 850 116 822 q 154 909 147 878 q 160 979 160 940 l 160 1010 l 222 1010 z "},"":{"ha":740,"x_min":115,"x_max":661,"o":"m 290 953 l 290 1010 l 661 1010 l 661 953 l 290 953 m 290 0 l 290 57 l 661 57 l 661 0 l 290 0 m 507 1010 l 507 0 l 444 0 l 444 1010 l 507 1010 m 115 977 l 115 1013 l 177 1013 l 177 981 q 183 912 177 942 q 205 853 190 881 q 249 793 221 825 l 216 771 q 138 865 161 818 q 115 977 115 913 z "},"":{"ha":1034,"x_min":97,"x_max":955,"o":"m 584 953 l 584 1010 l 955 1010 l 955 953 l 584 953 m 584 0 l 584 57 l 955 57 l 955 0 l 584 0 m 800 1010 l 800 0 l 738 0 l 738 1010 l 800 1010 m 444 792 l 444 783 l 408 783 l 262 1001 l 262 1012 l 332 1012 l 444 792 m 231 1012 l 231 976 q 221 898 231 933 q 189 832 211 863 q 130 770 167 801 l 97 791 q 154 880 139 839 q 169 980 169 921 l 169 1012 l 231 1012 z "},"":{"ha":975,"x_min":57,"x_max":896,"o":"m 525 953 l 525 1010 l 896 1010 l 896 953 l 525 953 m 525 0 l 525 57 l 896 57 l 896 0 l 525 0 m 741 1010 l 741 0 l 679 0 l 679 1010 l 741 1010 m 339 793 l 339 784 l 303 784 l 157 1002 l 157 1013 l 228 1013 l 339 793 m 57 977 l 57 1013 l 119 1013 l 119 981 q 134 881 119 922 q 191 793 149 840 l 158 771 q 80 865 104 818 q 57 977 57 913 z "},"":{"ha":950,"x_min":74,"x_max":872,"o":"m 501 953 l 501 1010 l 872 1010 l 872 953 l 501 953 m 501 0 l 501 57 l 872 57 l 872 0 l 501 0 m 717 1010 l 717 0 l 655 0 l 655 1010 l 717 1010 m 219 784 l 219 793 l 331 1013 l 401 1013 l 401 1002 l 255 784 l 219 784 m 208 1013 l 208 977 q 198 900 208 935 q 166 834 188 865 q 107 771 144 802 l 74 793 q 131 881 115 840 q 146 981 146 922 l 146 1013 l 208 1013 z "},"":{"ha":977,"x_min":77,"x_max":898,"o":"m 527 953 l 527 1010 l 898 1010 l 898 953 l 527 953 m 527 0 l 527 57 l 898 57 l 898 0 l 527 0 m 743 1010 l 743 0 l 681 0 l 681 1010 l 743 1010 m 233 784 l 233 793 l 344 1013 l 415 1013 l 415 1002 l 269 784 l 233 784 m 178 771 q 100 865 123 818 q 77 977 77 913 l 77 1013 l 139 1013 l 139 981 q 155 881 139 922 q 211 793 170 840 l 178 771 z "},"":{"ha":880,"x_min":77,"x_max":801,"o":"m 431 953 l 431 1010 l 801 1010 l 801 953 l 431 953 m 431 0 l 431 57 l 801 57 l 801 0 l 431 0 m 647 1010 l 647 0 l 585 0 l 585 1010 l 647 1010 m 390 1146 l 428 1137 q 398 1058 425 1090 q 327 1026 371 1027 q 283 1037 301 1026 q 248 1062 264 1048 q 217 1086 233 1076 q 179 1097 200 1097 q 135 1077 151 1097 q 116 1026 119 1056 l 77 1034 q 108 1113 80 1081 q 181 1146 135 1146 q 224 1135 206 1146 q 258 1110 243 1124 q 290 1085 274 1096 q 327 1075 306 1075 q 370 1095 354 1075 q 390 1146 386 1115 m 280 998 l 280 965 q 266 882 280 925 q 213 797 253 839 l 179 815 q 216 895 208 859 q 225 967 225 930 l 225 998 l 280 998 z "},"":{"ha":877,"x_min":77,"x_max":799,"o":"m 428 953 l 428 1010 l 799 1010 l 799 953 l 428 953 m 428 0 l 428 57 l 799 57 l 799 0 l 428 0 m 644 1010 l 644 0 l 582 0 l 582 1010 l 644 1010 m 226 965 l 226 998 l 282 998 l 282 967 q 293 890 282 925 q 329 815 305 854 l 293 797 q 243 877 259 835 q 226 965 226 920 m 390 1146 l 428 1137 q 398 1058 425 1090 q 327 1026 371 1027 q 283 1037 301 1026 q 248 1062 264 1048 q 217 1086 233 1076 q 179 1097 200 1097 q 135 1077 151 1097 q 116 1026 119 1056 l 77 1034 q 108 1113 80 1081 q 181 1146 135 1146 q 224 1135 206 1146 q 258 1110 243 1124 q 290 1085 274 1096 q 327 1075 306 1075 q 370 1095 354 1075 q 390 1146 386 1115 z "},"":{"ha":529,"x_min":79,"x_max":450,"o":"m 79 953 l 79 1010 l 450 1010 l 450 953 l 79 953 m 79 0 l 79 57 l 450 57 l 450 0 l 79 0 m 295 1010 l 295 0 l 233 0 l 233 1010 l 295 1010 m 349 1263 l 406 1263 q 368 1164 406 1201 q 264 1127 330 1127 q 161 1164 199 1127 q 123 1263 123 1201 l 180 1263 q 201 1200 180 1224 q 264 1176 221 1176 q 328 1200 307 1176 q 349 1263 349 1224 z "},"":{"ha":529,"x_min":79,"x_max":450,"o":"m 79 953 l 79 1010 l 450 1010 l 450 953 l 79 953 m 79 0 l 79 57 l 450 57 l 450 0 l 79 0 m 295 1010 l 295 0 l 233 0 l 233 1010 l 295 1010 m 447 1218 l 447 1164 l 82 1164 l 82 1218 l 447 1218 z "},"":{"ha":823,"x_min":145,"x_max":744,"o":"m 373 953 l 373 1010 l 744 1010 l 744 953 l 373 953 m 373 0 l 373 57 l 744 57 l 744 0 l 373 0 m 589 1010 l 589 0 l 527 0 l 527 1010 l 589 1010 m 290 779 l 145 998 l 145 1009 l 214 1009 l 327 789 l 327 779 l 290 779 z "},"":{"ha":767,"x_min":151,"x_max":689,"o":"m 318 953 l 318 1010 l 689 1010 l 689 953 l 318 953 m 318 0 l 318 57 l 689 57 l 689 0 l 318 0 m 534 1010 l 534 0 l 472 0 l 472 1010 l 534 1010 m 151 852 l 151 858 l 259 1083 l 332 1083 l 332 1077 l 190 852 l 151 852 z "},"":{"ha":529,"x_min":79,"x_max":450,"o":"m 79 953 l 79 1010 l 450 1010 l 450 953 l 79 953 m 79 0 l 79 57 l 450 57 l 450 0 l 79 0 m 295 1010 l 295 0 l 233 0 l 233 1010 l 295 1010 z "},"":{"ha":529,"x_min":79,"x_max":450,"o":"m 79 953 l 79 1010 l 450 1010 l 450 953 l 79 953 m 79 0 l 79 57 l 450 57 l 450 0 l 79 0 m 295 1010 l 295 0 l 233 0 l 233 1010 l 295 1010 m 154 1144 q 121 1159 135 1144 q 107 1192 107 1173 q 121 1225 107 1211 q 154 1239 135 1239 q 187 1225 174 1239 q 201 1192 201 1211 q 187 1159 201 1173 q 154 1144 174 1144 m 375 1144 q 342 1159 356 1144 q 327 1192 327 1173 q 342 1225 327 1211 q 375 1239 356 1239 q 408 1225 395 1239 q 422 1192 422 1211 q 408 1159 422 1173 q 375 1144 395 1144 z "},"J":{"ha":732,"x_min":69,"x_max":586,"o":"m 525 1010 l 586 1010 l 586 275 q 552 110 586 174 q 458 17 517 47 q 327 -14 400 -14 q 195 14 254 -14 q 103 91 137 42 q 69 205 69 141 l 130 205 q 156 122 130 158 q 226 64 182 85 q 327 43 271 43 q 427 67 382 43 q 498 141 472 90 q 525 275 524 191 l 525 1010 z "},"Ĵ":{"ha":732,"x_min":69,"x_max":750,"o":"m 525 1010 l 586 1010 l 586 275 q 552 110 586 174 q 458 17 517 47 q 327 -14 400 -14 q 195 14 254 -14 q 103 91 137 42 q 69 205 69 141 l 130 205 q 156 122 130 158 q 226 64 182 85 q 327 43 271 43 q 427 67 382 43 q 498 141 472 90 q 525 275 524 191 l 525 1010 m 689 1093 l 556 1240 l 423 1093 l 361 1093 l 361 1098 l 536 1290 l 576 1290 l 751 1098 l 751 1093 l 689 1093 z "},"Ɉ":{"ha":732,"x_min":69,"x_max":753,"o":"m 525 1010 l 586 1010 l 586 275 q 552 110 586 174 q 458 17 517 47 q 327 -14 400 -14 q 195 14 254 -14 q 103 91 137 42 q 69 205 69 141 l 130 205 q 156 122 130 158 q 226 64 182 85 q 327 43 271 43 q 427 67 382 43 q 498 141 472 90 q 525 275 524 191 l 525 1010 m 359 574 l 359 625 l 753 625 l 753 574 l 359 574 z "},"Ϳ":{"ha":732,"x_min":69,"x_max":586,"o":"m 525 1010 l 586 1010 l 586 275 q 552 110 586 174 q 458 17 517 47 q 327 -14 400 -14 q 195 14 254 -14 q 103 91 137 42 q 69 205 69 141 l 130 205 q 156 122 130 158 q 226 64 182 85 q 327 43 271 43 q 427 67 382 43 q 498 141 472 90 q 525 275 524 191 l 525 1010 z "},"Ј":{"ha":732,"x_min":69,"x_max":586,"o":"m 525 1010 l 586 1010 l 586 275 q 552 110 586 174 q 458 17 517 47 q 327 -14 400 -14 q 195 14 254 -14 q 103 91 137 42 q 69 205 69 141 l 130 205 q 156 122 130 158 q 226 64 182 85 q 327 43 271 43 q 427 67 382 43 q 498 141 472 90 q 525 275 524 191 l 525 1010 z "},"K":{"ha":872,"x_min":146,"x_max":829,"o":"m 146 0 l 146 1010 l 208 1010 l 208 424 l 215 424 l 747 1010 l 829 1010 l 391 532 l 825 0 l 748 0 l 351 488 l 208 329 l 208 0 l 146 0 z "},"Ķ":{"ha":872,"x_min":146,"x_max":829,"o":"m 146 0 l 146 1010 l 208 1010 l 208 424 l 215 424 l 747 1010 l 829 1010 l 391 532 l 825 0 l 748 0 l 351 488 l 208 329 l 208 0 l 146 0 m 344 -335 l 405 -80 l 468 -80 l 391 -335 l 344 -335 z "},"Ǩ":{"ha":872,"x_min":146,"x_max":829,"o":"m 146 0 l 146 1010 l 208 1010 l 208 424 l 215 424 l 747 1010 l 829 1010 l 391 532 l 825 0 l 748 0 l 351 488 l 208 329 l 208 0 l 146 0 m 308 1307 l 440 1160 l 573 1307 l 635 1307 l 635 1302 l 461 1110 l 420 1110 l 246 1302 l 246 1307 l 308 1307 z "},"Ḱ":{"ha":872,"x_min":146,"x_max":829,"o":"m 146 0 l 146 1010 l 208 1010 l 208 424 l 215 424 l 747 1010 l 829 1010 l 391 532 l 825 0 l 748 0 l 351 488 l 208 329 l 208 0 l 146 0 m 412 1118 l 544 1336 l 616 1336 l 467 1118 l 412 1118 z "},"Ḳ":{"ha":872,"x_min":146,"x_max":829,"o":"m 146 0 l 146 1010 l 208 1010 l 208 424 l 215 424 l 747 1010 l 829 1010 l 391 532 l 825 0 l 748 0 l 351 488 l 208 329 l 208 0 l 146 0 m 438 -233 q 403 -219 418 -233 q 389 -186 389 -206 q 403 -153 389 -167 q 438 -139 418 -139 q 472 -153 458 -139 q 486 -186 486 -167 q 472 -219 486 -206 q 438 -233 458 -233 z "},"Ḵ":{"ha":872,"x_min":146,"x_max":829,"o":"m 146 0 l 146 1010 l 208 1010 l 208 424 l 215 424 l 747 1010 l 829 1010 l 391 532 l 825 0 l 748 0 l 351 488 l 208 329 l 208 0 l 146 0 m 620 -136 l 620 -190 l 256 -190 l 256 -136 l 620 -136 z "},"Ҡ":{"ha":941,"x_min":5,"x_max":920,"o":"m 846 0 l 497 489 l 330 489 l 330 0 l 268 0 l 268 953 l 5 953 l 5 1010 l 330 1010 l 330 546 l 460 546 l 799 1010 l 873 1010 l 533 544 l 920 0 l 846 0 z "},"Қ":{"ha":871,"x_min":146,"x_max":807,"o":"m 724 0 l 375 489 l 208 489 l 208 0 l 146 0 l 146 1010 l 208 1010 l 208 546 l 337 546 l 677 1010 l 751 1010 l 410 544 l 798 0 l 724 0 m 808 86 l 808 -218 l 748 -218 l 748 86 l 808 86 z "},"Ƙ":{"ha":917,"x_min":146,"x_max":906,"o":"m 146 0 l 146 1010 l 208 1010 l 208 424 l 215 424 l 700 959 q 767 1007 729 993 q 841 1015 804 1020 q 906 984 877 1009 l 874 940 q 808 958 841 963 q 742 915 775 952 l 391 532 l 858 0 l 780 0 l 351 488 l 208 329 l 208 0 l 146 0 z "},"Κ":{"ha":872,"x_min":146,"x_max":829,"o":"m 146 0 l 146 1010 l 208 1010 l 208 424 l 215 424 l 747 1010 l 829 1010 l 391 532 l 825 0 l 748 0 l 351 488 l 208 329 l 208 0 l 146 0 z "},"L":{"ha":781,"x_min":146,"x_max":701,"o":"m 146 0 l 146 1010 l 208 1010 l 208 57 l 701 57 l 701 0 l 146 0 z "},"Ĺ":{"ha":781,"x_min":146,"x_max":701,"o":"m 146 0 l 146 1010 l 208 1010 l 208 57 l 701 57 l 701 0 l 146 0 m 148 1118 l 280 1336 l 352 1336 l 203 1118 l 148 1118 z "},"Ļ":{"ha":781,"x_min":146,"x_max":701,"o":"m 146 0 l 146 1010 l 208 1010 l 208 57 l 701 57 l 701 0 l 146 0 m 329 -335 l 391 -80 l 454 -80 l 377 -335 l 329 -335 z "},"Ľ":{"ha":777,"x_min":146,"x_max":701,"o":"m 146 0 l 146 1010 l 208 1010 l 208 57 l 701 57 l 701 0 l 146 0 m 407 802 l 407 1057 l 471 1057 l 453 802 l 407 802 z "},"Ḷ":{"ha":781,"x_min":146,"x_max":701,"o":"m 146 0 l 146 1010 l 208 1010 l 208 57 l 701 57 l 701 0 l 146 0 m 424 -233 q 389 -219 403 -233 q 375 -186 375 -206 q 389 -153 375 -167 q 424 -139 403 -139 q 458 -153 443 -139 q 472 -186 472 -167 q 458 -219 472 -206 q 424 -233 443 -233 z "},"Ḹ":{"ha":781,"x_min":-5,"x_max":701,"o":"m 146 0 l 146 1010 l 208 1010 l 208 57 l 701 57 l 701 0 l 146 0 m 424 -233 q 389 -219 403 -233 q 375 -186 375 -206 q 389 -153 375 -167 q 424 -139 403 -139 q 458 -153 443 -139 q 472 -186 472 -167 q 458 -219 472 -206 q 424 -233 443 -233 m 359 1218 l 359 1164 l -5 1164 l -5 1218 l 359 1218 z "},"Ḻ":{"ha":781,"x_min":146,"x_max":701,"o":"m 146 0 l 146 1010 l 208 1010 l 208 57 l 701 57 l 701 0 l 146 0 m 606 -136 l 606 -190 l 242 -190 l 242 -136 l 606 -136 z "},"Ḽ":{"ha":781,"x_min":146,"x_max":701,"o":"m 146 0 l 146 1010 l 208 1010 l 208 57 l 701 57 l 701 0 l 146 0 m 556 -271 l 424 -124 l 291 -271 l 229 -271 l 229 -266 l 403 -73 l 444 -73 l 618 -266 l 618 -271 l 556 -271 z "},"Ł":{"ha":760,"x_min":10,"x_max":672,"o":"m 372 600 l 372 548 l 10 422 l 10 475 l 372 600 m 117 0 l 117 1010 l 179 1010 l 179 57 l 672 57 l 672 0 l 117 0 z "},"Ƚ":{"ha":781,"x_min":-20,"x_max":701,"o":"m 146 0 l 146 1010 l 208 1010 l 208 57 l 701 57 l 701 0 l 146 0 m -20 495 l -20 546 l 374 546 l 374 495 l -20 495 z "},"ǈ":{"ha":1096,"x_min":146,"x_max":987,"o":"m 146 0 l 146 1010 l 208 1010 l 208 57 l 701 57 l 701 0 l 146 0 m 909 758 l 969 758 l 969 -92 q 945 -194 969 -151 q 878 -261 920 -237 q 781 -284 836 -284 q 772 -284 777 -284 q 762 -283 768 -284 l 765 -227 q 772 -227 769 -227 q 780 -227 776 -227 q 872 -191 835 -227 q 909 -92 909 -155 l 909 758 m 939 892 q 904 906 918 892 q 890 939 890 919 q 904 973 890 959 q 939 986 918 986 q 973 973 958 986 q 987 939 987 959 q 973 906 987 919 q 939 892 958 892 z "},"M":{"ha":1211,"x_min":146,"x_max":1065,"o":"m 146 1010 l 213 1010 l 602 89 l 609 89 l 998 1010 l 1065 1010 l 1065 0 l 1006 0 l 1006 864 l 1000 864 l 635 0 l 577 0 l 211 864 l 205 864 l 205 0 l 146 0 l 146 1010 z "},"Ḿ":{"ha":1211,"x_min":146,"x_max":1065,"o":"m 146 1010 l 213 1010 l 602 89 l 609 89 l 998 1010 l 1065 1010 l 1065 0 l 1006 0 l 1006 864 l 1000 864 l 635 0 l 577 0 l 211 864 l 205 864 l 205 0 l 146 0 l 146 1010 m 577 1118 l 709 1336 l 780 1336 l 632 1118 l 577 1118 z "},"Ṁ":{"ha":1211,"x_min":146,"x_max":1065,"o":"m 146 1010 l 213 1010 l 602 89 l 609 89 l 998 1010 l 1065 1010 l 1065 0 l 1006 0 l 1006 864 l 1000 864 l 635 0 l 577 0 l 211 864 l 205 864 l 205 0 l 146 0 l 146 1010 m 606 1144 q 571 1158 585 1144 q 557 1192 557 1172 q 571 1225 557 1211 q 606 1239 585 1239 q 640 1225 625 1239 q 654 1192 654 1211 q 640 1158 654 1172 q 606 1144 625 1144 z "},"Ṃ":{"ha":1211,"x_min":146,"x_max":1065,"o":"m 146 1010 l 213 1010 l 602 89 l 609 89 l 998 1010 l 1065 1010 l 1065 0 l 1006 0 l 1006 864 l 1000 864 l 635 0 l 577 0 l 211 864 l 205 864 l 205 0 l 146 0 l 146 1010 m 606 -233 q 571 -219 585 -233 q 557 -186 557 -206 q 571 -153 557 -167 q 606 -139 585 -139 q 640 -153 625 -139 q 654 -186 654 -167 q 640 -219 654 -206 q 606 -233 625 -233 z "},"Ӎ":{"ha":1211,"x_min":146,"x_max":1125,"o":"m 146 1010 l 213 1010 l 602 89 l 609 89 l 998 1010 l 1065 1010 l 1065 0 l 1006 0 l 1006 864 l 1000 864 l 635 0 l 577 0 l 211 864 l 205 864 l 205 0 l 146 0 l 146 1010 m 1125 44 l 1125 -17 q 1119 -85 1125 -52 q 1101 -151 1113 -118 q 1074 -216 1090 -183 l 1022 -202 q 1044 -140 1035 -170 q 1060 -79 1054 -109 q 1065 -18 1065 -49 l 1065 44 l 1125 44 z "},"Μ":{"ha":1211,"x_min":146,"x_max":1065,"o":"m 146 1010 l 213 1010 l 602 89 l 609 89 l 998 1010 l 1065 1010 l 1065 0 l 1006 0 l 1006 864 l 1000 864 l 635 0 l 577 0 l 211 864 l 205 864 l 205 0 l 146 0 l 146 1010 z "},"Ϻ":{"ha":1211,"x_min":146,"x_max":1065,"o":"m 146 1010 l 213 1010 l 602 89 l 609 89 l 998 1010 l 1065 1010 l 1065 0 l 1006 0 l 1006 864 l 1000 864 l 635 0 l 577 0 l 211 864 l 205 864 l 205 0 l 146 0 l 146 1010 z "},"М":{"ha":1211,"x_min":146,"x_max":1065,"o":"m 146 1010 l 213 1010 l 602 89 l 609 89 l 998 1010 l 1065 1010 l 1065 0 l 1006 0 l 1006 864 l 1000 864 l 635 0 l 577 0 l 211 864 l 205 864 l 205 0 l 146 0 l 146 1010 z "},"N":{"ha":1064,"x_min":146,"x_max":918,"o":"m 918 1010 l 918 0 l 858 0 l 214 898 l 208 898 l 208 0 l 146 0 l 146 1010 l 207 1010 l 851 111 l 857 111 l 857 1010 l 918 1010 z "},"Ñ":{"ha":1064,"x_min":146,"x_max":918,"o":"m 918 1010 l 918 0 l 858 0 l 214 898 l 208 898 l 208 0 l 146 0 l 146 1010 l 207 1010 l 851 111 l 857 111 l 857 1010 l 918 1010 m 351 1128 l 300 1132 q 343 1224 304 1189 q 436 1259 382 1259 q 492 1248 469 1259 q 536 1222 516 1236 q 577 1196 556 1207 q 625 1184 598 1184 q 683 1206 657 1184 q 713 1261 708 1227 l 764 1253 q 717 1163 757 1197 q 627 1130 678 1130 q 572 1141 595 1130 q 531 1167 550 1153 q 490 1193 511 1182 q 438 1205 469 1205 q 379 1183 403 1205 q 351 1128 354 1161 z "},"Ń":{"ha":1064,"x_min":146,"x_max":918,"o":"m 918 1010 l 918 0 l 858 0 l 214 898 l 208 898 l 208 0 l 146 0 l 146 1010 l 207 1010 l 851 111 l 857 111 l 857 1010 l 918 1010 m 503 1118 l 635 1336 l 707 1336 l 558 1118 l 503 1118 z "},"Ņ":{"ha":1064,"x_min":146,"x_max":918,"o":"m 918 1010 l 918 0 l 858 0 l 214 898 l 208 898 l 208 0 l 146 0 l 146 1010 l 207 1010 l 851 111 l 857 111 l 857 1010 l 918 1010 m 438 -335 l 500 -80 l 562 -80 l 485 -335 l 438 -335 z "},"Ň":{"ha":1064,"x_min":146,"x_max":918,"o":"m 918 1010 l 918 0 l 858 0 l 214 898 l 208 898 l 208 0 l 146 0 l 146 1010 l 207 1010 l 851 111 l 857 111 l 857 1010 l 918 1010 m 400 1307 l 532 1160 l 665 1307 l 727 1307 l 727 1302 l 552 1110 l 512 1110 l 337 1302 l 337 1307 l 400 1307 z "},"Ǹ":{"ha":1064,"x_min":146,"x_max":918,"o":"m 918 1010 l 918 0 l 858 0 l 214 898 l 208 898 l 208 0 l 146 0 l 146 1010 l 207 1010 l 851 111 l 857 111 l 857 1010 l 918 1010 m 506 1118 l 357 1336 l 429 1336 l 561 1118 l 506 1118 z "},"Ṅ":{"ha":1064,"x_min":146,"x_max":918,"o":"m 918 1010 l 918 0 l 858 0 l 214 898 l 208 898 l 208 0 l 146 0 l 146 1010 l 207 1010 l 851 111 l 857 111 l 857 1010 l 918 1010 m 532 1144 q 498 1158 512 1144 q 483 1192 483 1172 q 498 1225 483 1211 q 532 1239 512 1239 q 566 1225 552 1239 q 581 1192 581 1211 q 566 1158 581 1172 q 532 1144 552 1144 z "},"Ṇ":{"ha":1064,"x_min":146,"x_max":918,"o":"m 918 1010 l 918 0 l 858 0 l 214 898 l 208 898 l 208 0 l 146 0 l 146 1010 l 207 1010 l 851 111 l 857 111 l 857 1010 l 918 1010 m 532 -233 q 498 -219 512 -233 q 483 -186 483 -206 q 498 -153 483 -167 q 532 -139 512 -139 q 566 -153 552 -139 q 581 -186 581 -167 q 566 -219 581 -206 q 532 -233 552 -233 z "},"Ṉ":{"ha":1064,"x_min":146,"x_max":918,"o":"m 918 1010 l 918 0 l 858 0 l 214 898 l 208 898 l 208 0 l 146 0 l 146 1010 l 207 1010 l 851 111 l 857 111 l 857 1010 l 918 1010 m 714 -136 l 714 -190 l 350 -190 l 350 -136 l 714 -136 z "},"Ṋ":{"ha":1064,"x_min":146,"x_max":918,"o":"m 918 1010 l 918 0 l 858 0 l 214 898 l 208 898 l 208 0 l 146 0 l 146 1010 l 207 1010 l 851 111 l 857 111 l 857 1010 l 918 1010 m 665 -271 l 532 -124 l 400 -271 l 337 -271 l 337 -266 l 512 -73 l 552 -73 l 727 -266 l 727 -271 l 665 -271 z "},"Ɲ":{"ha":1045,"x_min":-16,"x_max":899,"o":"m 127 0 l 189 0 l 189 -103 q 178 -180 189 -146 q 146 -236 167 -214 q 96 -271 125 -259 q 32 -283 68 -283 q 6 -282 19 -283 q -16 -278 -7 -281 l -16 -223 q 0 -226 -9 -225 q 20 -227 10 -227 q 99 -198 72 -227 q 127 -103 127 -168 l 127 0 m 899 1010 l 899 0 l 838 0 l 195 898 l 189 898 l 189 0 l 127 0 l 127 1010 l 187 1010 l 832 111 l 838 111 l 838 1010 l 899 1010 z "},"Ŋ":{"ha":1064,"x_min":146,"x_max":918,"o":"m 858 0 l 918 0 l 918 -103 q 898 -201 918 -161 q 844 -262 879 -241 q 762 -283 809 -283 q 735 -282 748 -283 q 714 -278 723 -281 l 714 -223 q 730 -226 721 -225 q 750 -227 739 -227 q 829 -198 801 -227 q 858 -103 858 -168 l 858 0 m 918 1010 l 918 0 l 858 0 l 214 898 l 208 898 l 208 0 l 146 0 l 146 1010 l 207 1010 l 851 111 l 857 111 l 857 1010 l 918 1010 z "},"И":{"ha":1064,"x_min":146,"x_max":918,"o":"m 146 1010 l 207 1010 l 207 111 l 213 111 l 858 1010 l 918 1010 l 918 0 l 856 0 l 856 898 l 850 898 l 207 0 l 146 0 l 146 1010 z "},"Ѝ":{"ha":1064,"x_min":146,"x_max":918,"o":"m 146 1010 l 207 1010 l 207 111 l 213 111 l 858 1010 l 918 1010 l 918 0 l 856 0 l 856 898 l 850 898 l 207 0 l 146 0 l 146 1010 m 506 1118 l 357 1336 l 429 1336 l 561 1118 l 506 1118 z "},"Й":{"ha":1064,"x_min":146,"x_max":918,"o":"m 146 1010 l 207 1010 l 207 111 l 213 111 l 858 1010 l 918 1010 l 918 0 l 856 0 l 856 898 l 850 898 l 207 0 l 146 0 l 146 1010 m 617 1263 l 674 1263 q 636 1164 674 1201 q 532 1127 598 1127 q 429 1164 467 1127 q 391 1263 391 1201 l 448 1263 q 469 1200 448 1224 q 532 1176 489 1176 q 596 1200 575 1176 q 617 1263 617 1224 z "},"Ӣ":{"ha":1064,"x_min":146,"x_max":918,"o":"m 146 1010 l 207 1010 l 207 111 l 213 111 l 858 1010 l 918 1010 l 918 0 l 856 0 l 856 898 l 850 898 l 207 0 l 146 0 l 146 1010 m 714 1218 l 714 1164 l 350 1164 l 350 1218 l 714 1218 z "},"Ӥ":{"ha":1064,"x_min":146,"x_max":918,"o":"m 146 1010 l 207 1010 l 207 111 l 213 111 l 858 1010 l 918 1010 l 918 0 l 856 0 l 856 898 l 850 898 l 207 0 l 146 0 l 146 1010 m 422 1144 q 389 1159 403 1144 q 374 1192 374 1173 q 389 1225 374 1212 q 422 1239 403 1239 q 455 1225 441 1239 q 469 1192 469 1212 q 455 1159 469 1173 q 422 1144 441 1144 m 643 1144 q 610 1159 624 1144 q 595 1192 595 1173 q 610 1225 595 1212 q 643 1239 624 1239 q 676 1225 662 1239 q 690 1192 690 1212 q 676 1159 690 1173 q 643 1144 662 1144 z "},"Ҋ":{"ha":1064,"x_min":146,"x_max":978,"o":"m 146 1010 l 207 1010 l 207 111 l 213 111 l 858 1010 l 918 1010 l 918 0 l 856 0 l 856 898 l 850 898 l 207 0 l 146 0 l 146 1010 m 617 1263 l 674 1263 q 636 1164 674 1201 q 532 1127 598 1127 q 429 1164 467 1127 q 391 1263 391 1201 l 448 1263 q 469 1200 448 1224 q 532 1176 489 1176 q 596 1200 575 1176 q 617 1263 617 1224 m 978 44 l 978 -17 q 972 -85 978 -52 q 954 -151 966 -118 q 927 -216 943 -183 l 875 -202 q 897 -140 888 -170 q 913 -79 907 -109 q 918 -18 918 -49 l 918 44 l 978 44 z "},"Ͷ":{"ha":1025,"x_min":128,"x_max":900,"o":"m 128 1010 l 189 1010 l 189 111 l 195 111 l 839 1010 l 900 1010 l 900 0 l 838 0 l 838 898 l 832 898 l 188 0 l 128 0 l 128 1010 z "},"Ν":{"ha":1064,"x_min":146,"x_max":918,"o":"m 918 1010 l 918 0 l 858 0 l 214 898 l 208 898 l 208 0 l 146 0 l 146 1010 l 207 1010 l 851 111 l 857 111 l 857 1010 l 918 1010 z "},"ǋ":{"ha":1369,"x_min":146,"x_max":1259,"o":"m 918 1010 l 918 0 l 858 0 l 214 898 l 208 898 l 208 0 l 146 0 l 146 1010 l 207 1010 l 851 111 l 857 111 l 857 1010 l 918 1010 m 1181 758 l 1241 758 l 1241 -92 q 1217 -194 1241 -151 q 1150 -261 1193 -237 q 1053 -284 1108 -284 q 1045 -284 1049 -284 q 1034 -283 1040 -284 l 1037 -227 q 1045 -227 1041 -227 q 1052 -227 1048 -227 q 1144 -191 1107 -227 q 1181 -92 1181 -155 l 1181 758 m 1211 892 q 1176 906 1191 892 q 1162 939 1162 919 q 1176 973 1162 959 q 1211 986 1191 986 q 1245 973 1231 986 q 1259 939 1259 959 q 1245 906 1259 919 q 1211 892 1231 892 z "},"O":{"ha":1044,"x_min":95,"x_max":949,"o":"m 949 505 q 895 232 949 349 q 745 51 841 115 q 522 -14 648 -14 q 300 51 396 -14 q 149 233 203 116 q 95 505 95 349 q 149 778 95 661 q 300 959 204 894 q 522 1024 396 1024 q 745 959 648 1024 q 895 778 841 895 q 949 505 949 661 m 889 505 q 842 749 889 646 q 712 908 795 852 q 522 965 629 965 q 332 909 415 965 q 202 749 250 853 q 155 505 155 646 q 202 262 155 365 q 331 102 249 159 q 522 45 414 45 q 712 102 629 45 q 842 261 795 158 q 889 505 889 364 z "},"Ö":{"ha":1044,"x_min":95,"x_max":949,"o":"m 949 505 q 895 232 949 349 q 745 51 841 115 q 522 -14 648 -14 q 300 51 396 -14 q 149 233 203 116 q 95 505 95 349 q 149 778 95 661 q 300 959 204 894 q 522 1024 396 1024 q 745 959 648 1024 q 895 778 841 895 q 949 505 949 661 m 889 505 q 842 749 889 646 q 712 908 795 852 q 522 965 629 965 q 332 909 415 965 q 202 749 250 853 q 155 505 155 646 q 202 262 155 365 q 331 102 249 159 q 522 45 414 45 q 712 102 629 45 q 842 261 795 158 q 889 505 889 364 m 412 1144 q 379 1159 393 1144 q 364 1192 364 1173 q 379 1225 364 1211 q 412 1239 393 1239 q 445 1225 432 1239 q 459 1192 459 1211 q 445 1159 459 1173 q 412 1144 432 1144 m 633 1144 q 600 1159 614 1144 q 585 1192 585 1173 q 600 1225 585 1211 q 633 1239 614 1239 q 666 1225 653 1239 q 680 1192 680 1211 q 666 1159 680 1173 q 633 1144 653 1144 z "},"Õ":{"ha":1044,"x_min":95,"x_max":949,"o":"m 949 505 q 895 232 949 349 q 745 51 841 115 q 522 -14 648 -14 q 300 51 396 -14 q 149 233 203 116 q 95 505 95 349 q 149 778 95 661 q 300 959 204 894 q 522 1024 396 1024 q 745 959 648 1024 q 895 778 841 895 q 949 505 949 661 m 889 505 q 842 749 889 646 q 712 908 795 852 q 522 965 629 965 q 332 909 415 965 q 202 749 250 853 q 155 505 155 646 q 202 262 155 365 q 331 102 249 159 q 522 45 414 45 q 712 102 629 45 q 842 261 795 158 q 889 505 889 364 m 342 1141 l 291 1145 q 334 1236 295 1201 q 428 1272 373 1272 q 483 1260 460 1272 q 527 1234 507 1249 q 568 1208 547 1220 q 617 1197 589 1197 q 674 1218 648 1197 q 704 1273 699 1240 l 755 1265 q 709 1176 748 1210 q 618 1142 669 1142 q 563 1154 586 1142 q 522 1180 541 1165 q 481 1206 503 1195 q 430 1217 460 1217 q 370 1196 395 1217 q 342 1141 345 1174 z "},"Ø":{"ha":1044,"x_min":95,"x_max":949,"o":"m 199 -30 l 156 0 l 844 1039 l 886 1010 l 199 -30 m 949 505 q 895 232 949 349 q 745 51 841 115 q 522 -14 648 -14 q 300 51 396 -14 q 149 233 203 116 q 95 505 95 349 q 149 778 95 661 q 300 959 204 894 q 522 1024 396 1024 q 745 959 648 1024 q 895 778 841 895 q 949 505 949 661 m 889 505 q 842 749 889 646 q 712 908 795 852 q 522 965 629 965 q 332 909 415 965 q 202 749 250 853 q 155 505 155 646 q 202 262 155 365 q 331 102 249 159 q 522 45 414 45 q 712 102 629 45 q 842 261 795 158 q 889 505 889 364 z "},"Ơ":{"ha":1039,"x_min":95,"x_max":991,"o":"m 931 1086 l 991 1086 q 943 923 991 979 q 791 854 895 867 l 791 907 q 900 962 869 920 q 931 1086 931 1003 m 949 505 q 895 232 949 349 q 745 51 841 115 q 522 -14 648 -14 q 300 51 396 -14 q 149 233 203 116 q 95 505 95 349 q 149 778 95 661 q 300 959 204 894 q 522 1024 396 1024 q 745 959 648 1024 q 895 778 841 895 q 949 505 949 661 m 889 505 q 842 749 889 646 q 712 908 795 852 q 522 965 629 965 q 332 909 415 965 q 202 749 250 853 q 155 505 155 646 q 202 262 155 365 q 331 102 249 159 q 522 45 414 45 q 712 102 629 45 q 842 261 795 158 q 889 505 889 364 z "},"Ò":{"ha":1044,"x_min":95,"x_max":949,"o":"m 949 505 q 895 232 949 349 q 745 51 841 115 q 522 -14 648 -14 q 300 51 396 -14 q 149 233 203 116 q 95 505 95 349 q 149 778 95 661 q 300 959 204 894 q 522 1024 396 1024 q 745 959 648 1024 q 895 778 841 895 q 949 505 949 661 m 889 505 q 842 749 889 646 q 712 908 795 852 q 522 965 629 965 q 332 909 415 965 q 202 749 250 853 q 155 505 155 646 q 202 262 155 365 q 331 102 249 159 q 522 45 414 45 q 712 102 629 45 q 842 261 795 158 q 889 505 889 364 m 496 1118 l 347 1336 l 419 1336 l 551 1118 l 496 1118 z "},"Ó":{"ha":1044,"x_min":95,"x_max":949,"o":"m 949 505 q 895 232 949 349 q 745 51 841 115 q 522 -14 648 -14 q 300 51 396 -14 q 149 233 203 116 q 95 505 95 349 q 149 778 95 661 q 300 959 204 894 q 522 1024 396 1024 q 745 959 648 1024 q 895 778 841 895 q 949 505 949 661 m 889 505 q 842 749 889 646 q 712 908 795 852 q 522 965 629 965 q 332 909 415 965 q 202 749 250 853 q 155 505 155 646 q 202 262 155 365 q 331 102 249 159 q 522 45 414 45 q 712 102 629 45 q 842 261 795 158 q 889 505 889 364 m 493 1118 l 625 1336 l 697 1336 l 548 1118 l 493 1118 z "},"Ô":{"ha":1044,"x_min":95,"x_max":949,"o":"m 949 505 q 895 232 949 349 q 745 51 841 115 q 522 -14 648 -14 q 300 51 396 -14 q 149 233 203 116 q 95 505 95 349 q 149 778 95 661 q 300 959 204 894 q 522 1024 396 1024 q 745 959 648 1024 q 895 778 841 895 q 949 505 949 661 m 889 505 q 842 749 889 646 q 712 908 795 852 q 522 965 629 965 q 332 909 415 965 q 202 749 250 853 q 155 505 155 646 q 202 262 155 365 q 331 102 249 159 q 522 45 414 45 q 712 102 629 45 q 842 261 795 158 q 889 505 889 364 m 655 1093 l 522 1240 l 390 1093 l 327 1093 l 327 1098 l 502 1290 l 543 1290 l 717 1098 l 717 1093 l 655 1093 z "},"Ō":{"ha":1044,"x_min":95,"x_max":949,"o":"m 949 505 q 895 232 949 349 q 745 51 841 115 q 522 -14 648 -14 q 300 51 396 -14 q 149 233 203 116 q 95 505 95 349 q 149 778 95 661 q 300 959 204 894 q 522 1024 396 1024 q 745 959 648 1024 q 895 778 841 895 q 949 505 949 661 m 889 505 q 842 749 889 646 q 712 908 795 852 q 522 965 629 965 q 332 909 415 965 q 202 749 250 853 q 155 505 155 646 q 202 262 155 365 q 331 102 249 159 q 522 45 414 45 q 712 102 629 45 q 842 261 795 158 q 889 505 889 364 m 704 1218 l 704 1164 l 340 1164 l 340 1218 l 704 1218 z "},"Ŏ":{"ha":1044,"x_min":95,"x_max":949,"o":"m 949 505 q 895 232 949 349 q 745 51 841 115 q 522 -14 648 -14 q 300 51 396 -14 q 149 233 203 116 q 95 505 95 349 q 149 778 95 661 q 300 959 204 894 q 522 1024 396 1024 q 745 959 648 1024 q 895 778 841 895 q 949 505 949 661 m 889 505 q 842 749 889 646 q 712 908 795 852 q 522 965 629 965 q 332 909 415 965 q 202 749 250 853 q 155 505 155 646 q 202 262 155 365 q 331 102 249 159 q 522 45 414 45 q 712 102 629 45 q 842 261 795 158 q 889 505 889 364 m 607 1263 l 664 1263 q 626 1164 664 1201 q 522 1127 588 1127 q 419 1164 457 1127 q 381 1263 381 1201 l 438 1263 q 459 1200 438 1224 q 522 1176 479 1176 q 586 1200 565 1176 q 607 1263 607 1224 z "},"Ő":{"ha":1044,"x_min":95,"x_max":949,"o":"m 949 505 q 895 232 949 349 q 745 51 841 115 q 522 -14 648 -14 q 300 51 396 -14 q 149 233 203 116 q 95 505 95 349 q 149 778 95 661 q 300 959 204 894 q 522 1024 396 1024 q 745 959 648 1024 q 895 778 841 895 q 949 505 949 661 m 889 505 q 842 749 889 646 q 712 908 795 852 q 522 965 629 965 q 332 909 415 965 q 202 749 250 853 q 155 505 155 646 q 202 262 155 365 q 331 102 249 159 q 522 45 414 45 q 712 102 629 45 q 842 261 795 158 q 889 505 889 364 m 548 1090 l 718 1302 l 787 1302 l 604 1090 l 548 1090 m 384 1090 l 513 1302 l 582 1302 l 436 1090 l 384 1090 z "},"Ǒ":{"ha":1044,"x_min":95,"x_max":949,"o":"m 949 505 q 895 232 949 349 q 745 51 841 115 q 522 -14 648 -14 q 300 51 396 -14 q 149 233 203 116 q 95 505 95 349 q 149 778 95 661 q 300 959 204 894 q 522 1024 396 1024 q 745 959 648 1024 q 895 778 841 895 q 949 505 949 661 m 889 505 q 842 749 889 646 q 712 908 795 852 q 522 965 629 965 q 332 909 415 965 q 202 749 250 853 q 155 505 155 646 q 202 262 155 365 q 331 102 249 159 q 522 45 414 45 q 712 102 629 45 q 842 261 795 158 q 889 505 889 364 m 390 1307 l 522 1160 l 655 1307 l 717 1307 l 717 1302 l 543 1110 l 502 1110 l 327 1302 l 327 1307 l 390 1307 z "},"Ǫ":{"ha":1044,"x_min":95,"x_max":949,"o":"m 949 505 q 895 232 949 349 q 745 51 841 115 q 522 -14 648 -14 q 300 51 396 -14 q 149 233 203 116 q 95 505 95 349 q 149 778 95 661 q 300 959 204 894 q 522 1024 396 1024 q 745 959 648 1024 q 895 778 841 895 q 949 505 949 661 m 889 505 q 842 749 889 646 q 712 908 795 852 q 522 965 629 965 q 332 909 415 965 q 202 749 250 853 q 155 505 155 646 q 202 262 155 365 q 331 102 249 159 q 522 45 414 45 q 712 102 629 45 q 842 261 795 158 q 889 505 889 364 m 523 -300 q 434 -269 470 -300 q 399 -180 399 -239 q 414 -111 399 -144 q 459 -48 429 -78 q 531 12 488 -17 l 570 -1 q 491 -87 521 -46 q 460 -174 460 -129 q 479 -228 460 -211 q 533 -246 499 -246 q 572 -240 555 -246 q 604 -223 588 -233 l 619 -269 q 576 -291 599 -283 q 523 -300 553 -300 z "},"Ǭ":{"ha":1044,"x_min":95,"x_max":949,"o":"m 949 505 q 895 232 949 349 q 745 51 841 115 q 522 -14 648 -14 q 300 51 396 -14 q 149 233 203 116 q 95 505 95 349 q 149 778 95 661 q 300 959 204 894 q 522 1024 396 1024 q 745 959 648 1024 q 895 778 841 895 q 949 505 949 661 m 889 505 q 842 749 889 646 q 712 908 795 852 q 522 965 629 965 q 332 909 415 965 q 202 749 250 853 q 155 505 155 646 q 202 262 155 365 q 331 102 249 159 q 522 45 414 45 q 712 102 629 45 q 842 261 795 158 q 889 505 889 364 m 523 -300 q 434 -269 470 -300 q 399 -180 399 -239 q 414 -111 399 -144 q 459 -48 429 -78 q 531 12 488 -17 l 570 -1 q 491 -87 521 -46 q 460 -174 460 -129 q 479 -228 460 -211 q 533 -246 499 -246 q 572 -240 555 -246 q 604 -223 588 -233 l 619 -269 q 576 -291 599 -283 q 523 -300 553 -300 m 704 1218 l 704 1164 l 340 1164 l 340 1218 l 704 1218 z "},"Ȍ":{"ha":1044,"x_min":95,"x_max":949,"o":"m 949 505 q 895 232 949 349 q 745 51 841 115 q 522 -14 648 -14 q 300 51 396 -14 q 149 233 203 116 q 95 505 95 349 q 149 778 95 661 q 300 959 204 894 q 522 1024 396 1024 q 745 959 648 1024 q 895 778 841 895 q 949 505 949 661 m 889 505 q 842 749 889 646 q 712 908 795 852 q 522 965 629 965 q 332 909 415 965 q 202 749 250 853 q 155 505 155 646 q 202 262 155 365 q 331 102 249 159 q 522 45 414 45 q 712 102 629 45 q 842 261 795 158 q 889 505 889 364 m 431 1118 l 272 1336 l 348 1336 l 486 1118 l 431 1118 m 573 1118 l 449 1336 l 524 1336 l 627 1118 l 573 1118 z "},"Ȏ":{"ha":1044,"x_min":95,"x_max":949,"o":"m 949 505 q 895 232 949 349 q 745 51 841 115 q 522 -14 648 -14 q 300 51 396 -14 q 149 233 203 116 q 95 505 95 349 q 149 778 95 661 q 300 959 204 894 q 522 1024 396 1024 q 745 959 648 1024 q 895 778 841 895 q 949 505 949 661 m 889 505 q 842 749 889 646 q 712 908 795 852 q 522 965 629 965 q 332 909 415 965 q 202 749 250 853 q 155 505 155 646 q 202 262 155 365 q 331 102 249 159 q 522 45 414 45 q 712 102 629 45 q 842 261 795 158 q 889 505 889 364 m 382 1171 q 420 1270 382 1232 q 524 1307 458 1307 q 628 1270 590 1307 q 665 1171 665 1232 l 608 1171 q 587 1234 608 1210 q 524 1258 566 1258 q 460 1234 480 1258 q 439 1171 439 1210 l 382 1171 z "},"Ȫ":{"ha":1044,"x_min":95,"x_max":949,"o":"m 949 505 q 895 232 949 349 q 745 51 841 115 q 522 -14 648 -14 q 300 51 396 -14 q 149 233 203 116 q 95 505 95 349 q 149 778 95 661 q 300 959 204 894 q 522 1024 396 1024 q 745 959 648 1024 q 895 778 841 895 q 949 505 949 661 m 889 505 q 842 749 889 646 q 712 908 795 852 q 522 965 629 965 q 332 909 415 965 q 202 749 250 853 q 155 505 155 646 q 202 262 155 365 q 331 102 249 159 q 522 45 414 45 q 712 102 629 45 q 842 261 795 158 q 889 505 889 364 m 412 1144 q 379 1159 394 1144 q 365 1192 365 1173 q 379 1225 365 1211 q 412 1239 394 1239 q 446 1225 433 1239 q 460 1192 460 1211 q 446 1159 460 1173 q 412 1144 433 1144 m 633 1144 q 600 1159 615 1144 q 586 1192 586 1173 q 600 1225 586 1211 q 633 1239 615 1239 q 667 1225 654 1239 q 681 1192 681 1211 q 667 1159 681 1173 q 633 1144 654 1144 m 706 1430 l 706 1377 l 341 1377 l 341 1430 l 706 1430 z "},"Ȭ":{"ha":1044,"x_min":95,"x_max":949,"o":"m 949 505 q 895 232 949 349 q 745 51 841 115 q 522 -14 648 -14 q 300 51 396 -14 q 149 233 203 116 q 95 505 95 349 q 149 778 95 661 q 300 959 204 894 q 522 1024 396 1024 q 745 959 648 1024 q 895 778 841 895 q 949 505 949 661 m 889 505 q 842 749 889 646 q 712 908 795 852 q 522 965 629 965 q 332 909 415 965 q 202 749 250 853 q 155 505 155 646 q 202 262 155 365 q 331 102 249 159 q 522 45 414 45 q 712 102 629 45 q 842 261 795 158 q 889 505 889 364 m 653 1248 l 692 1240 q 662 1167 689 1198 q 596 1136 636 1136 q 540 1152 562 1136 q 498 1184 518 1168 q 451 1200 478 1200 q 412 1180 427 1200 q 393 1135 396 1161 l 354 1143 q 384 1217 357 1185 q 452 1248 410 1248 q 507 1232 485 1248 q 549 1200 529 1216 q 595 1184 569 1184 q 634 1204 618 1185 q 653 1248 650 1223 m 702 1372 l 702 1316 l 337 1316 l 337 1372 l 702 1372 z "},"Ȯ":{"ha":1044,"x_min":95,"x_max":949,"o":"m 949 505 q 895 232 949 349 q 745 51 841 115 q 522 -14 648 -14 q 300 51 396 -14 q 149 233 203 116 q 95 505 95 349 q 149 778 95 661 q 300 959 204 894 q 522 1024 396 1024 q 745 959 648 1024 q 895 778 841 895 q 949 505 949 661 m 889 505 q 842 749 889 646 q 712 908 795 852 q 522 965 629 965 q 332 909 415 965 q 202 749 250 853 q 155 505 155 646 q 202 262 155 365 q 331 102 249 159 q 522 45 414 45 q 712 102 629 45 q 842 261 795 158 q 889 505 889 364 m 522 1144 q 488 1158 502 1144 q 473 1192 473 1172 q 488 1225 473 1211 q 522 1239 502 1239 q 556 1225 542 1239 q 571 1192 571 1211 q 556 1158 571 1172 q 522 1144 542 1144 z "},"Ȱ":{"ha":1044,"x_min":95,"x_max":949,"o":"m 949 505 q 895 232 949 349 q 745 51 841 115 q 522 -14 648 -14 q 300 51 396 -14 q 149 233 203 116 q 95 505 95 349 q 149 778 95 661 q 300 959 204 894 q 522 1024 396 1024 q 745 959 648 1024 q 895 778 841 895 q 949 505 949 661 m 889 505 q 842 749 889 646 q 712 908 795 852 q 522 965 629 965 q 332 909 415 965 q 202 749 250 853 q 155 505 155 646 q 202 262 155 365 q 331 102 249 159 q 522 45 414 45 q 712 102 629 45 q 842 261 795 158 q 889 505 889 364 m 522 1144 q 488 1158 503 1144 q 473 1192 473 1172 q 488 1225 473 1211 q 522 1239 503 1239 q 556 1225 542 1239 q 571 1192 571 1211 q 556 1158 571 1172 q 522 1144 542 1144 m 704 1430 l 704 1377 l 340 1377 l 340 1430 l 704 1430 z "},"Ṍ":{"ha":1044,"x_min":95,"x_max":949,"o":"m 949 505 q 895 232 949 349 q 745 51 841 115 q 522 -14 648 -14 q 300 51 396 -14 q 149 233 203 116 q 95 505 95 349 q 149 778 95 661 q 300 959 204 894 q 522 1024 396 1024 q 745 959 648 1024 q 895 778 841 895 q 949 505 949 661 m 889 505 q 842 749 889 646 q 712 908 795 852 q 522 965 629 965 q 332 909 415 965 q 202 749 250 853 q 155 505 155 646 q 202 262 155 365 q 331 102 249 159 q 522 45 414 45 q 712 102 629 45 q 842 261 795 158 q 889 505 889 364 m 487 1271 l 612 1405 l 688 1405 l 546 1271 l 487 1271 m 341 1105 l 290 1109 q 333 1200 294 1165 q 426 1235 371 1235 q 482 1224 458 1235 q 526 1198 506 1213 q 567 1172 546 1184 q 615 1161 588 1161 q 672 1182 647 1161 q 703 1237 698 1203 l 754 1229 q 707 1140 746 1173 q 617 1106 668 1106 q 562 1118 584 1106 q 520 1144 540 1129 q 480 1170 501 1158 q 428 1181 459 1181 q 368 1159 393 1181 q 341 1105 344 1137 z "},"Ṏ":{"ha":1044,"x_min":95,"x_max":949,"o":"m 949 505 q 895 232 949 349 q 745 51 841 115 q 522 -14 648 -14 q 300 51 396 -14 q 149 233 203 116 q 95 505 95 349 q 149 778 95 661 q 300 959 204 894 q 522 1024 396 1024 q 745 959 648 1024 q 895 778 841 895 q 949 505 949 661 m 889 505 q 842 749 889 646 q 712 908 795 852 q 522 965 629 965 q 332 909 415 965 q 202 749 250 853 q 155 505 155 646 q 202 262 155 365 q 331 102 249 159 q 522 45 414 45 q 712 102 629 45 q 842 261 795 158 q 889 505 889 364 m 647 1269 l 685 1261 q 656 1188 682 1219 q 589 1157 629 1157 q 534 1173 556 1157 q 492 1205 511 1189 q 444 1221 472 1221 q 405 1201 420 1221 q 386 1156 389 1182 l 347 1164 q 377 1238 351 1206 q 445 1269 403 1269 q 500 1253 478 1269 q 542 1221 522 1237 q 588 1205 562 1205 q 627 1225 612 1206 q 647 1269 643 1244 m 338 1364 q 351 1397 338 1383 q 385 1410 363 1410 q 419 1397 406 1410 q 432 1364 432 1383 q 419 1332 432 1345 q 385 1318 406 1318 q 351 1332 364 1318 q 338 1364 338 1345 m 616 1364 q 629 1397 616 1383 q 663 1410 642 1410 q 697 1397 685 1410 q 710 1364 710 1383 q 698 1331 710 1345 q 663 1318 685 1318 q 629 1331 642 1318 q 616 1364 616 1344 z "},"Ṑ":{"ha":1044,"x_min":95,"x_max":949,"o":"m 949 505 q 895 232 949 349 q 745 51 841 115 q 522 -14 648 -14 q 300 51 396 -14 q 149 233 203 116 q 95 505 95 349 q 149 778 95 661 q 300 959 204 894 q 522 1024 396 1024 q 745 959 648 1024 q 895 778 841 895 q 949 505 949 661 m 889 505 q 842 749 889 646 q 712 908 795 852 q 522 965 629 965 q 332 909 415 965 q 202 749 250 853 q 155 505 155 646 q 202 262 155 365 q 331 102 249 159 q 522 45 414 45 q 712 102 629 45 q 842 261 795 158 q 889 505 889 364 m 494 1265 l 356 1399 l 433 1399 l 559 1265 l 494 1265 m 704 1180 l 704 1126 l 340 1126 l 340 1180 l 704 1180 z "},"Ṓ":{"ha":1044,"x_min":95,"x_max":949,"o":"m 949 505 q 895 232 949 349 q 745 51 841 115 q 522 -14 648 -14 q 300 51 396 -14 q 149 233 203 116 q 95 505 95 349 q 149 778 95 661 q 300 959 204 894 q 522 1024 396 1024 q 745 959 648 1024 q 895 778 841 895 q 949 505 949 661 m 889 505 q 842 749 889 646 q 712 908 795 852 q 522 965 629 965 q 332 909 415 965 q 202 749 250 853 q 155 505 155 646 q 202 262 155 365 q 331 102 249 159 q 522 45 414 45 q 712 102 629 45 q 842 261 795 158 q 889 505 889 364 m 485 1265 l 612 1399 l 689 1399 l 550 1265 l 485 1265 m 704 1180 l 704 1126 l 340 1126 l 340 1180 l 704 1180 z "},"Ọ":{"ha":1044,"x_min":95,"x_max":949,"o":"m 949 505 q 895 232 949 349 q 745 51 841 115 q 522 -14 648 -14 q 300 51 396 -14 q 149 233 203 116 q 95 505 95 349 q 149 778 95 661 q 300 959 204 894 q 522 1024 396 1024 q 745 959 648 1024 q 895 778 841 895 q 949 505 949 661 m 889 505 q 842 749 889 646 q 712 908 795 852 q 522 965 629 965 q 332 909 415 965 q 202 749 250 853 q 155 505 155 646 q 202 262 155 365 q 331 102 249 159 q 522 45 414 45 q 712 102 629 45 q 842 261 795 158 q 889 505 889 364 m 522 -233 q 488 -219 502 -233 q 473 -186 473 -206 q 488 -153 473 -167 q 522 -139 502 -139 q 556 -153 542 -139 q 571 -186 571 -167 q 556 -219 571 -206 q 522 -233 542 -233 z "},"Ỏ":{"ha":1044,"x_min":95,"x_max":949,"o":"m 949 505 q 895 232 949 349 q 745 51 841 115 q 522 -14 648 -14 q 300 51 396 -14 q 149 233 203 116 q 95 505 95 349 q 149 778 95 661 q 300 959 204 894 q 522 1024 396 1024 q 745 959 648 1024 q 895 778 841 895 q 949 505 949 661 m 889 505 q 842 749 889 646 q 712 908 795 852 q 522 965 629 965 q 332 909 415 965 q 202 749 250 853 q 155 505 155 646 q 202 262 155 365 q 331 102 249 159 q 522 45 414 45 q 712 102 629 45 q 842 261 795 158 q 889 505 889 364 m 549 1109 l 496 1109 l 496 1208 q 573 1226 551 1211 q 595 1275 596 1241 q 565 1332 595 1314 q 480 1350 536 1350 l 485 1396 q 611 1363 570 1396 q 653 1276 652 1330 q 623 1202 653 1229 q 549 1170 593 1175 l 549 1109 z "},"Ố":{"ha":1044,"x_min":95,"x_max":949,"o":"m 949 505 q 895 232 949 349 q 745 51 841 115 q 522 -14 648 -14 q 300 51 396 -14 q 149 233 203 116 q 95 505 95 349 q 149 778 95 661 q 300 959 204 894 q 522 1024 396 1024 q 745 959 648 1024 q 895 778 841 895 q 949 505 949 661 m 889 505 q 842 749 889 646 q 712 908 795 852 q 522 965 629 965 q 332 909 415 965 q 202 749 250 853 q 155 505 155 646 q 202 262 155 365 q 331 102 249 159 q 522 45 414 45 q 712 102 629 45 q 842 261 795 158 q 889 505 889 364 m 315 1117 l 506 1303 l 547 1303 l 738 1117 l 663 1117 l 527 1253 l 391 1117 l 315 1117 m 712 1238 l 824 1413 l 898 1413 l 767 1238 l 712 1238 z "},"Ồ":{"ha":1044,"x_min":95,"x_max":949,"o":"m 949 505 q 895 232 949 349 q 745 51 841 115 q 522 -14 648 -14 q 300 51 396 -14 q 149 233 203 116 q 95 505 95 349 q 149 778 95 661 q 300 959 204 894 q 522 1024 396 1024 q 745 959 648 1024 q 895 778 841 895 q 949 505 949 661 m 889 505 q 842 749 889 646 q 712 908 795 852 q 522 965 629 965 q 332 909 415 965 q 202 749 250 853 q 155 505 155 646 q 202 262 155 365 q 331 102 249 159 q 522 45 414 45 q 712 102 629 45 q 842 261 795 158 q 889 505 889 364 m 544 1319 l 735 1133 l 660 1133 l 524 1269 l 388 1133 l 313 1133 l 503 1319 l 544 1319 m 238 1430 l 342 1255 l 288 1255 l 163 1430 l 238 1430 z "},"Ổ":{"ha":1044,"x_min":95,"x_max":949,"o":"m 949 505 q 895 232 949 349 q 745 51 841 115 q 522 -14 648 -14 q 300 51 396 -14 q 149 233 203 116 q 95 505 95 349 q 149 778 95 661 q 300 959 204 894 q 522 1024 396 1024 q 745 959 648 1024 q 895 778 841 895 q 949 505 949 661 m 889 505 q 842 749 889 646 q 712 908 795 852 q 522 965 629 965 q 332 909 415 965 q 202 749 250 853 q 155 505 155 646 q 202 262 155 365 q 331 102 249 159 q 522 45 414 45 q 712 102 629 45 q 842 261 795 158 q 889 505 889 364 m 549 1284 l 735 1098 l 667 1098 l 524 1240 l 381 1098 l 313 1098 l 499 1284 l 549 1284 m 771 1194 l 723 1194 l 723 1277 q 796 1294 774 1280 q 818 1335 818 1307 q 789 1384 817 1368 q 707 1401 761 1401 l 712 1444 q 831 1413 792 1443 q 870 1337 870 1383 q 842 1271 870 1296 q 771 1242 814 1246 l 771 1194 z "},"Ỗ":{"ha":1044,"x_min":95,"x_max":949,"o":"m 949 505 q 895 232 949 349 q 745 51 841 115 q 522 -14 648 -14 q 300 51 396 -14 q 149 233 203 116 q 95 505 95 349 q 149 778 95 661 q 300 959 204 894 q 522 1024 396 1024 q 745 959 648 1024 q 895 778 841 895 q 949 505 949 661 m 889 505 q 842 749 889 646 q 712 908 795 852 q 522 965 629 965 q 332 909 415 965 q 202 749 250 853 q 155 505 155 646 q 202 262 155 365 q 331 102 249 159 q 522 45 414 45 q 712 102 629 45 q 842 261 795 158 q 889 505 889 364 m 533 1258 l 725 1076 l 657 1076 l 514 1212 l 371 1076 l 303 1076 l 496 1258 l 533 1258 m 659 1422 l 699 1414 q 661 1338 693 1368 q 587 1309 628 1309 q 541 1319 560 1309 q 507 1343 522 1330 q 476 1367 492 1357 q 439 1379 460 1378 q 393 1361 415 1379 q 367 1311 371 1342 l 328 1318 q 366 1394 334 1365 q 438 1424 399 1424 q 482 1414 463 1424 q 517 1390 501 1403 q 550 1366 533 1376 q 588 1355 567 1355 q 634 1373 613 1354 q 659 1422 656 1391 z "},"Ộ":{"ha":1044,"x_min":95,"x_max":949,"o":"m 949 505 q 895 232 949 349 q 745 51 841 115 q 522 -14 648 -14 q 300 51 396 -14 q 149 233 203 116 q 95 505 95 349 q 149 778 95 661 q 300 959 204 894 q 522 1024 396 1024 q 745 959 648 1024 q 895 778 841 895 q 949 505 949 661 m 889 505 q 842 749 889 646 q 712 908 795 852 q 522 965 629 965 q 332 909 415 965 q 202 749 250 853 q 155 505 155 646 q 202 262 155 365 q 331 102 249 159 q 522 45 414 45 q 712 102 629 45 q 842 261 795 158 q 889 505 889 364 m 655 1093 l 522 1240 l 390 1093 l 327 1093 l 327 1098 l 502 1290 l 543 1290 l 717 1098 l 717 1093 l 655 1093 m 522 -233 q 488 -219 502 -233 q 473 -186 473 -206 q 488 -153 473 -167 q 522 -139 502 -139 q 556 -153 542 -139 q 571 -186 571 -167 q 556 -219 571 -206 q 522 -233 542 -233 z "},"Ớ":{"ha":1039,"x_min":95,"x_max":991,"o":"m 931 1086 l 991 1086 q 943 923 991 979 q 791 854 895 867 l 791 907 q 900 962 869 920 q 931 1086 931 1003 m 949 505 q 895 232 949 349 q 745 51 841 115 q 522 -14 648 -14 q 300 51 396 -14 q 149 233 203 116 q 95 505 95 349 q 149 778 95 661 q 300 959 204 894 q 522 1024 396 1024 q 745 959 648 1024 q 895 778 841 895 q 949 505 949 661 m 889 505 q 842 749 889 646 q 712 908 795 852 q 522 965 629 965 q 332 909 415 965 q 202 749 250 853 q 155 505 155 646 q 202 262 155 365 q 331 102 249 159 q 522 45 414 45 q 712 102 629 45 q 842 261 795 158 q 889 505 889 364 m 493 1118 l 625 1336 l 697 1336 l 548 1118 l 493 1118 z "},"Ờ":{"ha":1039,"x_min":95,"x_max":991,"o":"m 931 1086 l 991 1086 q 943 923 991 979 q 791 854 895 867 l 791 907 q 900 962 869 920 q 931 1086 931 1003 m 949 505 q 895 232 949 349 q 745 51 841 115 q 522 -14 648 -14 q 300 51 396 -14 q 149 233 203 116 q 95 505 95 349 q 149 778 95 661 q 300 959 204 894 q 522 1024 396 1024 q 745 959 648 1024 q 895 778 841 895 q 949 505 949 661 m 889 505 q 842 749 889 646 q 712 908 795 852 q 522 965 629 965 q 332 909 415 965 q 202 749 250 853 q 155 505 155 646 q 202 262 155 365 q 331 102 249 159 q 522 45 414 45 q 712 102 629 45 q 842 261 795 158 q 889 505 889 364 m 496 1118 l 347 1336 l 419 1336 l 551 1118 l 496 1118 z "},"Ở":{"ha":1039,"x_min":95,"x_max":991,"o":"m 931 1086 l 991 1086 q 943 923 991 979 q 791 854 895 867 l 791 907 q 900 962 869 920 q 931 1086 931 1003 m 949 505 q 895 232 949 349 q 745 51 841 115 q 522 -14 648 -14 q 300 51 396 -14 q 149 233 203 116 q 95 505 95 349 q 149 778 95 661 q 300 959 204 894 q 522 1024 396 1024 q 745 959 648 1024 q 895 778 841 895 q 949 505 949 661 m 889 505 q 842 749 889 646 q 712 908 795 852 q 522 965 629 965 q 332 909 415 965 q 202 749 250 853 q 155 505 155 646 q 202 262 155 365 q 331 102 249 159 q 522 45 414 45 q 712 102 629 45 q 842 261 795 158 q 889 505 889 364 m 549 1109 l 496 1109 l 496 1208 q 573 1226 551 1211 q 595 1275 596 1241 q 565 1332 595 1314 q 480 1350 536 1350 l 485 1396 q 611 1363 570 1396 q 653 1276 652 1330 q 623 1202 653 1229 q 549 1170 593 1175 l 549 1109 z "},"Ỡ":{"ha":1039,"x_min":95,"x_max":991,"o":"m 931 1086 l 991 1086 q 943 923 991 979 q 791 854 895 867 l 791 907 q 900 962 869 920 q 931 1086 931 1003 m 949 505 q 895 232 949 349 q 745 51 841 115 q 522 -14 648 -14 q 300 51 396 -14 q 149 233 203 116 q 95 505 95 349 q 149 778 95 661 q 300 959 204 894 q 522 1024 396 1024 q 745 959 648 1024 q 895 778 841 895 q 949 505 949 661 m 889 505 q 842 749 889 646 q 712 908 795 852 q 522 965 629 965 q 332 909 415 965 q 202 749 250 853 q 155 505 155 646 q 202 262 155 365 q 331 102 249 159 q 522 45 414 45 q 712 102 629 45 q 842 261 795 158 q 889 505 889 364 m 341 1128 l 290 1132 q 333 1224 294 1189 q 427 1259 372 1259 q 482 1248 459 1259 q 526 1222 506 1236 q 567 1196 546 1207 q 616 1184 588 1184 q 673 1206 647 1184 q 703 1261 698 1227 l 754 1253 q 708 1163 747 1197 q 618 1130 668 1130 q 563 1141 585 1130 q 521 1167 540 1153 q 480 1193 502 1182 q 429 1205 459 1205 q 369 1183 394 1205 q 341 1128 344 1161 z "},"Ợ":{"ha":1039,"x_min":95,"x_max":991,"o":"m 931 1086 l 991 1086 q 943 923 991 979 q 791 854 895 867 l 791 907 q 900 962 869 920 q 931 1086 931 1003 m 949 505 q 895 232 949 349 q 745 51 841 115 q 522 -14 648 -14 q 300 51 396 -14 q 149 233 203 116 q 95 505 95 349 q 149 778 95 661 q 300 959 204 894 q 522 1024 396 1024 q 745 959 648 1024 q 895 778 841 895 q 949 505 949 661 m 889 505 q 842 749 889 646 q 712 908 795 852 q 522 965 629 965 q 332 909 415 965 q 202 749 250 853 q 155 505 155 646 q 202 262 155 365 q 331 102 249 159 q 522 45 414 45 q 712 102 629 45 q 842 261 795 158 q 889 505 889 364 m 522 -233 q 488 -219 502 -233 q 473 -186 473 -206 q 488 -153 473 -167 q 522 -139 502 -139 q 556 -153 542 -139 q 571 -186 571 -167 q 556 -219 571 -206 q 522 -233 542 -233 z "},"Ǿ":{"ha":1044,"x_min":95,"x_max":949,"o":"m 199 -30 l 156 0 l 844 1039 l 886 1010 l 199 -30 m 949 505 q 895 232 949 349 q 745 51 841 115 q 522 -14 648 -14 q 300 51 396 -14 q 149 233 203 116 q 95 505 95 349 q 149 778 95 661 q 300 959 204 894 q 522 1024 396 1024 q 745 959 648 1024 q 895 778 841 895 q 949 505 949 661 m 889 505 q 842 749 889 646 q 712 908 795 852 q 522 965 629 965 q 332 909 415 965 q 202 749 250 853 q 155 505 155 646 q 202 262 155 365 q 331 102 249 159 q 522 45 414 45 q 712 102 629 45 q 842 261 795 158 q 889 505 889 364 m 493 1118 l 625 1336 l 697 1336 l 548 1118 l 493 1118 z "},"Ο":{"ha":1044,"x_min":95,"x_max":949,"o":"m 949 505 q 895 232 949 349 q 745 51 841 115 q 522 -14 648 -14 q 300 51 396 -14 q 149 233 203 116 q 95 505 95 349 q 149 778 95 661 q 300 959 204 894 q 522 1024 396 1024 q 745 959 648 1024 q 895 778 841 895 q 949 505 949 661 m 889 505 q 842 749 889 646 q 712 908 795 852 q 522 965 629 965 q 332 909 415 965 q 202 749 250 853 q 155 505 155 646 q 202 262 155 365 q 331 102 249 159 q 522 45 414 45 q 712 102 629 45 q 842 261 795 158 q 889 505 889 364 z "},"Ό":{"ha":1064,"x_min":2,"x_max":952,"o":"m 952 505 q 898 232 952 349 q 747 51 843 115 q 525 -14 651 -14 q 302 51 399 -14 q 151 233 206 116 q 97 505 97 349 q 152 778 97 661 q 302 959 206 894 q 525 1024 399 1024 q 747 959 651 1024 q 898 778 843 895 q 952 505 952 661 m 892 505 q 845 749 892 646 q 715 908 798 852 q 525 965 632 965 q 335 909 418 965 q 205 749 252 853 q 158 505 158 646 q 204 262 158 365 q 334 102 251 159 q 525 45 417 45 q 715 102 632 45 q 845 261 798 158 q 892 505 892 364 m 2 838 l 27 1067 l 95 1067 l 45 838 l 2 838 z "},"Ὀ":{"ha":1130,"x_min":6,"x_max":1018,"o":"m 1018 505 q 964 232 1018 349 q 813 51 909 115 q 591 -14 717 -14 q 368 51 465 -14 q 218 233 272 116 q 163 505 163 349 q 218 778 163 661 q 368 959 272 894 q 591 1024 465 1024 q 813 959 717 1024 q 964 778 909 895 q 1018 505 1018 661 m 958 505 q 911 749 958 646 q 781 908 864 852 q 591 965 698 965 q 401 909 484 965 q 271 749 318 853 q 224 505 224 646 q 271 262 224 365 q 400 102 317 159 q 591 45 483 45 q 781 102 698 45 q 911 261 864 158 q 958 505 958 364 m 139 1010 l 139 975 q 129 897 139 932 q 97 831 119 862 q 38 769 75 799 l 6 790 q 49 850 34 822 q 71 909 65 878 q 77 979 77 940 l 77 1010 l 139 1010 z "},"Ὁ":{"ha":1178,"x_min":83,"x_max":1067,"o":"m 1066 505 q 1012 232 1066 349 q 861 51 958 115 q 639 -14 765 -14 q 417 51 513 -14 q 266 233 320 116 q 212 505 212 349 q 266 778 212 661 q 417 959 321 894 q 639 1024 513 1024 q 861 959 765 1024 q 1012 778 958 895 q 1066 505 1066 661 m 1006 505 q 959 749 1006 646 q 829 908 912 852 q 639 965 746 965 q 449 909 532 965 q 319 749 366 853 q 272 505 272 646 q 319 262 272 365 q 448 102 365 159 q 639 45 531 45 q 829 102 746 45 q 959 261 912 158 q 1006 505 1006 364 m 83 977 l 83 1013 l 145 1013 l 145 981 q 151 912 145 942 q 173 853 157 881 q 216 793 188 825 l 183 771 q 106 865 129 818 q 83 977 83 913 z "},"Ὂ":{"ha":1419,"x_min":10,"x_max":1308,"o":"m 1307 505 q 1253 232 1307 349 q 1102 51 1199 115 q 880 -14 1006 -14 q 657 51 754 -14 q 507 233 561 116 q 452 505 452 349 q 507 778 452 661 q 657 959 561 894 q 880 1024 754 1024 q 1102 959 1006 1024 q 1253 778 1199 895 q 1307 505 1307 661 m 1247 505 q 1200 749 1247 646 q 1070 908 1153 852 q 880 965 987 965 q 690 909 773 965 q 560 749 607 853 q 513 505 513 646 q 560 262 513 365 q 689 102 606 159 q 880 45 772 45 q 1070 102 987 45 q 1200 261 1153 158 q 1247 505 1247 364 m 358 792 l 358 783 l 321 783 l 176 1001 l 176 1012 l 245 1012 l 358 792 m 144 1012 l 144 976 q 134 898 144 933 q 102 832 124 863 q 43 770 80 801 l 10 791 q 67 880 52 839 q 82 980 82 921 l 82 1012 l 144 1012 z "},"Ὃ":{"ha":1333,"x_min":-55,"x_max":1222,"o":"m 1222 505 q 1167 232 1222 349 q 1017 51 1113 115 q 795 -14 920 -14 q 572 51 668 -14 q 421 233 475 116 q 367 505 367 349 q 421 778 367 661 q 572 959 476 894 q 795 1024 668 1024 q 1017 959 920 1024 q 1167 778 1113 895 q 1222 505 1222 661 m 1162 505 q 1114 749 1162 646 q 984 908 1067 852 q 795 965 902 965 q 605 909 688 965 q 475 749 522 853 q 428 505 428 646 q 474 262 428 365 q 604 102 521 159 q 795 45 687 45 q 984 102 902 45 q 1114 261 1067 158 q 1162 505 1162 364 m 227 793 l 227 784 l 191 784 l 45 1002 l 45 1013 l 116 1013 l 227 793 m -55 977 l -55 1013 l 7 1013 l 7 981 q 22 881 7 922 q 79 793 37 840 l 46 771 q -32 865 -8 818 q -55 977 -55 913 z "},"Ὄ":{"ha":1284,"x_min":-12,"x_max":1172,"o":"m 1172 505 q 1118 232 1172 349 q 967 51 1064 115 q 745 -14 871 -14 q 523 51 619 -14 q 372 233 426 116 q 318 505 318 349 q 372 778 318 661 q 523 959 427 894 q 745 1024 619 1024 q 967 959 871 1024 q 1118 778 1064 895 q 1172 505 1172 661 m 1112 505 q 1065 749 1112 646 q 935 908 1018 852 q 745 965 852 965 q 555 909 638 965 q 425 749 472 853 q 378 505 378 646 q 425 262 378 365 q 554 102 472 159 q 745 45 637 45 q 935 102 852 45 q 1065 261 1018 158 q 1112 505 1112 364 m 132 784 l 132 793 l 245 1013 l 314 1013 l 314 1002 l 169 784 l 132 784 m 121 1013 l 121 977 q 111 900 121 935 q 79 834 101 865 q 20 771 57 802 l -13 793 q 44 881 29 840 q 59 981 59 922 l 59 1013 l 121 1013 z "},"Ὅ":{"ha":1300,"x_min":-8,"x_max":1188,"o":"m 1188 505 q 1134 232 1188 349 q 983 51 1080 115 q 761 -14 887 -14 q 538 51 635 -14 q 388 233 442 116 q 333 505 333 349 q 388 778 333 661 q 539 959 442 894 q 761 1024 635 1024 q 983 959 887 1024 q 1134 778 1080 895 q 1188 505 1188 661 m 1128 505 q 1081 749 1128 646 q 951 908 1034 852 q 761 965 868 965 q 571 909 654 965 q 441 749 488 853 q 394 505 394 646 q 441 262 394 365 q 570 102 487 159 q 761 45 653 45 q 951 102 868 45 q 1081 261 1034 158 q 1128 505 1128 364 m 147 784 l 147 793 l 259 1013 l 329 1013 l 329 1002 l 184 784 l 147 784 m 93 771 q 15 865 38 818 q -8 977 -8 913 l -8 1013 l 54 1013 l 54 981 q 69 881 54 922 q 126 793 85 840 l 93 771 z "},"Ὸ":{"ha":1208,"x_min":-6,"x_max":1096,"o":"m 1096 505 q 1042 232 1096 349 q 891 51 987 115 q 669 -14 795 -14 q 446 51 543 -14 q 295 233 350 116 q 241 505 241 349 q 296 778 241 661 q 446 959 350 894 q 669 1024 543 1024 q 891 959 795 1024 q 1042 778 987 895 q 1096 505 1096 661 m 1036 505 q 989 749 1036 646 q 859 908 942 852 q 669 965 776 965 q 479 909 562 965 q 349 749 396 853 q 302 505 302 646 q 348 262 302 365 q 478 102 395 159 q 669 45 561 45 q 859 102 776 45 q 989 261 942 158 q 1036 505 1036 364 m 139 779 l -6 998 l -6 1009 l 63 1009 l 176 789 l 176 779 l 139 779 z "},"ϴ":{"ha":1044,"x_min":95,"x_max":949,"o":"m 904 534 l 904 476 l 142 476 l 142 534 l 904 534 m 949 505 q 895 232 949 349 q 745 51 841 115 q 522 -14 648 -14 q 300 51 396 -14 q 149 233 203 116 q 95 505 95 349 q 149 778 95 661 q 300 959 204 894 q 522 1024 396 1024 q 745 959 648 1024 q 895 778 841 895 q 949 505 949 661 m 889 505 q 842 749 889 646 q 712 908 795 852 q 522 965 629 965 q 332 909 415 965 q 202 749 250 853 q 155 505 155 646 q 202 262 155 365 q 331 102 249 159 q 522 45 414 45 q 712 102 629 45 q 842 261 795 158 q 889 505 889 364 z "},"Ό":{"ha":1102,"x_min":80,"x_max":991,"o":"m 991 505 q 937 232 991 349 q 786 51 882 115 q 564 -14 690 -14 q 341 51 437 -14 q 190 233 245 116 q 136 505 136 349 q 191 778 136 661 q 341 959 245 894 q 564 1024 437 1024 q 786 959 690 1024 q 937 778 882 895 q 991 505 991 661 m 931 505 q 884 749 931 646 q 754 908 836 852 q 564 965 671 965 q 374 909 457 965 q 244 749 291 853 q 197 505 197 646 q 243 262 197 365 q 373 102 290 159 q 564 45 456 45 q 754 102 671 45 q 884 261 836 158 q 931 505 931 364 m 80 852 l 80 858 l 188 1083 l 261 1083 l 261 1077 l 119 852 l 80 852 z "},"О":{"ha":1044,"x_min":95,"x_max":949,"o":"m 949 505 q 895 232 949 349 q 745 51 841 115 q 522 -14 648 -14 q 300 51 396 -14 q 149 233 203 116 q 95 505 95 349 q 149 778 95 661 q 300 959 204 894 q 522 1024 396 1024 q 745 959 648 1024 q 895 778 841 895 q 949 505 949 661 m 889 505 q 842 749 889 646 q 712 908 795 852 q 522 965 629 965 q 332 909 415 965 q 202 749 250 853 q 155 505 155 646 q 202 262 155 365 q 331 102 249 159 q 522 45 414 45 q 712 102 629 45 q 842 261 795 158 q 889 505 889 364 z "},"Ӧ":{"ha":1044,"x_min":95,"x_max":949,"o":"m 949 505 q 895 232 949 349 q 745 51 841 115 q 522 -14 648 -14 q 300 51 396 -14 q 149 233 203 116 q 95 505 95 349 q 149 778 95 661 q 300 959 204 894 q 522 1024 396 1024 q 745 959 648 1024 q 895 778 841 895 q 949 505 949 661 m 889 505 q 842 749 889 646 q 712 908 795 852 q 522 965 629 965 q 332 909 415 965 q 202 749 250 853 q 155 505 155 646 q 202 262 155 365 q 331 102 249 159 q 522 45 414 45 q 712 102 629 45 q 842 261 795 158 q 889 505 889 364 m 412 1144 q 379 1159 393 1144 q 364 1192 364 1173 q 379 1225 364 1211 q 412 1239 393 1239 q 445 1225 432 1239 q 459 1192 459 1211 q 445 1159 459 1173 q 412 1144 432 1144 m 633 1144 q 600 1159 614 1144 q 585 1192 585 1173 q 600 1225 585 1211 q 633 1239 614 1239 q 666 1225 653 1239 q 680 1192 680 1211 q 666 1159 680 1173 q 633 1144 653 1144 z "},"Ɵ":{"ha":1044,"x_min":95,"x_max":949,"o":"m 949 505 q 895 232 949 349 q 745 51 841 115 q 522 -14 648 -14 q 300 51 396 -14 q 149 233 203 116 q 95 505 95 349 q 149 778 95 661 q 300 959 204 894 q 522 1024 396 1024 q 745 959 648 1024 q 895 778 841 895 q 949 505 949 661 m 889 505 q 842 749 889 646 q 712 908 795 852 q 522 965 629 965 q 332 909 415 965 q 202 749 250 853 q 155 505 155 646 q 202 262 155 365 q 331 102 249 159 q 522 45 414 45 q 712 102 629 45 q 842 261 795 158 q 889 505 889 364 m 904 534 l 904 476 l 142 476 l 142 534 l 904 534 z "},"Ө":{"ha":1044,"x_min":95,"x_max":949,"o":"m 949 505 q 895 232 949 349 q 745 51 841 115 q 522 -14 648 -14 q 300 51 396 -14 q 149 233 203 116 q 95 505 95 349 q 149 778 95 661 q 300 959 204 894 q 522 1024 396 1024 q 745 959 648 1024 q 895 778 841 895 q 949 505 949 661 m 889 505 q 842 749 889 646 q 712 908 795 852 q 522 965 629 965 q 332 909 415 965 q 202 749 250 853 q 155 505 155 646 q 202 262 155 365 q 331 102 249 159 q 522 45 414 45 q 712 102 629 45 q 842 261 795 158 q 889 505 889 364 m 904 534 l 904 476 l 142 476 l 142 534 l 904 534 z "},"Ӫ":{"ha":1044,"x_min":95,"x_max":949,"o":"m 949 505 q 895 232 949 349 q 745 51 841 115 q 522 -14 648 -14 q 300 51 396 -14 q 149 233 203 116 q 95 505 95 349 q 149 778 95 661 q 300 959 204 894 q 522 1024 396 1024 q 745 959 648 1024 q 895 778 841 895 q 949 505 949 661 m 889 505 q 842 749 889 646 q 712 908 795 852 q 522 965 629 965 q 332 909 415 965 q 202 749 250 853 q 155 505 155 646 q 202 262 155 365 q 331 102 249 159 q 522 45 414 45 q 712 102 629 45 q 842 261 795 158 q 889 505 889 364 m 904 534 l 904 476 l 142 476 l 142 534 l 904 534 m 412 1144 q 379 1159 393 1144 q 364 1192 364 1173 q 379 1225 364 1212 q 412 1239 393 1239 q 445 1225 432 1239 q 459 1192 459 1212 q 445 1159 459 1173 q 412 1144 432 1144 m 633 1144 q 600 1159 614 1144 q 585 1192 585 1173 q 600 1225 585 1212 q 633 1239 614 1239 q 666 1225 653 1239 q 680 1192 680 1212 q 666 1159 680 1173 q 633 1144 653 1144 z "},"Œ":{"ha":1295,"x_min":95,"x_max":1198,"o":"m 522 0 q 298 64 395 0 q 148 241 202 127 q 95 505 95 355 q 148 770 95 656 q 299 947 202 883 q 522 1010 395 1010 l 1186 1010 l 1186 953 l 685 953 l 685 534 l 1156 534 l 1156 477 l 685 477 l 685 57 l 1198 57 l 1198 0 l 522 0 m 623 57 l 623 953 l 522 953 q 331 897 413 953 q 202 741 248 841 q 155 505 155 640 q 201 271 155 372 q 330 114 247 170 q 522 57 412 57 l 623 57 z "},"P":{"ha":856,"x_min":146,"x_max":765,"o":"m 146 0 l 146 1010 l 457 1010 q 622 971 553 1010 q 728 863 691 931 q 765 706 765 794 q 728 551 765 619 q 622 443 691 482 q 458 403 553 403 l 189 403 l 189 460 l 456 460 q 589 492 534 460 q 674 579 645 524 q 704 706 704 635 q 674 834 704 778 q 589 921 645 890 q 456 953 534 953 l 208 953 l 208 0 l 146 0 z "},"Ṕ":{"ha":856,"x_min":146,"x_max":765,"o":"m 146 0 l 146 1010 l 457 1010 q 622 971 553 1010 q 728 863 691 931 q 765 706 765 794 q 728 551 765 619 q 622 443 691 482 q 458 403 553 403 l 189 403 l 189 460 l 456 460 q 589 492 534 460 q 674 579 645 524 q 704 706 704 635 q 674 834 704 778 q 589 921 645 890 q 456 953 534 953 l 208 953 l 208 0 l 146 0 m 406 1118 l 538 1336 l 610 1336 l 461 1118 l 406 1118 z "},"Ṗ":{"ha":856,"x_min":146,"x_max":765,"o":"m 146 0 l 146 1010 l 457 1010 q 622 971 553 1010 q 728 863 691 931 q 765 706 765 794 q 728 551 765 619 q 622 443 691 482 q 458 403 553 403 l 189 403 l 189 460 l 456 460 q 589 492 534 460 q 674 579 645 524 q 704 706 704 635 q 674 834 704 778 q 589 921 645 890 q 456 953 534 953 l 208 953 l 208 0 l 146 0 m 435 1144 q 400 1158 415 1144 q 386 1192 386 1172 q 400 1225 386 1211 q 435 1239 415 1239 q 469 1225 455 1239 q 483 1192 483 1211 q 469 1158 483 1172 q 435 1144 455 1144 z "},"Ҏ":{"ha":858,"x_min":142,"x_max":761,"o":"m 562 633 l 736 366 l 689 335 l 513 602 l 562 633 m 142 0 l 142 1010 l 453 1010 q 618 971 549 1010 q 724 863 687 931 q 761 706 761 794 q 724 551 761 619 q 618 443 687 482 q 454 403 549 403 l 185 403 l 185 460 l 452 460 q 585 492 530 460 q 670 579 641 524 q 700 706 700 635 q 670 834 700 778 q 585 921 641 890 q 452 953 530 953 l 204 953 l 204 0 l 142 0 z "},"Ƥ":{"ha":994,"x_min":79,"x_max":889,"o":"m 138 802 l 79 802 l 79 848 q 97 934 79 898 q 150 990 115 970 q 235 1010 185 1010 l 581 1010 q 746 971 678 1010 q 852 863 815 931 q 889 706 889 794 q 852 551 889 619 q 746 443 815 482 q 582 403 678 403 l 332 403 l 332 0 l 270 0 l 270 953 l 237 953 q 178 939 199 953 q 147 896 156 924 q 138 827 138 868 l 138 802 m 332 460 l 581 460 q 714 492 658 460 q 799 579 769 524 q 828 706 828 635 q 799 834 828 778 q 713 921 769 890 q 580 953 658 953 l 332 953 l 332 460 z "},"Ρ":{"ha":856,"x_min":146,"x_max":765,"o":"m 146 0 l 146 1010 l 457 1010 q 622 971 553 1010 q 728 863 691 931 q 765 706 765 794 q 728 551 765 619 q 622 443 691 482 q 458 403 553 403 l 189 403 l 189 460 l 456 460 q 589 492 534 460 q 674 579 645 524 q 704 706 704 635 q 674 834 704 778 q 589 921 645 890 q 456 953 534 953 l 208 953 l 208 0 l 146 0 z "},"Ῥ":{"ha":1014,"x_min":99,"x_max":923,"o":"m 304 0 l 304 1010 l 615 1010 q 780 971 711 1010 q 886 863 849 931 q 923 706 923 794 q 886 551 923 619 q 780 443 849 482 q 616 403 711 403 l 347 403 l 347 460 l 614 460 q 747 492 692 460 q 832 579 802 524 q 862 706 862 635 q 832 834 862 778 q 747 921 802 890 q 614 953 691 953 l 365 953 l 365 0 l 304 0 m 99 977 l 99 1013 l 160 1013 l 160 981 q 167 912 160 942 q 189 853 173 881 q 232 793 204 825 l 199 771 q 122 865 145 818 q 99 977 99 913 z "},"Q":{"ha":1044,"x_min":95,"x_max":949,"o":"m 535 316 l 606 316 l 753 122 l 767 103 l 916 -95 l 845 -95 l 723 68 l 710 85 l 535 316 m 949 505 q 895 232 949 349 q 745 51 841 115 q 522 -14 648 -14 q 300 51 396 -14 q 149 233 203 116 q 95 505 95 349 q 149 778 95 661 q 300 959 204 894 q 522 1024 396 1024 q 745 959 648 1024 q 895 778 841 895 q 949 505 949 661 m 889 505 q 842 749 889 646 q 712 908 795 852 q 522 965 629 965 q 332 909 415 965 q 202 749 250 853 q 155 505 155 646 q 202 262 155 365 q 331 102 249 159 q 522 45 414 45 q 712 102 629 45 q 842 261 795 158 q 889 505 889 364 z "},"R":{"ha":866,"x_min":146,"x_max":809,"o":"m 146 0 l 146 1010 l 457 1010 q 622 973 553 1010 q 728 869 691 935 q 765 715 765 802 q 728 562 765 628 q 622 459 691 496 q 458 422 553 422 l 179 422 l 179 480 l 456 480 q 589 509 534 480 q 674 591 645 538 q 704 715 704 643 q 674 840 704 787 q 589 923 645 894 q 456 953 534 953 l 208 953 l 208 0 l 146 0 m 561 458 l 809 0 l 738 0 l 491 458 l 561 458 z "},"Ŕ":{"ha":866,"x_min":146,"x_max":809,"o":"m 146 0 l 146 1010 l 457 1010 q 622 973 553 1010 q 728 869 691 935 q 765 715 765 802 q 728 562 765 628 q 622 459 691 496 q 458 422 553 422 l 179 422 l 179 480 l 456 480 q 589 509 534 480 q 674 591 645 538 q 704 715 704 643 q 674 840 704 787 q 589 923 645 894 q 456 953 534 953 l 208 953 l 208 0 l 146 0 m 561 458 l 809 0 l 738 0 l 491 458 l 561 458 m 400 1118 l 532 1336 l 604 1336 l 455 1118 l 400 1118 z "},"Ŗ":{"ha":866,"x_min":146,"x_max":809,"o":"m 146 0 l 146 1010 l 457 1010 q 622 973 553 1010 q 728 869 691 935 q 765 715 765 802 q 728 562 765 628 q 622 459 691 496 q 458 422 553 422 l 179 422 l 179 480 l 456 480 q 589 509 534 480 q 674 591 645 538 q 704 715 704 643 q 674 840 704 787 q 589 923 645 894 q 456 953 534 953 l 208 953 l 208 0 l 146 0 m 561 458 l 809 0 l 738 0 l 491 458 l 561 458 m 350 -335 l 411 -80 l 474 -80 l 397 -335 l 350 -335 z "},"Ř":{"ha":866,"x_min":146,"x_max":809,"o":"m 146 0 l 146 1010 l 457 1010 q 622 973 553 1010 q 728 869 691 935 q 765 715 765 802 q 728 562 765 628 q 622 459 691 496 q 458 422 553 422 l 179 422 l 179 480 l 456 480 q 589 509 534 480 q 674 591 645 538 q 704 715 704 643 q 674 840 704 787 q 589 923 645 894 q 456 953 534 953 l 208 953 l 208 0 l 146 0 m 561 458 l 809 0 l 738 0 l 491 458 l 561 458 m 296 1307 l 429 1160 l 561 1307 l 623 1307 l 623 1302 l 449 1110 l 408 1110 l 234 1302 l 234 1307 l 296 1307 z "},"Ȑ":{"ha":866,"x_min":146,"x_max":809,"o":"m 146 0 l 146 1010 l 457 1010 q 622 973 553 1010 q 728 869 691 935 q 765 715 765 802 q 728 562 765 628 q 622 459 691 496 q 458 422 553 422 l 179 422 l 179 480 l 456 480 q 589 509 534 480 q 674 591 645 538 q 704 715 704 643 q 674 840 704 787 q 589 923 645 894 q 456 953 534 953 l 208 953 l 208 0 l 146 0 m 561 458 l 809 0 l 738 0 l 491 458 l 561 458 m 337 1118 l 179 1336 l 254 1336 l 392 1118 l 337 1118 m 479 1118 l 355 1336 l 430 1336 l 534 1118 l 479 1118 z "},"Ȓ":{"ha":866,"x_min":146,"x_max":809,"o":"m 146 0 l 146 1010 l 457 1010 q 622 973 553 1010 q 728 869 691 935 q 765 715 765 802 q 728 562 765 628 q 622 459 691 496 q 458 422 553 422 l 179 422 l 179 480 l 456 480 q 589 509 534 480 q 674 591 645 538 q 704 715 704 643 q 674 840 704 787 q 589 923 645 894 q 456 953 534 953 l 208 953 l 208 0 l 146 0 m 561 458 l 809 0 l 738 0 l 491 458 l 561 458 m 289 1171 q 327 1270 289 1232 q 431 1307 364 1307 q 534 1270 497 1307 q 572 1171 572 1232 l 515 1171 q 494 1234 515 1210 q 431 1258 473 1258 q 366 1234 387 1258 q 346 1171 346 1210 l 289 1171 z "},"Ṙ":{"ha":866,"x_min":146,"x_max":809,"o":"m 146 0 l 146 1010 l 457 1010 q 622 973 553 1010 q 728 869 691 935 q 765 715 765 802 q 728 562 765 628 q 622 459 691 496 q 458 422 553 422 l 179 422 l 179 480 l 456 480 q 589 509 534 480 q 674 591 645 538 q 704 715 704 643 q 674 840 704 787 q 589 923 645 894 q 456 953 534 953 l 208 953 l 208 0 l 146 0 m 561 458 l 809 0 l 738 0 l 491 458 l 561 458 m 429 1144 q 395 1158 409 1144 q 380 1192 380 1172 q 395 1225 380 1211 q 429 1239 409 1239 q 463 1225 449 1239 q 477 1192 477 1211 q 463 1158 477 1172 q 429 1144 449 1144 z "},"Ṛ":{"ha":866,"x_min":146,"x_max":809,"o":"m 146 0 l 146 1010 l 457 1010 q 622 973 553 1010 q 728 869 691 935 q 765 715 765 802 q 728 562 765 628 q 622 459 691 496 q 458 422 553 422 l 179 422 l 179 480 l 456 480 q 589 509 534 480 q 674 591 645 538 q 704 715 704 643 q 674 840 704 787 q 589 923 645 894 q 456 953 534 953 l 208 953 l 208 0 l 146 0 m 561 458 l 809 0 l 738 0 l 491 458 l 561 458 m 444 -233 q 409 -219 424 -233 q 395 -186 395 -206 q 409 -153 395 -167 q 444 -139 424 -139 q 478 -153 464 -139 q 492 -186 492 -167 q 478 -219 492 -206 q 444 -233 464 -233 z "},"Ṝ":{"ha":866,"x_min":146,"x_max":809,"o":"m 146 0 l 146 1010 l 457 1010 q 622 973 553 1010 q 728 869 691 935 q 765 715 765 802 q 728 562 765 628 q 622 459 691 496 q 458 422 553 422 l 179 422 l 179 480 l 456 480 q 589 509 534 480 q 674 591 645 538 q 704 715 704 643 q 674 840 704 787 q 589 923 645 894 q 456 953 534 953 l 208 953 l 208 0 l 146 0 m 561 458 l 809 0 l 738 0 l 491 458 l 561 458 m 444 -233 q 409 -219 424 -233 q 395 -186 395 -206 q 409 -153 395 -167 q 444 -139 424 -139 q 478 -153 464 -139 q 492 -186 492 -167 q 478 -219 492 -206 q 444 -233 464 -233 m 611 1218 l 611 1164 l 247 1164 l 247 1218 l 611 1218 z "},"Ṟ":{"ha":866,"x_min":146,"x_max":809,"o":"m 146 0 l 146 1010 l 457 1010 q 622 973 553 1010 q 728 869 691 935 q 765 715 765 802 q 728 562 765 628 q 622 459 691 496 q 458 422 553 422 l 179 422 l 179 480 l 456 480 q 589 509 534 480 q 674 591 645 538 q 704 715 704 643 q 674 840 704 787 q 589 923 645 894 q 456 953 534 953 l 208 953 l 208 0 l 146 0 m 561 458 l 809 0 l 738 0 l 491 458 l 561 458 m 626 -136 l 626 -190 l 262 -190 l 262 -136 l 626 -136 z "},"℟":{"ha":867,"x_min":144,"x_max":807,"o":"m 667 1128 l 221 -228 l 176 -218 l 610 1100 l 385 1179 l 402 1223 l 667 1128 m 144 0 l 144 1010 l 454 1010 q 619 973 550 1010 q 725 869 688 935 q 762 715 762 802 q 725 562 762 628 q 619 459 688 496 q 455 422 551 422 l 176 422 l 176 480 l 454 480 q 587 509 531 480 q 672 591 642 538 q 701 715 701 643 q 671 840 701 787 q 586 923 642 894 q 453 953 531 953 l 205 953 l 205 0 l 144 0 m 558 458 l 807 0 l 736 0 l 489 458 l 558 458 z "},"℞":{"ha":857,"x_min":146,"x_max":831,"o":"m 146 1010 l 456 1010 q 621 972 552 1010 q 726 867 690 934 q 762 715 762 800 q 728 568 762 631 q 633 469 694 506 q 491 425 572 432 l 472 422 l 188 422 l 188 480 l 451 480 q 587 509 531 480 q 672 592 643 539 q 701 715 701 645 q 673 836 701 782 q 591 922 646 890 q 456 953 536 953 l 208 953 l 208 0 l 146 0 l 146 1010 m 758 0 l 426 454 l 497 454 l 831 0 l 758 0 m 499 0 l 426 0 l 759 456 l 831 456 l 499 0 z "},"Ɍ":{"ha":873,"x_min":20,"x_max":815,"o":"m 181 422 l 20 422 l 20 480 l 181 480 l 181 422 m 151 0 l 151 1010 l 462 1010 q 627 973 558 1010 q 733 869 696 935 q 770 715 770 802 q 733 562 770 628 q 627 459 696 496 q 463 422 559 422 l 184 422 l 184 480 l 462 480 q 595 509 539 480 q 679 591 650 538 q 709 715 709 643 q 679 840 709 787 q 594 923 650 894 q 461 953 539 953 l 213 953 l 213 0 l 151 0 m 566 458 l 815 0 l 744 0 l 497 458 l 566 458 z "},"S":{"ha":862,"x_min":97,"x_max":765,"o":"m 690 758 q 614 910 683 852 q 436 968 545 968 q 305 941 363 968 q 216 867 248 914 q 183 760 183 820 q 198 689 183 721 q 241 634 213 658 q 306 591 268 609 q 390 559 344 573 l 501 526 q 605 486 557 509 q 689 432 654 464 q 745 359 725 401 q 765 262 765 317 q 724 119 765 182 q 607 20 683 56 q 429 -16 531 -16 q 259 17 331 -16 q 145 109 186 50 q 97 245 103 168 l 160 245 q 200 136 165 182 q 294 66 236 91 q 429 41 353 41 q 572 69 510 41 q 669 147 634 97 q 704 263 704 197 q 679 354 704 316 q 605 420 654 392 q 483 469 556 447 l 365 505 q 185 603 247 541 q 122 758 122 665 q 164 896 122 836 q 276 991 205 956 q 437 1025 348 1025 q 597 991 528 1025 q 706 895 666 956 q 751 758 747 835 l 690 758 z "},"Ś":{"ha":862,"x_min":97,"x_max":765,"o":"m 690 758 q 614 910 683 852 q 436 968 545 968 q 305 941 363 968 q 216 867 248 914 q 183 760 183 820 q 198 689 183 721 q 241 634 213 658 q 306 591 268 609 q 390 559 344 573 l 501 526 q 605 486 557 509 q 689 432 654 464 q 745 359 725 401 q 765 262 765 317 q 724 119 765 182 q 607 20 683 56 q 429 -16 531 -16 q 259 17 331 -16 q 145 109 186 50 q 97 245 103 168 l 160 245 q 200 136 165 182 q 294 66 236 91 q 429 41 353 41 q 572 69 510 41 q 669 147 634 97 q 704 263 704 197 q 679 354 704 316 q 605 420 654 392 q 483 469 556 447 l 365 505 q 185 603 247 541 q 122 758 122 665 q 164 896 122 836 q 276 991 205 956 q 437 1025 348 1025 q 597 991 528 1025 q 706 895 666 956 q 751 758 747 835 l 690 758 m 402 1118 l 535 1336 l 606 1336 l 458 1118 l 402 1118 z "},"Ŝ":{"ha":862,"x_min":97,"x_max":765,"o":"m 690 758 q 614 910 683 852 q 436 968 545 968 q 305 941 363 968 q 216 867 248 914 q 183 760 183 820 q 198 689 183 721 q 241 634 213 658 q 306 591 268 609 q 390 559 344 573 l 501 526 q 605 486 557 509 q 689 432 654 464 q 745 359 725 401 q 765 262 765 317 q 724 119 765 182 q 607 20 683 56 q 429 -16 531 -16 q 259 17 331 -16 q 145 109 186 50 q 97 245 103 168 l 160 245 q 200 136 165 182 q 294 66 236 91 q 429 41 353 41 q 572 69 510 41 q 669 147 634 97 q 704 263 704 197 q 679 354 704 316 q 605 420 654 392 q 483 469 556 447 l 365 505 q 185 603 247 541 q 122 758 122 665 q 164 896 122 836 q 276 991 205 956 q 437 1025 348 1025 q 597 991 528 1025 q 706 895 666 956 q 751 758 747 835 l 690 758 m 564 1093 l 432 1240 l 299 1093 l 237 1093 l 237 1098 l 411 1290 l 452 1290 l 626 1098 l 626 1093 l 564 1093 z "},"Ş":{"ha":862,"x_min":97,"x_max":765,"o":"m 690 758 q 614 910 683 852 q 436 968 545 968 q 305 941 363 968 q 216 867 248 914 q 183 760 183 820 q 198 689 183 721 q 241 634 213 658 q 306 591 268 609 q 390 559 344 573 l 501 526 q 605 486 557 509 q 689 432 654 464 q 745 359 725 401 q 765 262 765 317 q 724 119 765 182 q 607 20 683 56 q 429 -16 531 -16 q 259 17 331 -16 q 145 109 186 50 q 97 245 103 168 l 160 245 q 200 136 165 182 q 294 66 236 91 q 429 41 353 41 q 572 69 510 41 q 669 147 634 97 q 704 263 704 197 q 679 354 704 316 q 605 420 654 392 q 483 469 556 447 l 365 505 q 185 603 247 541 q 122 758 122 665 q 164 896 122 836 q 276 991 205 956 q 437 1025 348 1025 q 597 991 528 1025 q 706 895 666 956 q 751 758 747 835 l 690 758 m 404 4 l 458 4 l 450 -36 q 525 -72 497 -43 q 553 -150 553 -101 q 513 -237 553 -207 q 395 -268 472 -267 l 393 -221 q 471 -204 445 -220 q 497 -152 497 -187 q 470 -94 497 -112 q 389 -74 443 -75 l 404 4 z "},"Š":{"ha":862,"x_min":97,"x_max":765,"o":"m 690 758 q 614 910 683 852 q 436 968 545 968 q 305 941 363 968 q 216 867 248 914 q 183 760 183 820 q 198 689 183 721 q 241 634 213 658 q 306 591 268 609 q 390 559 344 573 l 501 526 q 605 486 557 509 q 689 432 654 464 q 745 359 725 401 q 765 262 765 317 q 724 119 765 182 q 607 20 683 56 q 429 -16 531 -16 q 259 17 331 -16 q 145 109 186 50 q 97 245 103 168 l 160 245 q 200 136 165 182 q 294 66 236 91 q 429 41 353 41 q 572 69 510 41 q 669 147 634 97 q 704 263 704 197 q 679 354 704 316 q 605 420 654 392 q 483 469 556 447 l 365 505 q 185 603 247 541 q 122 758 122 665 q 164 896 122 836 q 276 991 205 956 q 437 1025 348 1025 q 597 991 528 1025 q 706 895 666 956 q 751 758 747 835 l 690 758 m 299 1307 l 432 1160 l 564 1307 l 626 1307 l 626 1302 l 452 1110 l 411 1110 l 237 1302 l 237 1307 l 299 1307 z "},"Ș":{"ha":862,"x_min":97,"x_max":765,"o":"m 690 758 q 614 910 683 852 q 436 968 545 968 q 305 941 363 968 q 216 867 248 914 q 183 760 183 820 q 198 689 183 721 q 241 634 213 658 q 306 591 268 609 q 390 559 344 573 l 501 526 q 605 486 557 509 q 689 432 654 464 q 745 359 725 401 q 765 262 765 317 q 724 119 765 182 q 607 20 683 56 q 429 -16 531 -16 q 259 17 331 -16 q 145 109 186 50 q 97 245 103 168 l 160 245 q 200 136 165 182 q 294 66 236 91 q 429 41 353 41 q 572 69 510 41 q 669 147 634 97 q 704 263 704 197 q 679 354 704 316 q 605 420 654 392 q 483 469 556 447 l 365 505 q 185 603 247 541 q 122 758 122 665 q 164 896 122 836 q 276 991 205 956 q 437 1025 348 1025 q 597 991 528 1025 q 706 895 666 956 q 751 758 747 835 l 690 758 m 338 -352 l 400 -96 l 462 -96 l 385 -352 l 338 -352 z "},"Ṡ":{"ha":862,"x_min":97,"x_max":765,"o":"m 690 758 q 614 910 683 852 q 436 968 545 968 q 305 941 363 968 q 216 867 248 914 q 183 760 183 820 q 198 689 183 721 q 241 634 213 658 q 306 591 268 609 q 390 559 344 573 l 501 526 q 605 486 557 509 q 689 432 654 464 q 745 359 725 401 q 765 262 765 317 q 724 119 765 182 q 607 20 683 56 q 429 -16 531 -16 q 259 17 331 -16 q 145 109 186 50 q 97 245 103 168 l 160 245 q 200 136 165 182 q 294 66 236 91 q 429 41 353 41 q 572 69 510 41 q 669 147 634 97 q 704 263 704 197 q 679 354 704 316 q 605 420 654 392 q 483 469 556 447 l 365 505 q 185 603 247 541 q 122 758 122 665 q 164 896 122 836 q 276 991 205 956 q 437 1025 348 1025 q 597 991 528 1025 q 706 895 666 956 q 751 758 747 835 l 690 758 m 432 1144 q 397 1158 411 1144 q 383 1192 383 1172 q 397 1225 383 1211 q 432 1239 411 1239 q 466 1225 451 1239 q 480 1192 480 1211 q 466 1158 480 1172 q 432 1144 451 1144 z "},"Ṣ":{"ha":862,"x_min":97,"x_max":765,"o":"m 690 758 q 614 910 683 852 q 436 968 545 968 q 305 941 363 968 q 216 867 248 914 q 183 760 183 820 q 198 689 183 721 q 241 634 213 658 q 306 591 268 609 q 390 559 344 573 l 501 526 q 605 486 557 509 q 689 432 654 464 q 745 359 725 401 q 765 262 765 317 q 724 119 765 182 q 607 20 683 56 q 429 -16 531 -16 q 259 17 331 -16 q 145 109 186 50 q 97 245 103 168 l 160 245 q 200 136 165 182 q 294 66 236 91 q 429 41 353 41 q 572 69 510 41 q 669 147 634 97 q 704 263 704 197 q 679 354 704 316 q 605 420 654 392 q 483 469 556 447 l 365 505 q 185 603 247 541 q 122 758 122 665 q 164 896 122 836 q 276 991 205 956 q 437 1025 348 1025 q 597 991 528 1025 q 706 895 666 956 q 751 758 747 835 l 690 758 m 432 -250 q 398 -236 412 -250 q 383 -202 383 -222 q 398 -169 383 -183 q 432 -155 412 -155 q 466 -169 452 -155 q 480 -202 480 -183 q 466 -236 480 -222 q 432 -250 452 -250 z "},"Ṥ":{"ha":862,"x_min":97,"x_max":765,"o":"m 690 758 q 614 910 683 852 q 436 968 545 968 q 305 941 363 968 q 216 867 248 914 q 183 760 183 820 q 198 689 183 721 q 241 634 213 658 q 306 591 268 609 q 390 559 344 573 l 501 526 q 605 486 557 509 q 689 432 654 464 q 745 359 725 401 q 765 262 765 317 q 724 119 765 182 q 607 20 683 56 q 429 -16 531 -16 q 259 17 331 -16 q 145 109 186 50 q 97 245 103 168 l 160 245 q 200 136 165 182 q 294 66 236 91 q 429 41 353 41 q 572 69 510 41 q 669 147 634 97 q 704 263 704 197 q 679 354 704 316 q 605 420 654 392 q 483 469 556 447 l 365 505 q 185 603 247 541 q 122 758 122 665 q 164 896 122 836 q 276 991 205 956 q 437 1025 348 1025 q 597 991 528 1025 q 706 895 666 956 q 751 758 747 835 l 690 758 m 406 1127 l 517 1309 l 592 1309 l 461 1127 l 406 1127 m 348 1344 q 361 1376 348 1363 q 395 1390 374 1390 q 429 1376 416 1390 q 442 1344 442 1362 q 429 1312 442 1325 q 395 1298 416 1298 q 361 1312 373 1298 q 348 1344 348 1326 z "},"Ṧ":{"ha":862,"x_min":97,"x_max":765,"o":"m 690 758 q 614 910 683 852 q 436 968 545 968 q 305 941 363 968 q 216 867 248 914 q 183 760 183 820 q 198 689 183 721 q 241 634 213 658 q 306 591 268 609 q 390 559 344 573 l 501 526 q 605 486 557 509 q 689 432 654 464 q 745 359 725 401 q 765 262 765 317 q 724 119 765 182 q 607 20 683 56 q 429 -16 531 -16 q 259 17 331 -16 q 145 109 186 50 q 97 245 103 168 l 160 245 q 200 136 165 182 q 294 66 236 91 q 429 41 353 41 q 572 69 510 41 q 669 147 634 97 q 704 263 704 197 q 679 354 704 316 q 605 420 654 392 q 483 469 556 447 l 365 505 q 185 603 247 541 q 122 758 122 665 q 164 896 122 836 q 276 991 205 956 q 437 1025 348 1025 q 597 991 528 1025 q 706 895 666 956 q 751 758 747 835 l 690 758 m 386 1344 q 399 1377 386 1364 q 433 1390 412 1390 q 468 1377 455 1390 q 480 1344 480 1363 q 467 1312 480 1325 q 433 1299 454 1299 q 399 1312 412 1299 q 386 1344 386 1325 m 301 1257 l 431 1146 l 561 1257 l 626 1257 l 626 1251 l 447 1097 l 414 1097 l 236 1250 l 236 1257 l 301 1257 z "},"Ṩ":{"ha":862,"x_min":97,"x_max":765,"o":"m 690 758 q 614 910 683 852 q 436 968 545 968 q 305 941 363 968 q 216 867 248 914 q 183 760 183 820 q 198 689 183 721 q 241 634 213 658 q 306 591 268 609 q 390 559 344 573 l 501 526 q 605 486 557 509 q 689 432 654 464 q 745 359 725 401 q 765 262 765 317 q 724 119 765 182 q 607 20 683 56 q 429 -16 531 -16 q 259 17 331 -16 q 145 109 186 50 q 97 245 103 168 l 160 245 q 200 136 165 182 q 294 66 236 91 q 429 41 353 41 q 572 69 510 41 q 669 147 634 97 q 704 263 704 197 q 679 354 704 316 q 605 420 654 392 q 483 469 556 447 l 365 505 q 185 603 247 541 q 122 758 122 665 q 164 896 122 836 q 276 991 205 956 q 437 1025 348 1025 q 597 991 528 1025 q 706 895 666 956 q 751 758 747 835 l 690 758 m 432 -250 q 398 -236 412 -250 q 383 -202 383 -222 q 398 -169 383 -183 q 432 -155 412 -155 q 466 -169 452 -155 q 480 -202 480 -183 q 466 -236 480 -222 q 432 -250 452 -250 m 432 1144 q 397 1158 411 1144 q 383 1192 383 1172 q 397 1225 383 1211 q 432 1239 411 1239 q 466 1225 451 1239 q 480 1192 480 1211 q 466 1158 480 1172 q 432 1144 451 1144 z "},"Ѕ":{"ha":862,"x_min":97,"x_max":765,"o":"m 690 758 q 614 910 683 852 q 436 968 545 968 q 305 941 363 968 q 216 867 248 914 q 183 760 183 820 q 198 689 183 721 q 241 634 213 658 q 306 591 268 609 q 390 559 344 573 l 501 526 q 605 486 557 509 q 689 432 654 464 q 745 359 725 401 q 765 262 765 317 q 724 119 765 182 q 607 20 683 56 q 429 -16 531 -16 q 259 17 331 -16 q 145 109 186 50 q 97 245 103 168 l 160 245 q 200 136 165 182 q 294 66 236 91 q 429 41 353 41 q 572 69 510 41 q 669 147 634 97 q 704 263 704 197 q 679 354 704 316 q 605 420 654 392 q 483 469 556 447 l 365 505 q 185 603 247 541 q 122 758 122 665 q 164 896 122 836 q 276 991 205 956 q 437 1025 348 1025 q 597 991 528 1025 q 706 895 666 956 q 751 758 747 835 l 690 758 z "},"Ƨ":{"ha":862,"x_min":97,"x_max":765,"o":"m 172 758 l 111 758 q 156 895 115 835 q 266 991 196 956 q 425 1025 335 1025 q 586 991 514 1025 q 698 896 657 956 q 740 758 740 836 q 678 603 740 665 q 497 505 616 541 l 379 469 q 257 420 307 447 q 183 354 208 392 q 158 263 158 316 q 193 147 158 197 q 290 69 228 97 q 434 41 352 41 q 568 66 509 41 q 662 136 626 91 q 702 245 697 182 l 765 245 q 718 109 760 168 q 604 17 676 50 q 434 -16 531 -16 q 255 20 331 -16 q 138 119 180 56 q 97 262 97 182 q 117 359 97 317 q 173 432 137 401 q 257 486 209 464 q 362 526 305 509 l 472 559 q 580 604 533 577 q 653 669 626 631 q 679 760 679 707 q 647 867 679 820 q 557 941 614 914 q 426 968 500 968 q 298 942 354 968 q 210 868 243 915 q 172 758 177 820 z "},"ẞ":{"ha":880,"x_min":146,"x_max":783,"o":"m 146 0 l 146 730 q 179 889 146 823 q 272 989 211 954 q 420 1024 333 1024 q 528 1008 476 1024 q 625 962 580 991 q 707 894 670 933 l 464 554 q 638 520 567 552 q 746 428 709 488 q 783 282 783 368 q 745 128 783 192 q 637 30 707 64 q 475 -4 568 -4 q 400 2 437 -4 q 326 21 362 8 l 346 77 q 405 60 371 67 q 481 53 438 53 q 654 114 590 53 q 718 280 718 176 q 703 368 718 330 q 663 431 689 405 q 602 472 637 456 q 525 494 567 487 q 436 501 483 501 l 394 501 l 394 557 l 627 887 q 531 945 583 923 q 418 967 478 967 q 301 936 347 967 q 231 850 254 905 q 208 725 208 796 l 208 0 l 146 0 z "},"T":{"ha":866,"x_min":79,"x_max":787,"o":"m 79 953 l 79 1010 l 787 1010 l 787 953 l 464 953 l 464 0 l 402 0 l 402 953 l 79 953 z "},"Ţ":{"ha":866,"x_min":79,"x_max":787,"o":"m 79 953 l 79 1010 l 787 1010 l 787 953 l 464 953 l 464 0 l 402 0 l 402 953 l 79 953 m 410 1 l 464 1 l 456 -38 q 531 -74 503 -45 q 559 -153 559 -103 q 519 -239 559 -209 q 401 -271 478 -269 l 399 -224 q 477 -206 451 -223 q 503 -154 503 -190 q 476 -96 503 -115 q 395 -77 449 -77 l 410 1 z "},"Ť":{"ha":866,"x_min":79,"x_max":787,"o":"m 79 953 l 79 1010 l 787 1010 l 787 953 l 464 953 l 464 0 l 402 0 l 402 953 l 79 953 m 300 1307 l 433 1160 l 565 1307 l 627 1307 l 627 1302 l 453 1110 l 412 1110 l 238 1302 l 238 1307 l 300 1307 z "},"Ț":{"ha":866,"x_min":79,"x_max":787,"o":"m 79 953 l 79 1010 l 787 1010 l 787 953 l 464 953 l 464 0 l 402 0 l 402 953 l 79 953 m 338 -335 l 400 -80 l 463 -80 l 386 -335 l 338 -335 z "},"Ṫ":{"ha":866,"x_min":79,"x_max":787,"o":"m 79 953 l 79 1010 l 787 1010 l 787 953 l 464 953 l 464 0 l 402 0 l 402 953 l 79 953 m 433 1144 q 399 1158 413 1144 q 384 1192 384 1172 q 399 1225 384 1211 q 433 1239 413 1239 q 467 1225 453 1239 q 481 1192 481 1211 q 467 1158 481 1172 q 433 1144 453 1144 z "},"Ṭ":{"ha":866,"x_min":79,"x_max":787,"o":"m 79 953 l 79 1010 l 787 1010 l 787 953 l 464 953 l 464 0 l 402 0 l 402 953 l 79 953 m 433 -233 q 399 -219 413 -233 q 384 -186 384 -206 q 399 -153 384 -167 q 433 -139 413 -139 q 467 -153 453 -139 q 481 -186 481 -167 q 467 -219 481 -206 q 433 -233 453 -233 z "},"Ṯ":{"ha":866,"x_min":79,"x_max":787,"o":"m 79 953 l 79 1010 l 787 1010 l 787 953 l 464 953 l 464 0 l 402 0 l 402 953 l 79 953 m 615 -136 l 615 -190 l 251 -190 l 251 -136 l 615 -136 z "},"Ṱ":{"ha":866,"x_min":79,"x_max":787,"o":"m 79 953 l 79 1010 l 787 1010 l 787 953 l 464 953 l 464 0 l 402 0 l 402 953 l 79 953 m 565 -271 l 433 -124 l 300 -271 l 238 -271 l 238 -266 l 412 -73 l 453 -73 l 627 -266 l 627 -271 l 565 -271 z "},"Ƭ":{"ha":884,"x_min":79,"x_max":805,"o":"m 805 1010 l 805 953 l 482 953 l 482 0 l 420 0 l 420 953 l 237 953 q 178 939 200 953 q 146 898 156 925 q 137 830 137 871 l 137 805 l 79 805 l 79 849 q 120 967 79 925 q 235 1010 161 1010 l 805 1010 z "},"Ʈ":{"ha":866,"x_min":79,"x_max":787,"o":"m 464 0 l 464 -103 q 493 -197 464 -169 q 574 -225 523 -225 l 606 -225 l 606 -283 l 562 -283 q 497 -271 526 -283 q 447 -237 468 -259 q 414 -181 425 -214 q 402 -104 402 -147 l 402 0 l 464 0 m 79 953 l 79 1010 l 787 1010 l 787 953 l 464 953 l 464 0 l 402 0 l 402 953 l 79 953 z "},"Ⱦ":{"ha":866,"x_min":79,"x_max":787,"o":"m 175 -128 l 651 1138 l 709 1138 l 233 -128 l 175 -128 m 79 953 l 79 1010 l 787 1010 l 787 953 l 464 953 l 464 0 l 402 0 l 402 953 l 79 953 z "},"Τ":{"ha":866,"x_min":79,"x_max":787,"o":"m 79 953 l 79 1010 l 787 1010 l 787 953 l 464 953 l 464 0 l 402 0 l 402 953 l 79 953 z "},"U":{"ha":1038,"x_min":145,"x_max":892,"o":"m 830 1010 l 892 1010 l 892 341 q 844 158 892 238 q 712 30 796 77 q 519 -16 628 -16 q 326 30 410 -16 q 194 158 242 77 q 146 341 145 239 l 146 1010 l 208 1010 l 208 345 q 247 189 208 257 q 357 82 287 121 q 519 43 427 43 q 681 82 611 43 q 790 189 751 121 q 830 345 830 257 l 830 1010 z "},"Ư":{"ha":1156,"x_min":145,"x_max":1077,"o":"m 1017 1082 l 1077 1082 q 1056 958 1077 1008 q 989 880 1035 908 q 868 844 943 852 l 868 897 q 958 927 926 906 q 1004 986 990 948 q 1017 1082 1017 1024 m 830 1010 l 892 1010 l 892 341 q 844 158 892 238 q 712 30 796 77 q 519 -16 628 -16 q 326 30 410 -16 q 194 158 242 77 q 146 341 145 239 l 146 1010 l 208 1010 l 208 345 q 247 189 208 257 q 357 82 287 121 q 519 43 427 43 q 681 82 611 43 q 790 189 751 121 q 830 345 830 257 l 830 1010 z "},"Ù":{"ha":1038,"x_min":145,"x_max":892,"o":"m 830 1010 l 892 1010 l 892 341 q 844 158 892 238 q 712 30 796 77 q 519 -16 628 -16 q 326 30 410 -16 q 194 158 242 77 q 146 341 145 239 l 146 1010 l 208 1010 l 208 345 q 247 189 208 257 q 357 82 287 121 q 519 43 427 43 q 681 82 611 43 q 790 189 751 121 q 830 345 830 257 l 830 1010 m 492 1118 l 344 1336 l 415 1336 l 547 1118 l 492 1118 z "},"Ú":{"ha":1038,"x_min":145,"x_max":892,"o":"m 830 1010 l 892 1010 l 892 341 q 844 158 892 238 q 712 30 796 77 q 519 -16 628 -16 q 326 30 410 -16 q 194 158 242 77 q 146 341 145 239 l 146 1010 l 208 1010 l 208 345 q 247 189 208 257 q 357 82 287 121 q 519 43 427 43 q 681 82 611 43 q 790 189 751 121 q 830 345 830 257 l 830 1010 m 490 1118 l 622 1336 l 693 1336 l 545 1118 l 490 1118 z "},"Û":{"ha":1038,"x_min":145,"x_max":892,"o":"m 830 1010 l 892 1010 l 892 341 q 844 158 892 238 q 712 30 796 77 q 519 -16 628 -16 q 326 30 410 -16 q 194 158 242 77 q 146 341 145 239 l 146 1010 l 208 1010 l 208 345 q 247 189 208 257 q 357 82 287 121 q 519 43 427 43 q 681 82 611 43 q 790 189 751 121 q 830 345 830 257 l 830 1010 m 652 1093 l 519 1240 l 386 1093 l 324 1093 l 324 1098 l 499 1290 l 539 1290 l 714 1098 l 714 1093 l 652 1093 z "},"Ü":{"ha":1038,"x_min":145,"x_max":892,"o":"m 830 1010 l 892 1010 l 892 341 q 844 158 892 238 q 712 30 796 77 q 519 -16 628 -16 q 326 30 410 -16 q 194 158 242 77 q 146 341 145 239 l 146 1010 l 208 1010 l 208 345 q 247 189 208 257 q 357 82 287 121 q 519 43 427 43 q 681 82 611 43 q 790 189 751 121 q 830 345 830 257 l 830 1010 m 408 1144 q 375 1159 390 1144 q 361 1192 361 1173 q 375 1225 361 1212 q 408 1239 390 1239 q 442 1225 428 1239 q 456 1192 456 1212 q 442 1159 456 1173 q 408 1144 428 1144 m 629 1144 q 596 1159 611 1144 q 582 1192 582 1173 q 596 1225 582 1212 q 629 1239 611 1239 q 663 1225 649 1239 q 677 1192 677 1212 q 663 1159 677 1173 q 629 1144 649 1144 z "},"Ũ":{"ha":1038,"x_min":145,"x_max":892,"o":"m 830 1010 l 892 1010 l 892 341 q 844 158 892 238 q 712 30 796 77 q 519 -16 628 -16 q 326 30 410 -16 q 194 158 242 77 q 146 341 145 239 l 146 1010 l 208 1010 l 208 345 q 247 189 208 257 q 357 82 287 121 q 519 43 427 43 q 681 82 611 43 q 790 189 751 121 q 830 345 830 257 l 830 1010 m 338 1128 l 287 1132 q 330 1224 291 1189 q 424 1259 369 1259 q 479 1248 456 1259 q 523 1222 503 1236 q 564 1196 544 1207 q 613 1184 585 1184 q 670 1206 644 1184 q 700 1261 695 1227 l 751 1253 q 705 1163 744 1197 q 615 1130 665 1130 q 560 1141 582 1130 q 518 1167 537 1153 q 477 1193 499 1182 q 426 1205 456 1205 q 366 1183 391 1205 q 338 1128 341 1161 z "},"Ū":{"ha":1038,"x_min":145,"x_max":892,"o":"m 830 1010 l 892 1010 l 892 341 q 844 158 892 238 q 712 30 796 77 q 519 -16 628 -16 q 326 30 410 -16 q 194 158 242 77 q 146 341 145 239 l 146 1010 l 208 1010 l 208 345 q 247 189 208 257 q 357 82 287 121 q 519 43 427 43 q 681 82 611 43 q 790 189 751 121 q 830 345 830 257 l 830 1010 m 701 1218 l 701 1164 l 337 1164 l 337 1218 l 701 1218 z "},"Ŭ":{"ha":1038,"x_min":145,"x_max":892,"o":"m 830 1010 l 892 1010 l 892 341 q 844 158 892 238 q 712 30 796 77 q 519 -16 628 -16 q 326 30 410 -16 q 194 158 242 77 q 146 341 145 239 l 146 1010 l 208 1010 l 208 345 q 247 189 208 257 q 357 82 287 121 q 519 43 427 43 q 681 82 611 43 q 790 189 751 121 q 830 345 830 257 l 830 1010 m 604 1263 l 661 1263 q 623 1164 661 1201 q 519 1127 585 1127 q 415 1164 453 1127 q 377 1263 377 1201 l 435 1263 q 455 1200 435 1224 q 519 1176 476 1176 q 583 1200 562 1176 q 604 1263 604 1224 z "},"Ů":{"ha":1038,"x_min":145,"x_max":892,"o":"m 830 1010 l 892 1010 l 892 341 q 844 158 892 238 q 712 30 796 77 q 519 -16 628 -16 q 326 30 410 -16 q 194 158 242 77 q 146 341 145 239 l 146 1010 l 208 1010 l 208 345 q 247 189 208 257 q 357 82 287 121 q 519 43 427 43 q 681 82 611 43 q 790 189 751 121 q 830 345 830 257 l 830 1010 m 519 1066 q 432 1102 468 1066 q 396 1189 396 1138 q 413 1251 396 1223 q 457 1295 429 1278 q 519 1311 485 1311 q 581 1295 553 1311 q 625 1251 609 1278 q 641 1189 641 1223 q 625 1127 641 1155 q 581 1082 609 1099 q 519 1066 553 1066 m 519 1111 q 574 1133 551 1111 q 596 1189 596 1156 q 574 1244 596 1221 q 518 1267 551 1267 q 463 1244 486 1267 q 441 1189 441 1221 q 464 1133 441 1156 q 519 1111 486 1111 z "},"Ű":{"ha":1038,"x_min":145,"x_max":892,"o":"m 830 1010 l 892 1010 l 892 341 q 844 158 892 238 q 712 30 796 77 q 519 -16 628 -16 q 326 30 410 -16 q 194 158 242 77 q 146 341 145 239 l 146 1010 l 208 1010 l 208 345 q 247 189 208 257 q 357 82 287 121 q 519 43 427 43 q 681 82 611 43 q 790 189 751 121 q 830 345 830 257 l 830 1010 m 545 1090 l 714 1302 l 784 1302 l 600 1090 l 545 1090 m 381 1090 l 509 1302 l 579 1302 l 433 1090 l 381 1090 z "},"Ų":{"ha":1038,"x_min":145,"x_max":892,"o":"m 830 1010 l 892 1010 l 892 341 q 844 158 892 238 q 712 30 796 77 q 519 -16 628 -16 q 326 30 410 -16 q 194 158 242 77 q 146 341 145 239 l 146 1010 l 208 1010 l 208 345 q 247 189 208 257 q 357 82 287 121 q 519 43 427 43 q 681 82 611 43 q 790 189 751 121 q 830 345 830 257 l 830 1010 m 533 -298 q 443 -267 478 -298 q 408 -178 408 -237 q 423 -109 408 -142 q 468 -46 438 -76 q 541 14 497 -16 l 579 0 q 500 -86 531 -44 q 469 -173 469 -127 q 488 -226 469 -209 q 543 -244 508 -244 q 581 -238 564 -244 q 613 -221 597 -232 l 628 -267 q 585 -289 608 -281 q 533 -298 562 -298 z "},"Ǔ":{"ha":1038,"x_min":145,"x_max":892,"o":"m 830 1010 l 892 1010 l 892 341 q 844 158 892 238 q 712 30 796 77 q 519 -16 628 -16 q 326 30 410 -16 q 194 158 242 77 q 146 341 145 239 l 146 1010 l 208 1010 l 208 345 q 247 189 208 257 q 357 82 287 121 q 519 43 427 43 q 681 82 611 43 q 790 189 751 121 q 830 345 830 257 l 830 1010 m 386 1307 l 519 1160 l 652 1307 l 714 1307 l 714 1302 l 539 1110 l 499 1110 l 324 1302 l 324 1307 l 386 1307 z "},"Ǖ":{"ha":1038,"x_min":145,"x_max":892,"o":"m 830 1010 l 892 1010 l 892 341 q 844 158 892 238 q 712 30 796 77 q 519 -16 628 -16 q 326 30 410 -16 q 194 158 242 77 q 146 341 145 239 l 146 1010 l 208 1010 l 208 345 q 247 189 208 257 q 357 82 287 121 q 519 43 427 43 q 681 82 611 43 q 790 189 751 121 q 830 345 830 257 l 830 1010 m 409 1144 q 376 1159 390 1144 q 362 1192 362 1173 q 376 1225 362 1211 q 409 1239 390 1239 q 443 1225 429 1239 q 456 1192 456 1211 q 443 1159 456 1173 q 409 1144 429 1144 m 630 1144 q 597 1159 611 1144 q 582 1192 582 1173 q 597 1225 582 1211 q 630 1239 611 1239 q 664 1225 650 1239 q 677 1192 677 1211 q 664 1159 677 1173 q 630 1144 650 1144 m 702 1430 l 702 1377 l 338 1377 l 338 1430 l 702 1430 z "}}}
